<?xml version="1.0" encoding="utf-8" standalone="no"?>
<!DOCTYPE svg PUBLIC "-//W3C//DTD SVG 1.1//EN"
  "http://www.w3.org/Graphics/SVG/1.1/DTD/svg11.dtd">
<!-- Created with matplotlib (https://matplotlib.org/) -->
<svg height="504pt" version="1.1" viewBox="0 0 1080 504" width="1080pt" xmlns="http://www.w3.org/2000/svg" xmlns:xlink="http://www.w3.org/1999/xlink">
 <defs>
  <style type="text/css">
*{stroke-linecap:butt;stroke-linejoin:round;}
  </style>
 </defs>
 <g id="figure_1">
  <g id="patch_1">
   <path d="M 0 504 
L 1080 504 
L 1080 0 
L 0 0 
z
" style="fill:#ffffff;"/>
  </g>
  <g id="axes_1">
   <g id="patch_2">
    <path d="M 135 441 
L 515.454545 441 
L 515.454545 60.48 
L 135 60.48 
z
" style="fill:#ffffff;"/>
   </g>
   <g id="matplotlib.axis_1">
    <g id="xtick_1">
     <g id="line2d_1">
      <defs>
       <path d="M 0 0 
L 0 3.5 
" id="m1061deb3c5" style="stroke:#000000;stroke-width:0.8;"/>
      </defs>
      <g>
       <use style="stroke:#000000;stroke-width:0.8;" x="152.293388" xlink:href="#m1061deb3c5" y="441"/>
      </g>
     </g>
     <g id="text_1">
      <!-- $0$ -->
      <defs>
       <path d="M 42 31.84375 
C 42 37.96875 41.90625 48.421875 37.703125 56.453125 
C 34 63.484375 28.09375 66 22.90625 66 
C 18.09375 66 12 63.78125 8.203125 56.5625 
C 4.203125 49.015625 3.796875 39.671875 3.796875 31.84375 
C 3.796875 26.109375 3.90625 17.375 7 9.734375 
C 11.296875 -0.609375 19 -2 22.90625 -2 
C 27.5 -2 34.5 -0.109375 38.59375 9.4375 
C 41.59375 16.375 42 24.5 42 31.84375 
z
M 22.90625 -0.40625 
C 16.5 -0.40625 12.703125 5.125 11.296875 12.75 
C 10.203125 18.6875 10.203125 27.328125 10.203125 32.953125 
C 10.203125 40.6875 10.203125 47.109375 11.5 53.234375 
C 13.40625 61.78125 19 64.390625 22.90625 64.390625 
C 27 64.390625 32.296875 61.671875 34.203125 53.4375 
C 35.5 47.71875 35.59375 40.984375 35.59375 32.953125 
C 35.59375 26.421875 35.59375 18.375 34.40625 12.453125 
C 32.296875 1.5 26.40625 -0.40625 22.90625 -0.40625 
z
" id="CMR17-48"/>
      </defs>
      <g transform="translate(147.267436 463.220693)scale(0.22 -0.22)">
       <use transform="scale(0.996264)" xlink:href="#CMR17-48"/>
      </g>
     </g>
    </g>
    <g id="xtick_2">
     <g id="line2d_2">
      <g>
       <use style="stroke:#000000;stroke-width:0.8;" x="239.194838" xlink:href="#m1061deb3c5" y="441"/>
      </g>
     </g>
     <g id="text_2">
      <!-- $50$ -->
      <defs>
       <path d="M 11.40625 58.59375 
C 12.40625 58.1875 16.5 56.890625 20.703125 56.890625 
C 30 56.890625 35.09375 61.890625 38 64.6875 
C 38 65.484375 38 66 37.40625 66 
C 37.296875 66 37.09375 66 36.296875 65.59375 
C 32.796875 64.09375 28.703125 63 23.703125 63 
C 20.703125 63 16.203125 63.359375 11.296875 65.484375 
C 10.203125 66 10 66 9.90625 66 
C 9.40625 66 9.296875 65.890625 9.296875 63.90625 
L 9.296875 34.859375 
C 9.296875 33.015625 9.296875 32.5 10.296875 32.5 
C 10.796875 32.5 11 32.703125 11.5 33.421875 
C 14.703125 38.046875 19.09375 40 24.09375 40 
C 27.59375 40 35.09375 37.734375 35.09375 20.203125 
C 35.09375 16.984375 35.09375 11.1875 32.09375 6.59375 
C 29.59375 2.484375 25.703125 0.390625 21.40625 0.390625 
C 14.796875 0.390625 8.09375 4.984375 6.296875 12.6875 
C 6.703125 12.59375 7.5 12.390625 7.90625 12.390625 
C 9.203125 12.390625 11.703125 13.09375 11.703125 16.1875 
C 11.703125 18.890625 9.796875 20 7.90625 20 
C 5.59375 20 4.09375 18.59375 4.09375 15.796875 
C 4.09375 7.09375 11 -2 21.59375 -2 
C 31.90625 -2 41.703125 6.890625 41.703125 19.796875 
C 41.703125 32.09375 33.90625 41.59375 24.203125 41.59375 
C 19.09375 41.59375 14.796875 39.6875 11.40625 36 
z
" id="CMR17-53"/>
      </defs>
      <g transform="translate(229.142933 463.220693)scale(0.22 -0.22)">
       <use transform="scale(0.996264)" xlink:href="#CMR17-53"/>
       <use transform="translate(45.690477 0)scale(0.996264)" xlink:href="#CMR17-48"/>
      </g>
     </g>
    </g>
    <g id="xtick_3">
     <g id="line2d_3">
      <g>
       <use style="stroke:#000000;stroke-width:0.8;" x="326.096287" xlink:href="#m1061deb3c5" y="441"/>
      </g>
     </g>
     <g id="text_3">
      <!-- $100$ -->
      <defs>
       <path d="M 26.59375 63.796875 
C 26.59375 65.890625 26.5 66 25.09375 66 
C 21.203125 61.359375 15.296875 59.890625 9.703125 59.6875 
C 9.40625 59.6875 8.90625 59.6875 8.796875 59.5 
C 8.703125 59.296875 8.703125 59.09375 8.703125 57 
C 11.796875 57 17 57.59375 21 59.984375 
L 21 7.296875 
C 21 3.796875 20.796875 2.59375 12.203125 2.59375 
L 9.203125 2.59375 
L 9.203125 0 
C 14 0.09375 19 0.1875 23.796875 0.1875 
C 28.59375 0.1875 33.59375 0.09375 38.40625 0 
L 38.40625 2.59375 
L 35.40625 2.59375 
C 26.796875 2.59375 26.59375 3.6875 26.59375 7.296875 
z
" id="CMR17-49"/>
      </defs>
      <g transform="translate(311.01843 463.220693)scale(0.22 -0.22)">
       <use transform="scale(0.996264)" xlink:href="#CMR17-49"/>
       <use transform="translate(45.690477 0)scale(0.996264)" xlink:href="#CMR17-48"/>
       <use transform="translate(91.380954 0)scale(0.996264)" xlink:href="#CMR17-48"/>
      </g>
     </g>
    </g>
    <g id="xtick_4">
     <g id="line2d_4">
      <g>
       <use style="stroke:#000000;stroke-width:0.8;" x="412.997737" xlink:href="#m1061deb3c5" y="441"/>
      </g>
     </g>
     <g id="text_4">
      <!-- $150$ -->
      <g transform="translate(397.919879 463.220693)scale(0.22 -0.22)">
       <use transform="scale(0.996264)" xlink:href="#CMR17-49"/>
       <use transform="translate(45.690477 0)scale(0.996264)" xlink:href="#CMR17-53"/>
       <use transform="translate(91.380954 0)scale(0.996264)" xlink:href="#CMR17-48"/>
      </g>
     </g>
    </g>
    <g id="xtick_5">
     <g id="line2d_5">
      <g>
       <use style="stroke:#000000;stroke-width:0.8;" x="499.899186" xlink:href="#m1061deb3c5" y="441"/>
      </g>
     </g>
     <g id="text_5">
      <!-- $200$ -->
      <defs>
       <path d="M 41.703125 15.46875 
L 39.90625 15.46875 
C 38.90625 8.390625 38.09375 7.1875 37.703125 6.59375 
C 37.203125 5.796875 30 5.796875 28.59375 5.796875 
L 9.40625 5.796875 
C 13 9.6875 20 16.765625 28.5 24.9375 
C 34.59375 30.71875 41.703125 37.5 41.703125 47.390625 
C 41.703125 59.1875 32.296875 66 21.796875 66 
C 10.796875 66 4.09375 56.296875 4.09375 47.296875 
C 4.09375 43.390625 7 42.890625 8.203125 42.890625 
C 9.203125 42.890625 12.203125 43.484375 12.203125 46.984375 
C 12.203125 50.09375 9.59375 51 8.203125 51 
C 7.59375 51 7 50.890625 6.59375 50.6875 
C 8.5 59.1875 14.296875 63.390625 20.40625 63.390625 
C 29.09375 63.390625 34.796875 56.5 34.796875 47.390625 
C 34.796875 38.703125 29.703125 31.21875 24 24.734375 
L 4.09375 2.296875 
L 4.09375 0 
L 39.296875 0 
z
" id="CMR17-50"/>
      </defs>
      <g transform="translate(484.821329 463.220693)scale(0.22 -0.22)">
       <use transform="scale(0.996264)" xlink:href="#CMR17-50"/>
       <use transform="translate(45.690477 0)scale(0.996264)" xlink:href="#CMR17-48"/>
       <use transform="translate(91.380954 0)scale(0.996264)" xlink:href="#CMR17-48"/>
      </g>
     </g>
    </g>
    <g id="text_6">
     <!-- Iteration -->
     <defs>
      <path d="M 17.09375 69 
L 8.703125 69 
L 8.703125 0 
L 17.09375 0 
z
" id="CMSS17-73"/>
      <path d="M 16.703125 37.1875 
L 29.703125 37.1875 
L 29.703125 43 
L 16.703125 43 
L 16.703125 55 
L 9.59375 55 
L 9.59375 43 
L 1.703125 43 
L 1.703125 37.1875 
L 9.40625 37.1875 
L 9.40625 11.734375 
C 9.40625 6 10.703125 -1 17.296875 -1 
C 22.296875 -1 26.90625 0.390625 31.296875 2.6875 
L 29.703125 8.609375 
C 27.296875 6.5 24.40625 5.296875 21.296875 5.296875 
C 16.90625 5.296875 16.703125 10.921875 16.703125 13.4375 
z
" id="CMSS17-116"/>
      <path d="M 39.09375 21.484375 
C 39.09375 24.796875 38.90625 31.265625 35.703125 36.671875 
C 32.203125 42.390625 26.5 44 22.203125 44 
C 11.796875 44 3 34.125 3 21.296875 
C 3 9.046875 12.09375 -1 23.59375 -1 
C 28.09375 -1 33.59375 0.296875 38.59375 3.890625 
C 38.59375 4.296875 38.40625 6.46875 38.296875 6.578125 
C 38.296875 6.765625 38 9.828125 38 10.234375 
C 33.203125 6.375 27.703125 5.09375 23.703125 5.09375 
C 17.296875 5.09375 10.40625 10.421875 10.09375 21.484375 
z
M 10.90625 27 
C 12.203125 32.59375 16.59375 37.890625 22.203125 37.890625 
C 23.703125 37.890625 30.703125 37.6875 32.5 27 
z
" id="CMSS17-101"/>
      <path d="M 14.90625 21.390625 
C 14.90625 30.84375 21.796875 37.171875 30.59375 37.375 
L 30.59375 44 
C 24.203125 43.890625 18.203125 40.6875 14.59375 35.46875 
L 14.59375 43.484375 
L 7.5 43.484375 
L 7.5 0 
L 14.90625 0 
z
" id="CMSS17-114"/>
      <path d="M 37.59375 27.953125 
C 37.59375 37.484375 30.90625 44 21.90625 44 
C 17.5 44 12.703125 43.1875 7.203125 39.984375 
L 7.796875 33.328125 
C 10.296875 35.15625 14.59375 38.09375 21.796875 38.09375 
C 26.90625 38.09375 30 34.140625 30 27.84375 
L 30 24 
C 14 23.5 4 18.890625 4 11.109375 
C 4 7.0625 6.5 -1 14.796875 -1 
C 16.296875 -1 24.40625 -0.8125 30.203125 3.5 
L 30.203125 -0.203125 
L 37.59375 -0.203125 
z
M 30 12.875 
C 30 11.109375 30 8.734375 27 6.96875 
C 24.40625 5.296875 21.09375 5.09375 19.703125 5.09375 
C 14.703125 5.09375 11.296875 7.859375 11.296875 11.296875 
C 11.296875 18.203125 26.90625 18.890625 30 19 
z
" id="CMSS17-97"/>
      <path d="M 15.296875 66 
L 6.90625 66 
L 6.90625 57.59375 
L 15.296875 57.59375 
z
M 14.796875 43 
L 7.40625 43 
L 7.40625 0 
L 14.796875 0 
z
" id="CMSS17-105"/>
      <path d="M 44.203125 21.1875 
C 44.203125 33.984375 34.703125 44 23.5 44 
C 12 44 2.703125 33.6875 2.703125 21.1875 
C 2.703125 8.5 12.296875 -1 23.40625 -1 
C 34.796875 -1 44.203125 8.796875 44.203125 21.1875 
z
M 23.5 5.296875 
C 16.40625 5.296875 10.296875 11.09375 10.296875 21.984375 
C 10.296875 33.59375 17.40625 37.890625 23.40625 37.890625 
C 29.90625 37.890625 36.59375 33.1875 36.59375 21.984375 
C 36.59375 10.6875 30.09375 5.296875 23.5 5.296875 
z
" id="CMSS17-111"/>
      <path d="M 40.90625 29.34375 
C 40.90625 35.671875 39.40625 44 28.09375 44 
C 21.703125 44 17.5 40.6875 14.703125 37.28125 
L 14.703125 43.484375 
L 7.40625 43.484375 
L 7.40625 0 
L 15 0 
L 15 24.3125 
C 15 30.65625 17.40625 37.890625 24.203125 37.890625 
C 33 37.890625 33.296875 31.953125 33.296875 28.53125 
L 33.296875 0 
L 40.90625 0 
z
" id="CMSS17-110"/>
     </defs>
     <g transform="translate(297.871825 482.55347)scale(0.16 -0.16)">
      <use transform="scale(0.996264)" xlink:href="#CMSS17-73"/>
      <use transform="translate(25.783926 0)scale(0.996264)" xlink:href="#CMSS17-116"/>
      <use transform="translate(59.615492 0)scale(0.996264)" xlink:href="#CMSS17-101"/>
      <use transform="translate(101.254314 0)scale(0.996264)" xlink:href="#CMSS17-114"/>
      <use transform="translate(133.164087 0)scale(0.996264)" xlink:href="#CMSS17-97"/>
      <use transform="translate(178.086007 0)scale(0.996264)" xlink:href="#CMSS17-116"/>
      <use transform="translate(211.917574 0)scale(0.996264)" xlink:href="#CMSS17-105"/>
      <use transform="translate(234.098297 0)scale(0.996264)" xlink:href="#CMSS17-111"/>
      <use transform="translate(280.941921 0)scale(0.996264)" xlink:href="#CMSS17-110"/>
     </g>
    </g>
   </g>
   <g id="matplotlib.axis_2">
    <g id="ytick_1">
     <g id="line2d_6">
      <defs>
       <path d="M 0 0 
L -3.5 0 
" id="mf3ab9956e1" style="stroke:#000000;stroke-width:0.8;"/>
      </defs>
      <g>
       <use style="stroke:#000000;stroke-width:0.8;" x="135" xlink:href="#mf3ab9956e1" y="424.141595"/>
      </g>
     </g>
     <g id="text_7">
      <!-- $0$ -->
      <g transform="translate(117.948095 431.751941)scale(0.22 -0.22)">
       <use transform="scale(0.996264)" xlink:href="#CMR17-48"/>
      </g>
     </g>
    </g>
    <g id="ytick_2">
     <g id="line2d_7">
      <g>
       <use style="stroke:#000000;stroke-width:0.8;" x="135" xlink:href="#mf3ab9956e1" y="361.036713"/>
      </g>
     </g>
     <g id="text_8">
      <!-- $2$ -->
      <g transform="translate(117.948095 368.64706)scale(0.22 -0.22)">
       <use transform="scale(0.996264)" xlink:href="#CMR17-50"/>
      </g>
     </g>
    </g>
    <g id="ytick_3">
     <g id="line2d_8">
      <g>
       <use style="stroke:#000000;stroke-width:0.8;" x="135" xlink:href="#mf3ab9956e1" y="297.931832"/>
      </g>
     </g>
     <g id="text_9">
      <!-- $4$ -->
      <defs>
       <path d="M 33.59375 64.796875 
C 33.59375 66.890625 33.5 67 31.703125 67 
L 2 19.59375 
L 2 17 
L 27.796875 17 
L 27.796875 7.1875 
C 27.796875 3.59375 27.59375 2.59375 20.59375 2.59375 
L 18.703125 2.59375 
L 18.703125 0 
C 21.90625 0.1875 27.296875 0.1875 30.703125 0.1875 
C 34.09375 0.1875 39.5 0.1875 42.703125 0 
L 42.703125 2.59375 
L 40.796875 2.59375 
C 33.796875 2.59375 33.59375 3.59375 33.59375 7.1875 
L 33.59375 17 
L 43.796875 17 
L 43.796875 19.59375 
L 33.59375 19.59375 
z
M 28.09375 58.171875 
L 28.09375 19.59375 
L 4 19.59375 
z
" id="CMR17-52"/>
      </defs>
      <g transform="translate(117.948095 305.542179)scale(0.22 -0.22)">
       <use transform="scale(0.996264)" xlink:href="#CMR17-52"/>
      </g>
     </g>
    </g>
    <g id="ytick_4">
     <g id="line2d_9">
      <g>
       <use style="stroke:#000000;stroke-width:0.8;" x="135" xlink:href="#mf3ab9956e1" y="234.826951"/>
      </g>
     </g>
     <g id="text_10">
      <!-- $6$ -->
      <defs>
       <path d="M 10.59375 34.34375 
C 10.59375 58 21.796875 63.6875 28.296875 63.6875 
C 30.40625 63.6875 35.5 63.265625 37.5 59.09375 
C 35.90625 59.09375 32.90625 59.09375 32.90625 55.59375 
C 32.90625 52.890625 35.09375 52 36.5 52 
C 37.40625 52 40.09375 52.390625 40.09375 55.796875 
C 40.09375 62.296875 35.09375 66 28.203125 66 
C 16.296875 66 3.796875 53.296875 3.796875 31.421875 
C 3.796875 4.015625 15.09375 -2 23.09375 -2 
C 32.796875 -2 42 6.734375 42 20.234375 
C 42 32.828125 33.90625 42 23.703125 42 
C 17.59375 42 13.09375 37.96875 10.59375 30.921875 
z
M 23.09375 0.390625 
C 10.796875 0.390625 10.796875 18.9375 10.796875 22.65625 
C 10.796875 29.90625 14.203125 40.390625 23.5 40.390625 
C 25.203125 40.390625 30.09375 40.390625 33.40625 33.4375 
C 35.203125 29.515625 35.203125 25.375 35.203125 20.34375 
C 35.203125 14.90625 35.203125 10.875 33.09375 6.84375 
C 30.90625 2.703125 27.703125 0.390625 23.09375 0.390625 
z
" id="CMR17-54"/>
      </defs>
      <g transform="translate(117.948095 242.437297)scale(0.22 -0.22)">
       <use transform="scale(0.996264)" xlink:href="#CMR17-54"/>
      </g>
     </g>
    </g>
    <g id="ytick_5">
     <g id="line2d_10">
      <g>
       <use style="stroke:#000000;stroke-width:0.8;" x="135" xlink:href="#mf3ab9956e1" y="171.722069"/>
      </g>
     </g>
     <g id="text_11">
      <!-- $8$ -->
      <defs>
       <path d="M 27.203125 35.765625 
C 33.5 38.96875 39.90625 43.796875 39.90625 51.53125 
C 39.90625 60.6875 31.09375 66 23 66 
C 13.90625 66 5.90625 59.375 5.90625 50.234375 
C 5.90625 47.71875 6.5 43.390625 10.40625 39.578125 
C 11.40625 38.578125 15.59375 35.5625 18.296875 33.65625 
C 13.796875 31.34375 3.296875 25.8125 3.296875 14.765625 
C 3.296875 4.40625 13.09375 -2 22.796875 -2 
C 33.5 -2 42.5 5.71875 42.5 15.96875 
C 42.5 25.109375 36.40625 29.328125 32.40625 32.046875 
z
M 14.09375 44.609375 
C 13.296875 45.109375 9.296875 48.21875 9.296875 52.9375 
C 9.296875 59.078125 15.59375 63.6875 22.796875 63.6875 
C 30.703125 63.6875 36.5 58.0625 36.5 51.53125 
C 36.5 42.1875 26.09375 36.859375 25.59375 36.859375 
C 25.5 36.859375 25.40625 36.859375 24.59375 37.46875 
z
M 32.5 24 
C 34 22.90625 38.796875 19.578125 38.796875 13.453125 
C 38.796875 6.015625 31.40625 0.390625 23 0.390625 
C 13.90625 0.390625 7 6.921875 7 14.859375 
C 7 22.796875 13.09375 29.4375 20 32.546875 
z
" id="CMR17-56"/>
      </defs>
      <g transform="translate(117.948095 179.332416)scale(0.22 -0.22)">
       <use transform="scale(0.996264)" xlink:href="#CMR17-56"/>
      </g>
     </g>
    </g>
    <g id="ytick_6">
     <g id="line2d_11">
      <g>
       <use style="stroke:#000000;stroke-width:0.8;" x="135" xlink:href="#mf3ab9956e1" y="108.617188"/>
      </g>
     </g>
     <g id="text_12">
      <!-- $10$ -->
      <g transform="translate(107.89619 116.227535)scale(0.22 -0.22)">
       <use transform="scale(0.996264)" xlink:href="#CMR17-49"/>
       <use transform="translate(45.690477 0)scale(0.996264)" xlink:href="#CMR17-48"/>
      </g>
     </g>
    </g>
    <g id="text_13">
     <!-- Loss -->
     <defs>
      <path d="M 26.09375 6.5 
C 24.90625 6.5 23.703125 6.390625 22.5 6.390625 
L 17.203125 6.390625 
L 17.203125 69 
L 8.796875 69 
L 8.796875 0 
L 46.90625 0 
L 46.90625 6.5 
z
" id="CMSS17-76"/>
      <path d="M 32.203125 40.984375 
C 26.296875 43.796875 21.703125 44 18.703125 44 
C 11.59375 44 3.09375 41.484375 3.09375 31.390625 
C 3.09375 21.296875 14.09375 19.09375 17.09375 18.484375 
C 21.703125 17.59375 26.796875 16.59375 26.796875 11.59375 
C 26.796875 5.296875 19.59375 5.296875 18.296875 5.296875 
C 14.296875 5.296875 8.796875 6.390625 3.796875 9.984375 
L 2.59375 3.296875 
C 8.296875 0 13.796875 -1 18.40625 -1 
C 30.703125 -1 33.796875 6.5 33.796875 12.1875 
C 33.796875 17.09375 31 20.390625 29.09375 21.890625 
C 25.796875 24.484375 24.59375 24.796875 16.40625 26.484375 
C 15 26.6875 10.09375 27.796875 10.09375 32.296875 
C 10.09375 37.984375 16.40625 37.984375 17.796875 37.984375 
C 24.296875 37.984375 28.296875 35.984375 31 34.484375 
z
" id="CMSS17-115"/>
     </defs>
     <g transform="translate(100.796714 264.840664)rotate(-90)scale(0.16 -0.16)">
      <use transform="scale(0.996264)" xlink:href="#CMSS17-76"/>
      <use transform="translate(50.687105 0)scale(0.996264)" xlink:href="#CMSS17-111"/>
      <use transform="translate(97.530729 0)scale(0.996264)" xlink:href="#CMSS17-115"/>
      <use transform="translate(133.444271 0)scale(0.996264)" xlink:href="#CMSS17-115"/>
     </g>
    </g>
   </g>
   <g id="line2d_12">
    <path clip-path="url(#p639e6a2dc8)" d="M 152.293388 402.490332 
L 154.031417 183.397823 
L 155.769446 128.829688 
L 157.507475 278.771485 
L 159.245504 306.647633 
L 160.983533 201.601043 
L 162.721562 260.718809 
L 164.459591 221.167825 
L 166.19762 295.187781 
L 167.935649 262.288975 
L 169.673678 280.076942 
L 171.411707 254.567417 
L 173.149736 317.960372 
L 174.887765 263.974824 
L 176.625794 214.314536 
L 178.363823 315.451849 
L 180.101852 160.806529 
L 181.839881 287.121579 
L 183.57791 264.898836 
L 185.315939 347.658854 
L 187.053968 125.002024 
L 188.791997 348.472237 
L 190.530026 344.69347 
L 192.268055 300.884201 
L 194.006084 232.333661 
L 195.744113 343.274601 
L 197.482142 341.590745 
L 199.220171 287.696733 
L 200.9582 241.952922 
L 202.696229 249.310698 
L 204.434258 228.133669 
L 206.172287 318.622376 
L 207.910316 206.989138 
L 209.648345 296.490936 
L 211.386374 355.320147 
L 213.124403 267.289306 
L 214.862432 343.097502 
L 216.600461 277.238091 
L 218.33849 307.733037 
L 220.076519 305.507329 
L 221.814548 275.076792 
L 223.552577 256.678584 
L 225.290606 368.294772 
L 227.028635 364.301199 
L 228.766664 77.776364 
L 230.504693 334.857022 
L 232.242722 327.628975 
L 233.980751 275.664735 
L 235.71878 266.21821 
L 237.456809 213.641271 
L 239.194838 234.080775 
L 240.932867 198.139598 
L 244.408925 281.892468 
L 246.146954 259.654424 
L 247.884983 283.348244 
L 249.623012 274.264161 
L 251.361041 313.588073 
L 253.09907 294.105206 
L 254.837099 343.930015 
L 256.575128 231.129489 
L 258.313157 303.383494 
L 260.051186 333.192552 
L 261.789215 253.181407 
L 263.527244 212.743498 
L 265.265273 339.970433 
L 267.003302 228.823891 
L 268.741331 283.069754 
L 270.47936 297.609876 
L 272.217389 274.957151 
L 273.955418 196.589458 
L 275.693447 344.075226 
L 277.431476 319.549427 
L 279.169505 378.920964 
L 280.907534 270.88819 
L 282.645563 79.041048 
L 284.383592 319.56791 
L 286.12162 274.672719 
L 287.859649 308.613267 
L 289.597678 311.407359 
L 291.335707 301.691671 
L 293.073736 261.752457 
L 294.811765 371.781681 
L 296.549794 307.196263 
L 298.287823 347.206567 
L 300.025852 360.755244 
L 301.763881 298.690345 
L 303.50191 313.719223 
L 305.239939 238.466307 
L 306.977968 352.402917 
L 308.715997 299.857587 
L 310.454026 252.029608 
L 312.192055 263.154234 
L 313.930084 299.735276 
L 315.668113 268.690843 
L 317.406142 302.324074 
L 319.144171 331.024724 
L 320.8822 384.357231 
L 322.620229 336.538734 
L 324.358258 366.206809 
L 326.096287 280.057459 
L 327.834316 246.571597 
L 329.572345 383.905572 
L 331.310374 286.559589 
L 333.048403 345.875826 
L 334.786432 307.367006 
L 336.524461 230.863893 
L 338.26249 376.391911 
L 340.000519 344.554052 
L 341.738548 343.816174 
L 343.476577 341.960839 
L 345.214606 297.820255 
L 346.952635 182.687862 
L 348.690664 400.235026 
L 350.428693 309.338499 
L 352.166722 341.428752 
L 353.904751 353.506969 
L 355.64278 306.927951 
L 357.380809 335.499256 
L 359.118838 355.204396 
L 360.856867 341.773862 
L 362.594896 346.3437 
L 364.332925 376.793345 
L 366.070954 353.868208 
L 367.808983 376.898124 
L 369.547012 348.338341 
L 371.285041 327.379695 
L 373.02307 323.809766 
L 374.761099 373.051635 
L 376.499128 307.558676 
L 378.237157 365.122278 
L 379.975186 363.593837 
L 381.713215 379.12065 
L 383.451244 386.11397 
L 385.189273 390.737614 
L 386.927302 393.92524 
L 388.665331 396.119044 
L 390.40336 397.836663 
L 392.141389 399.024847 
L 393.879418 399.889772 
L 395.617447 400.521259 
L 397.355476 400.983413 
L 400.831534 401.571441 
L 402.569563 400.059604 
L 404.307592 397.087829 
L 406.045621 398.615431 
L 407.78365 399.635159 
L 409.521679 382.15247 
L 411.259708 390.516826 
L 412.997737 401.749524 
L 416.473795 401.99721 
L 419.949853 402.123042 
L 421.687882 402.095801 
L 425.16394 273.480237 
L 428.639998 341.923098 
L 430.378026 341.779595 
L 432.116055 350.242875 
L 433.854084 245.779157 
L 435.592113 243.643752 
L 437.330142 293.922224 
L 439.068171 361.717155 
L 440.8062 390.604146 
L 442.544229 248.081731 
L 444.282258 367.607067 
L 446.020287 393.699514 
L 447.758316 371.494393 
L 449.496345 386.200782 
L 451.234374 395.987677 
L 452.972403 391.474201 
L 454.710432 391.116934 
L 456.448461 383.460989 
L 458.18649 392.852892 
L 459.924519 394.680448 
L 461.662548 396.935829 
L 463.400577 398.440961 
L 465.138606 399.490955 
L 466.876635 400.240247 
L 468.614664 400.781777 
L 472.090722 401.46735 
L 475.56678 401.833276 
L 480.780867 402.094283 
L 489.471012 402.231692 
L 498.161157 402.262065 
L 498.161157 402.262065 
" style="fill:none;stroke:#1f77b4;stroke-linecap:square;stroke-width:1.5;"/>
   </g>
   <g id="line2d_13">
    <path clip-path="url(#p639e6a2dc8)" d="M 152.293388 390.21461 
L 154.031417 423.438261 
L 155.769446 412.976922 
L 157.507475 423.321904 
L 159.245504 422.35735 
L 160.983533 422.150178 
L 162.721562 423.471348 
L 164.459591 423.625543 
L 166.19762 421.311763 
L 167.935649 423.290802 
L 169.673678 379.374996 
L 171.411707 423.594577 
L 173.149736 418.459836 
L 174.887765 421.465229 
L 176.625794 420.294302 
L 178.363823 415.685853 
L 180.101852 423.703636 
L 181.839881 420.768099 
L 183.57791 417.153203 
L 185.315939 413.821823 
L 187.053968 423.216405 
L 188.791997 414.801155 
L 190.530026 414.836684 
L 192.268055 410.619256 
L 194.006084 423.039145 
L 195.744113 416.444208 
L 197.482142 414.418603 
L 199.220171 410.20418 
L 200.9582 422.089177 
L 202.696229 421.07048 
L 204.434258 422.497092 
L 206.172287 418.361045 
L 207.910316 420.63842 
L 209.648345 422.117298 
L 211.386374 418.825073 
L 213.124403 422.004382 
L 214.862432 416.913399 
L 216.600461 420.586493 
L 218.33849 419.272554 
L 220.076519 416.789825 
L 221.814548 422.234224 
L 223.552577 422.426878 
L 225.290606 413.186362 
L 227.028635 409.020565 
L 228.766664 423.357475 
L 230.504693 417.450282 
L 232.242722 416.997656 
L 233.980751 420.559691 
L 235.71878 418.974659 
L 237.456809 423.082481 
L 239.194838 420.151997 
L 240.932867 422.396047 
L 242.670896 423.338986 
L 244.408925 420.994498 
L 246.146954 420.589086 
L 247.884983 417.814303 
L 249.623012 417.675937 
L 251.361041 408.945834 
L 253.09907 419.309209 
L 254.837099 411.416214 
L 256.575128 418.614058 
L 258.313157 417.497665 
L 260.051186 418.53354 
L 263.527244 422.239188 
L 265.265273 409.386686 
L 267.003302 419.926644 
L 268.741331 420.524319 
L 270.47936 419.266007 
L 272.217389 415.204884 
L 273.955418 414.136603 
L 275.693447 416.936456 
L 277.431476 418.854278 
L 279.169505 400.604915 
L 280.907534 420.466778 
L 282.645563 413.126956 
L 284.383592 419.760031 
L 286.12162 420.800502 
L 287.859649 419.660176 
L 291.335707 418.598535 
L 293.073736 414.567137 
L 294.811765 412.81404 
L 296.549794 421.015635 
L 298.287823 412.402163 
L 300.025852 412.867112 
L 301.763881 419.234436 
L 303.50191 420.821273 
L 305.239939 422.84783 
L 306.977968 411.975569 
L 308.715997 418.531081 
L 310.454026 422.128929 
L 312.192055 418.20625 
L 313.930084 421.694359 
L 315.668113 419.441727 
L 317.406142 422.382246 
L 319.144171 418.555825 
L 320.8822 413.140653 
L 322.620229 417.450708 
L 324.358258 418.999118 
L 326.096287 416.529789 
L 327.834316 421.001751 
L 329.572345 412.526354 
L 331.310374 418.935902 
L 333.048403 421.103356 
L 334.786432 419.241398 
L 336.524461 418.668252 
L 338.26249 408.104965 
L 340.000519 417.88766 
L 341.738548 415.307926 
L 343.476577 417.724334 
L 345.214606 419.061384 
L 346.952635 412.266204 
L 348.690664 411.187808 
L 350.428693 419.491376 
L 352.166722 417.303252 
L 353.904751 418.605669 
L 355.64278 419.21501 
L 357.380809 416.837976 
L 359.118838 410.879114 
L 360.856867 417.643287 
L 362.594896 421.264154 
L 366.070954 418.51943 
L 367.808983 411.263433 
L 369.547012 409.844908 
L 371.285041 416.747425 
L 373.02307 416.309028 
L 374.761099 420.622815 
L 376.499128 416.943107 
L 378.237157 421.017183 
L 379.975186 400.149879 
L 381.713215 397.287332 
L 383.451244 399.52064 
L 385.189273 400.71332 
L 386.927302 401.391658 
L 388.665331 401.786968 
L 392.141389 402.118218 
L 397.355476 402.245115 
L 400.831534 402.26293 
L 402.569563 414.21399 
L 404.307592 401.902437 
L 407.78365 402.16875 
L 409.521679 405.897835 
L 411.259708 405.379567 
L 412.997737 402.266263 
L 421.687882 402.281577 
L 423.425911 414.91104 
L 425.16394 418.677777 
L 426.901969 419.983641 
L 428.639998 418.631139 
L 430.378026 419.62443 
L 432.116055 411.310119 
L 433.854084 421.676941 
L 435.592113 422.897398 
L 437.330142 410.071121 
L 439.068171 417.189224 
L 440.8062 409.53919 
L 442.544229 421.610049 
L 444.282258 414.295502 
L 446.020287 406.029482 
L 447.758316 412.251191 
L 449.496345 406.696184 
L 451.234374 415.740615 
L 452.972403 403.724784 
L 454.710432 406.187746 
L 456.448461 410.733716 
L 458.18649 412.967845 
L 459.924519 401.529269 
L 461.662548 401.882318 
L 465.138606 402.15725 
L 472.090722 402.260506 
L 498.161157 402.270694 
L 498.161157 402.270694 
" style="fill:none;stroke:#ff7f0e;stroke-linecap:square;stroke-width:1.5;"/>
   </g>
   <g id="patch_3">
    <path d="M 135 441 
L 135 60.48 
" style="fill:none;stroke:#000000;stroke-linecap:square;stroke-linejoin:miter;stroke-width:0.8;"/>
   </g>
   <g id="patch_4">
    <path d="M 515.454545 441 
L 515.454545 60.48 
" style="fill:none;stroke:#000000;stroke-linecap:square;stroke-linejoin:miter;stroke-width:0.8;"/>
   </g>
   <g id="patch_5">
    <path d="M 135 441 
L 515.454545 441 
" style="fill:none;stroke:#000000;stroke-linecap:square;stroke-linejoin:miter;stroke-width:0.8;"/>
   </g>
   <g id="patch_6">
    <path d="M 135 60.48 
L 515.454545 60.48 
" style="fill:none;stroke:#000000;stroke-linecap:square;stroke-linejoin:miter;stroke-width:0.8;"/>
   </g>
   <g id="legend_1">
    <g id="patch_7">
     <path d="M 315.059755 139.406376 
L 500.054545 139.406376 
Q 504.454545 139.406376 504.454545 135.006376 
L 504.454545 75.88 
Q 504.454545 71.48 500.054545 71.48 
L 315.059755 71.48 
Q 310.659755 71.48 310.659755 75.88 
L 310.659755 135.006376 
Q 310.659755 139.406376 315.059755 139.406376 
z
" style="fill:#ffffff;opacity:0.8;stroke:#cccccc;stroke-linejoin:miter;"/>
    </g>
    <g id="line2d_14">
     <path d="M 319.459755 87.98 
L 363.459755 87.98 
" style="fill:none;stroke:#1f77b4;stroke-linecap:square;stroke-width:1.5;"/>
    </g>
    <g id="line2d_15"/>
    <g id="text_14">
     <!-- Generator -->
     <defs>
      <path d="M 56.40625 29.1875 
L 36.5 29.1875 
L 36.5 23 
L 48.796875 23 
L 48.796875 7.390625 
C 44.90625 6.296875 40.90625 5.5 36.90625 5.5 
C 22.90625 5.5 14.59375 20.484375 14.59375 34.6875 
C 14.59375 48.796875 23.296875 63.59375 36.90625 63.59375 
C 44.59375 63.59375 48.90625 61.1875 54.203125 57.1875 
L 55.5 65.1875 
C 48.90625 68.59375 44.796875 70 37.296875 70 
C 17.90625 70 6.203125 52.390625 6.203125 34.390625 
C 6.203125 17.1875 18 -1 36.703125 -1 
C 43.703125 -1 50.203125 0.796875 56.40625 3.890625 
z
" id="CMSS17-71"/>
     </defs>
     <g transform="translate(381.059755 95.68)scale(0.22 -0.22)">
      <use transform="scale(0.996264)" xlink:href="#CMSS17-71"/>
      <use transform="translate(62.458226 0)scale(0.996264)" xlink:href="#CMSS17-101"/>
      <use transform="translate(104.097048 0)scale(0.996264)" xlink:href="#CMSS17-110"/>
      <use transform="translate(152.301991 0)scale(0.996264)" xlink:href="#CMSS17-101"/>
      <use transform="translate(193.940813 0)scale(0.996264)" xlink:href="#CMSS17-114"/>
      <use transform="translate(225.850585 0)scale(0.996264)" xlink:href="#CMSS17-97"/>
      <use transform="translate(270.772506 0)scale(0.996264)" xlink:href="#CMSS17-116"/>
      <use transform="translate(304.604073 0)scale(0.996264)" xlink:href="#CMSS17-111"/>
      <use transform="translate(348.845242 0)scale(0.996264)" xlink:href="#CMSS17-114"/>
     </g>
    </g>
    <g id="line2d_16">
     <path d="M 319.459755 118.643188 
L 363.459755 118.643188 
" style="fill:none;stroke:#ff7f0e;stroke-linecap:square;stroke-width:1.5;"/>
    </g>
    <g id="line2d_17"/>
    <g id="text_15">
     <!-- Discriminator -->
     <defs>
      <path d="M 8.90625 69 
L 8.90625 0 
L 33.5 0 
C 49.90625 0 62.5 15.328125 62.5 33.890625 
C 62.5 53.0625 49.90625 69 33.5 69 
z
M 17.09375 5.59375 
L 17.09375 63.390625 
L 31.296875 63.390625 
C 44.703125 63.390625 54.296875 51.171875 54.296875 33.890625 
C 54.296875 17.3125 44.796875 5.59375 31.296875 5.59375 
z
" id="CMSS17-68"/>
      <path d="M 38.5 39.6875 
C 38.5 40.390625 33.90625 42.390625 32.703125 42.796875 
C 29.40625 44 25.203125 44 24.09375 44 
C 11.09375 44 3.296875 32.6875 3.296875 21.296875 
C 3.296875 9.296875 12 -1 23.703125 -1 
C 30.40625 -1 35.203125 1.1875 39.09375 3.796875 
L 38.5 10.390625 
C 34.203125 7.09375 29.203125 5.296875 23.796875 5.296875 
C 16 5.296875 10.90625 12.09375 10.90625 21.390625 
C 10.90625 28.59375 14.203125 37.6875 24.203125 37.6875 
C 29.703125 37.6875 32.796875 36.59375 37.40625 33.484375 
z
" id="CMSS17-99"/>
      <path d="M 67 29.34375 
C 67 36.078125 65.296875 44 54.09375 44 
C 46.59375 44 42.09375 39.296875 40.09375 36.375 
C 38.296875 41.6875 34.09375 44 28.09375 44 
C 21.296875 44 17 40.09375 14.703125 37.28125 
L 14.703125 43.484375 
L 7.40625 43.484375 
L 7.40625 0 
L 15 0 
L 15 24.3125 
C 15 30.25 17.203125 37.890625 24.296875 37.890625 
C 33.40625 37.890625 33.40625 31.453125 33.40625 28.53125 
L 33.40625 0 
L 41 0 
L 41 24.3125 
C 41 30.25 43.203125 37.890625 50.296875 37.890625 
C 59.40625 37.890625 59.40625 31.453125 59.40625 28.53125 
L 59.40625 0 
L 67 0 
z
" id="CMSS17-109"/>
     </defs>
     <g transform="translate(381.059755 126.343188)scale(0.22 -0.22)">
      <use transform="scale(0.996264)" xlink:href="#CMSS17-68"/>
      <use transform="translate(67.542842 0)scale(0.996264)" xlink:href="#CMSS17-105"/>
      <use transform="translate(89.723565 0)scale(0.996264)" xlink:href="#CMSS17-115"/>
      <use transform="translate(125.637107 0)scale(0.996264)" xlink:href="#CMSS17-99"/>
      <use transform="translate(167.275929 0)scale(0.996264)" xlink:href="#CMSS17-114"/>
      <use transform="translate(199.185701 0)scale(0.996264)" xlink:href="#CMSS17-105"/>
      <use transform="translate(221.366424 0)scale(0.996264)" xlink:href="#CMSS17-109"/>
      <use transform="translate(295.595679 0)scale(0.996264)" xlink:href="#CMSS17-105"/>
      <use transform="translate(317.776402 0)scale(0.996264)" xlink:href="#CMSS17-110"/>
      <use transform="translate(365.981345 0)scale(0.996264)" xlink:href="#CMSS17-97"/>
      <use transform="translate(410.903266 0)scale(0.996264)" xlink:href="#CMSS17-116"/>
      <use transform="translate(444.734832 0)scale(0.996264)" xlink:href="#CMSS17-111"/>
      <use transform="translate(488.976002 0)scale(0.996264)" xlink:href="#CMSS17-114"/>
     </g>
    </g>
   </g>
  </g>
  <g id="axes_2">
   <g id="patch_8">
    <path d="M 591.545455 441 
L 972 441 
L 972 60.48 
L 591.545455 60.48 
z
" style="fill:#ffffff;"/>
   </g>
   <g id="matplotlib.axis_3">
    <g id="xtick_6">
     <g id="line2d_18">
      <g>
       <use style="stroke:#000000;stroke-width:0.8;" x="608.838843" xlink:href="#m1061deb3c5" y="441"/>
      </g>
     </g>
     <g id="text_16">
      <!-- $0$ -->
      <g transform="translate(605.424599 457.685876)scale(0.14 -0.14)">
       <use transform="scale(0.996264)" xlink:href="#CMR17-48"/>
      </g>
     </g>
    </g>
    <g id="xtick_7">
     <g id="line2d_19">
      <g>
       <use style="stroke:#000000;stroke-width:0.8;" x="695.740292" xlink:href="#m1061deb3c5" y="441"/>
      </g>
     </g>
     <g id="text_17">
      <!-- $50$ -->
      <g transform="translate(688.911804 457.685876)scale(0.14 -0.14)">
       <use transform="scale(0.996264)" xlink:href="#CMR17-53"/>
       <use transform="translate(45.690477 0)scale(0.996264)" xlink:href="#CMR17-48"/>
      </g>
     </g>
    </g>
    <g id="xtick_8">
     <g id="line2d_20">
      <g>
       <use style="stroke:#000000;stroke-width:0.8;" x="782.641742" xlink:href="#m1061deb3c5" y="441"/>
      </g>
     </g>
     <g id="text_18">
      <!-- $100$ -->
      <g transform="translate(772.399009 457.685876)scale(0.14 -0.14)">
       <use transform="scale(0.996264)" xlink:href="#CMR17-49"/>
       <use transform="translate(45.690477 0)scale(0.996264)" xlink:href="#CMR17-48"/>
       <use transform="translate(91.380954 0)scale(0.996264)" xlink:href="#CMR17-48"/>
      </g>
     </g>
    </g>
    <g id="xtick_9">
     <g id="line2d_21">
      <g>
       <use style="stroke:#000000;stroke-width:0.8;" x="869.543191" xlink:href="#m1061deb3c5" y="441"/>
      </g>
     </g>
     <g id="text_19">
      <!-- $150$ -->
      <g transform="translate(859.300458 457.685876)scale(0.14 -0.14)">
       <use transform="scale(0.996264)" xlink:href="#CMR17-49"/>
       <use transform="translate(45.690477 0)scale(0.996264)" xlink:href="#CMR17-53"/>
       <use transform="translate(91.380954 0)scale(0.996264)" xlink:href="#CMR17-48"/>
      </g>
     </g>
    </g>
    <g id="xtick_10">
     <g id="line2d_22">
      <g>
       <use style="stroke:#000000;stroke-width:0.8;" x="956.444641" xlink:href="#m1061deb3c5" y="441"/>
      </g>
     </g>
     <g id="text_20">
      <!-- $200$ -->
      <g transform="translate(946.201908 457.685876)scale(0.14 -0.14)">
       <use transform="scale(0.996264)" xlink:href="#CMR17-50"/>
       <use transform="translate(45.690477 0)scale(0.996264)" xlink:href="#CMR17-48"/>
       <use transform="translate(91.380954 0)scale(0.996264)" xlink:href="#CMR17-48"/>
      </g>
     </g>
    </g>
    <g id="text_21">
     <!-- Iteration -->
     <g transform="translate(754.41728 475.467493)scale(0.16 -0.16)">
      <use transform="scale(0.996264)" xlink:href="#CMSS17-73"/>
      <use transform="translate(25.783926 0)scale(0.996264)" xlink:href="#CMSS17-116"/>
      <use transform="translate(59.615492 0)scale(0.996264)" xlink:href="#CMSS17-101"/>
      <use transform="translate(101.254314 0)scale(0.996264)" xlink:href="#CMSS17-114"/>
      <use transform="translate(133.164087 0)scale(0.996264)" xlink:href="#CMSS17-97"/>
      <use transform="translate(178.086007 0)scale(0.996264)" xlink:href="#CMSS17-116"/>
      <use transform="translate(211.917574 0)scale(0.996264)" xlink:href="#CMSS17-105"/>
      <use transform="translate(234.098297 0)scale(0.996264)" xlink:href="#CMSS17-111"/>
      <use transform="translate(280.941921 0)scale(0.996264)" xlink:href="#CMSS17-110"/>
     </g>
    </g>
   </g>
   <g id="matplotlib.axis_4">
    <g id="ytick_7">
     <g id="line2d_23">
      <g>
       <use style="stroke:#000000;stroke-width:0.8;" x="591.545455" xlink:href="#mf3ab9956e1" y="429.368947"/>
      </g>
     </g>
     <g id="text_22">
      <!-- $0.2$ -->
      <defs>
       <path d="M 18.40625 4.796875 
C 18.40625 7.6875 16 9.6875 13.59375 9.6875 
C 10.703125 9.6875 8.703125 7.296875 8.703125 4.890625 
C 8.703125 2 11.09375 0 13.5 0 
C 16.40625 0 18.40625 2.390625 18.40625 4.796875 
z
" id="CMMI12-58"/>
      </defs>
      <g transform="translate(558.480266 436.979293)scale(0.22 -0.22)">
       <use transform="scale(0.996264)" xlink:href="#CMR17-48"/>
       <use transform="translate(45.690477 0)scale(0.996264)" xlink:href="#CMMI12-58"/>
       <use transform="translate(72.787654 0)scale(0.996264)" xlink:href="#CMR17-50"/>
      </g>
     </g>
    </g>
    <g id="ytick_8">
     <g id="line2d_24">
      <g>
       <use style="stroke:#000000;stroke-width:0.8;" x="591.545455" xlink:href="#mf3ab9956e1" y="341.470801"/>
      </g>
     </g>
     <g id="text_23">
      <!-- $0.4$ -->
      <g transform="translate(558.480266 349.081148)scale(0.22 -0.22)">
       <use transform="scale(0.996264)" xlink:href="#CMR17-48"/>
       <use transform="translate(45.690477 0)scale(0.996264)" xlink:href="#CMMI12-58"/>
       <use transform="translate(72.787654 0)scale(0.996264)" xlink:href="#CMR17-52"/>
      </g>
     </g>
    </g>
    <g id="ytick_9">
     <g id="line2d_25">
      <g>
       <use style="stroke:#000000;stroke-width:0.8;" x="591.545455" xlink:href="#mf3ab9956e1" y="253.572655"/>
      </g>
     </g>
     <g id="text_24">
      <!-- $0.6$ -->
      <g transform="translate(558.480266 261.183002)scale(0.22 -0.22)">
       <use transform="scale(0.996264)" xlink:href="#CMR17-48"/>
       <use transform="translate(45.690477 0)scale(0.996264)" xlink:href="#CMMI12-58"/>
       <use transform="translate(72.787654 0)scale(0.996264)" xlink:href="#CMR17-54"/>
      </g>
     </g>
    </g>
    <g id="ytick_10">
     <g id="line2d_26">
      <g>
       <use style="stroke:#000000;stroke-width:0.8;" x="591.545455" xlink:href="#mf3ab9956e1" y="165.674509"/>
      </g>
     </g>
     <g id="text_25">
      <!-- $0.8$ -->
      <g transform="translate(558.480266 173.284856)scale(0.22 -0.22)">
       <use transform="scale(0.996264)" xlink:href="#CMR17-48"/>
       <use transform="translate(45.690477 0)scale(0.996264)" xlink:href="#CMMI12-58"/>
       <use transform="translate(72.787654 0)scale(0.996264)" xlink:href="#CMR17-56"/>
      </g>
     </g>
    </g>
    <g id="ytick_11">
     <g id="line2d_27">
      <g>
       <use style="stroke:#000000;stroke-width:0.8;" x="591.545455" xlink:href="#mf3ab9956e1" y="77.776364"/>
      </g>
     </g>
     <g id="text_26">
      <!-- $1.0$ -->
      <g transform="translate(558.480266 85.38671)scale(0.22 -0.22)">
       <use transform="scale(0.996264)" xlink:href="#CMR17-49"/>
       <use transform="translate(45.690477 0)scale(0.996264)" xlink:href="#CMMI12-58"/>
       <use transform="translate(72.787654 0)scale(0.996264)" xlink:href="#CMR17-48"/>
      </g>
     </g>
    </g>
    <g id="text_27">
     <!-- Accuracy -->
     <defs>
      <path d="M 35.5 69 
L 26.90625 69 
L 2.59375 0 
L 10.203125 0 
L 17.203125 20 
L 44 20 
L 51.09375 0 
L 59.796875 0 
z
M 42.09375 25.59375 
L 19.09375 25.59375 
C 23.90625 39.53125 29.90625 56.84375 30.59375 61.3125 
L 30.703125 61.3125 
C 31.40625 57.234375 33.40625 51.265625 35.09375 46.1875 
z
" id="CMSS17-65"/>
      <path d="M 40.90625 43 
L 33.296875 43 
L 33.296875 15.25 
C 33.296875 7.8125 27.90625 4.796875 22.203125 4.796875 
C 15.59375 4.796875 15 7 15 11.125 
L 15 43 
L 7.40625 43 
L 7.40625 10.625 
C 7.40625 2.796875 10.09375 -1 17 -1 
C 20.40625 -1 28.09375 -0.203125 33.5 4.796875 
L 33.5 -0.203125 
L 40.90625 -0.203125 
z
" id="CMSS17-117"/>
      <path d="M 41.796875 43 
L 34 43 
C 25.5 20.203125 22.59375 10.953125 22.40625 5.984375 
L 22.296875 5.984375 
C 22 10.859375 17.59375 22.796875 14.09375 31.34375 
L 9.40625 43 
L 1.296875 43 
L 19 0.21875 
C 17.90625 -2.765625 16.296875 -7.25 15.796875 -8.234375 
C 13.59375 -13.8125 12.09375 -13.8125 10.5 -13.8125 
C 10.09375 -13.8125 6.90625 -13.703125 3.296875 -12.609375 
L 3.90625 -19.203125 
C 6.40625 -19.703125 8.90625 -20 10.703125 -20 
C 13.203125 -20 18.203125 -20 22.796875 -7.734375 
z
" id="CMSS17-121"/>
     </defs>
     <g transform="translate(551.380789 280.263222)rotate(-90)scale(0.16 -0.16)">
      <use transform="scale(0.996264)" xlink:href="#CMSS17-65"/>
      <use transform="translate(62.217855 0)scale(0.996264)" xlink:href="#CMSS17-99"/>
      <use transform="translate(103.856677 0)scale(0.996264)" xlink:href="#CMSS17-99"/>
      <use transform="translate(145.495499 0)scale(0.996264)" xlink:href="#CMSS17-117"/>
      <use transform="translate(193.700442 0)scale(0.996264)" xlink:href="#CMSS17-114"/>
      <use transform="translate(225.610215 0)scale(0.996264)" xlink:href="#CMSS17-97"/>
      <use transform="translate(270.532135 0)scale(0.996264)" xlink:href="#CMSS17-99"/>
      <use transform="translate(312.170957 0)scale(0.996264)" xlink:href="#CMSS17-121"/>
     </g>
    </g>
   </g>
   <g id="line2d_28">
    <path clip-path="url(#p823279c8e0)" d="M 608.838843 423.703636 
L 610.576872 77.776364 
L 612.314901 149.021931 
L 614.05293 77.776364 
L 615.790959 77.776364 
L 617.528988 83.785026 
L 619.267017 78.634744 
L 621.005046 78.634744 
L 622.743075 84.643406 
L 624.481104 78.634744 
L 626.219133 297.521728 
L 627.957162 77.776364 
L 629.695191 103.527774 
L 631.43322 86.360167 
L 633.171249 106.961295 
L 634.909278 98.377492 
L 636.647307 77.776364 
L 638.385336 87.218547 
L 640.123365 115.545098 
L 641.861394 126.704042 
L 643.599423 82.926646 
L 647.075481 130.995944 
L 648.81351 150.738692 
L 650.551539 80.351505 
L 652.289568 125.845662 
L 654.027597 120.69538 
L 655.765626 177.348482 
L 657.503655 80.351505 
L 659.241684 90.652069 
L 660.979713 83.785026 
L 662.717742 104.386154 
L 664.455771 93.22721 
L 666.1938 82.926646 
L 667.931829 88.076928 
L 669.669858 84.643406 
L 671.407887 105.244534 
L 673.145916 93.22721 
L 674.883945 99.235872 
L 676.621974 122.412141 
L 678.360002 84.643406 
L 680.098031 81.209885 
L 681.83606 136.146226 
L 683.574089 145.58841 
L 685.312118 81.209885 
L 687.050147 107.819675 
L 688.788176 104.386154 
L 690.526205 94.08559 
L 692.264234 106.102915 
L 694.002263 77.776364 
L 695.740292 100.952633 
L 697.478321 83.785026 
L 699.21635 79.493124 
L 700.954379 92.368829 
L 702.692408 91.510449 
L 704.430437 113.828337 
L 706.168466 115.545098 
L 707.906495 186.790665 
L 709.644524 94.94397 
L 711.382553 149.021931 
L 713.120582 112.111577 
L 714.858611 113.828337 
L 716.59664 100.094252 
L 718.334669 92.368829 
L 720.072698 85.501787 
L 721.810727 174.773341 
L 723.548756 99.235872 
L 725.286785 90.652069 
L 727.024814 101.811013 
L 728.762843 129.279183 
L 730.500872 129.279183 
L 732.238901 95.802351 
L 733.97693 93.22721 
L 735.714959 191.082567 
L 737.452988 97.519111 
L 739.191017 137.004606 
L 740.929046 94.08559 
L 742.667075 93.22721 
L 744.405104 94.08559 
L 746.143133 95.802351 
L 747.881162 106.961295 
L 749.619191 126.704042 
L 751.35722 125.845662 
L 753.095249 89.793688 
L 754.833278 142.154888 
L 756.571307 147.30517 
L 758.309336 105.244534 
L 760.047365 88.935308 
L 761.785394 82.926646 
L 763.523423 151.597072 
L 765.261452 108.678055 
L 766.999481 87.218547 
L 768.73751 107.819675 
L 770.475539 85.501787 
L 772.213568 108.678055 
L 773.951597 83.785026 
L 775.689626 100.952633 
L 777.427655 122.412141 
L 779.165684 112.111577 
L 780.903713 88.935308 
L 782.641742 96.660731 
L 784.379771 93.22721 
L 786.1178 140.438128 
L 787.855829 103.527774 
L 789.593858 80.351505 
L 791.331887 98.377492 
L 793.069916 101.811013 
L 794.807945 183.357144 
L 796.545974 101.811013 
L 798.284003 126.704042 
L 800.022032 107.819675 
L 801.760061 102.669393 
L 803.49809 132.712705 
L 805.236119 160.180875 
L 806.974148 94.08559 
L 808.712177 109.536436 
L 810.450206 92.368829 
L 812.188235 105.244534 
L 815.664293 134.429465 
L 817.402322 111.253196 
L 819.140351 80.351505 
L 820.87838 78.634744 
L 822.616408 99.235872 
L 824.354437 149.021931 
L 826.092466 176.490102 
L 827.830495 127.562423 
L 829.568524 121.55376 
L 831.306553 77.776364 
L 833.044582 116.403478 
L 834.782611 78.634744 
L 836.52064 245.160528 
L 838.258669 297.521728 
L 857.376988 297.521728 
L 859.115017 77.776364 
L 860.853046 297.521728 
L 878.233336 297.521728 
L 879.971365 131.854324 
L 883.447423 96.660731 
L 885.185452 96.660731 
L 886.923481 120.69538 
L 888.66151 149.021931 
L 890.399539 91.510449 
L 892.137568 81.209885 
L 893.875597 151.597072 
L 895.613626 103.527774 
L 897.351655 221.125879 
L 899.089684 92.368829 
L 900.827713 138.721367 
L 902.565742 212.542075 
L 904.303771 148.163551 
L 906.0418 203.958272 
L 907.779829 78.634744 
L 909.517858 247.735669 
L 911.255887 221.984259 
L 912.993916 170.481439 
L 914.731945 108.678055 
L 916.469974 297.521728 
L 954.706612 297.521728 
L 954.706612 297.521728 
" style="fill:none;stroke:#ff8c00;stroke-linecap:square;stroke-width:1.5;"/>
   </g>
   <g id="patch_9">
    <path d="M 591.545455 441 
L 591.545455 60.48 
" style="fill:none;stroke:#000000;stroke-linecap:square;stroke-linejoin:miter;stroke-width:0.8;"/>
   </g>
   <g id="patch_10">
    <path d="M 972 441 
L 972 60.48 
" style="fill:none;stroke:#000000;stroke-linecap:square;stroke-linejoin:miter;stroke-width:0.8;"/>
   </g>
   <g id="patch_11">
    <path d="M 591.545455 441 
L 972 441 
" style="fill:none;stroke:#000000;stroke-linecap:square;stroke-linejoin:miter;stroke-width:0.8;"/>
   </g>
   <g id="patch_12">
    <path d="M 591.545455 60.48 
L 972 60.48 
" style="fill:none;stroke:#000000;stroke-linecap:square;stroke-linejoin:miter;stroke-width:0.8;"/>
   </g>
  </g>
 </g>
 <defs>
  <clipPath id="p639e6a2dc8">
   <rect height="380.52" width="380.454545" x="135" y="60.48"/>
  </clipPath>
  <clipPath id="p823279c8e0">
   <rect height="380.52" width="380.454545" x="591.545455" y="60.48"/>
  </clipPath>
 </defs>
</svg>
