<?xml version="1.0" encoding="utf-8" standalone="no"?>
<!DOCTYPE svg PUBLIC "-//W3C//DTD SVG 1.1//EN"
  "http://www.w3.org/Graphics/SVG/1.1/DTD/svg11.dtd">
<!-- Created with matplotlib (https://matplotlib.org/) -->
<svg height="720pt" version="1.1" viewBox="0 0 1152 720" width="1152pt" xmlns="http://www.w3.org/2000/svg" xmlns:xlink="http://www.w3.org/1999/xlink">
 <defs>
  <style type="text/css">
*{stroke-linecap:butt;stroke-linejoin:round;}
  </style>
 </defs>
 <g id="figure_1">
  <g id="patch_1">
   <path d="M 0 720 
L 1152 720 
L 1152 0 
L 0 0 
z
" style="fill:#ffffff;"/>
  </g>
  <g id="axes_1">
   <g id="patch_2">
    <path d="M 144 630 
L 1036.8 630 
L 1036.8 86.4 
L 144 86.4 
z
" style="fill:#ffffff;"/>
   </g>
   <g id="PatchCollection_1">
    <path clip-path="url(#pa990c0d0f7)" d="M 148.698947 248.505623 
L 190.049684 248.505623 
L 190.049684 172.867741 
L 148.698947 172.867741 
z
" style="fill:#ffa500;"/>
    <path clip-path="url(#pa990c0d0f7)" d="M 195.688421 318.123667 
L 261.473684 318.123667 
L 261.473684 253.291197 
L 195.688421 253.291197 
z
" style="fill:#ffa500;"/>
    <path clip-path="url(#pa990c0d0f7)" d="M 261.473684 470.762585 
L 331.957895 470.762585 
L 331.957895 405.930115 
L 261.473684 405.930115 
z
" style="fill:#ffa500;"/>
    <path clip-path="url(#pa990c0d0f7)" d="M 331.957895 558.658969 
L 425.936842 558.658969 
L 425.936842 515.437323 
L 331.957895 515.437323 
z
" style="fill:#ffa500;"/>
    <path clip-path="url(#pa990c0d0f7)" d="M 425.936842 602.315198 
L 519.915789 602.315198 
L 519.915789 559.093551 
L 425.936842 559.093551 
z
" style="fill:#ffa500;"/>
    <path clip-path="url(#pa990c0d0f7)" d="M 848.842105 504.679196 
L 1036.8 504.679196 
L 1036.8 477.665667 
L 848.842105 477.665667 
z
" style="fill:#ffa500;"/>
   </g>
   <g id="PatchCollection_2">
    <path clip-path="url(#pa990c0d0f7)" d="M 148.698947 199.856822 
L 190.049684 199.856822 
L 190.049684 124.218941 
L 148.698947 124.218941 
z
" style="fill:#0000ff;"/>
    <path clip-path="url(#pa990c0d0f7)" d="M 195.688421 305.308861 
L 261.473684 305.308861 
L 261.473684 240.476391 
L 195.688421 240.476391 
z
" style="fill:#0000ff;"/>
    <path clip-path="url(#pa990c0d0f7)" d="M 261.473684 474.184613 
L 331.957895 474.184613 
L 331.957895 409.352143 
L 261.473684 409.352143 
z
" style="fill:#0000ff;"/>
    <path clip-path="url(#pa990c0d0f7)" d="M 331.957895 564.717079 
L 425.936842 564.717079 
L 425.936842 521.495433 
L 331.957895 521.495433 
z
" style="fill:#0000ff;"/>
    <path clip-path="url(#pa990c0d0f7)" d="M 425.936842 608.389177 
L 519.915789 608.389177 
L 519.915789 565.16753 
L 425.936842 565.16753 
z
" style="fill:#0000ff;"/>
    <path clip-path="url(#pa990c0d0f7)" d="M 848.842105 521.088204 
L 1036.8 521.088204 
L 1036.8 494.074675 
L 848.842105 494.074675 
z
" style="fill:#0000ff;"/>
   </g>
   <g id="matplotlib.axis_1">
    <g id="xtick_1">
     <g id="line2d_1">
      <defs>
       <path d="M 0 0 
L 0 3.5 
" id="m042cfb30f8" style="stroke:#000000;stroke-width:0.8;"/>
      </defs>
      <g>
       <use style="stroke:#000000;stroke-width:0.8;" x="144" xlink:href="#m042cfb30f8" y="630"/>
      </g>
     </g>
     <g id="text_1">
      <!-- $0.0$ -->
      <defs>
       <path d="M 42 31.84375 
C 42 37.96875 41.90625 48.421875 37.703125 56.453125 
C 34 63.484375 28.09375 66 22.90625 66 
C 18.09375 66 12 63.78125 8.203125 56.5625 
C 4.203125 49.015625 3.796875 39.671875 3.796875 31.84375 
C 3.796875 26.109375 3.90625 17.375 7 9.734375 
C 11.296875 -0.609375 19 -2 22.90625 -2 
C 27.5 -2 34.5 -0.109375 38.59375 9.4375 
C 41.59375 16.375 42 24.5 42 31.84375 
z
M 22.90625 -0.40625 
C 16.5 -0.40625 12.703125 5.125 11.296875 12.75 
C 10.203125 18.6875 10.203125 27.328125 10.203125 32.953125 
C 10.203125 40.6875 10.203125 47.109375 11.5 53.234375 
C 13.40625 61.78125 19 64.390625 22.90625 64.390625 
C 27 64.390625 32.296875 61.671875 34.203125 53.4375 
C 35.5 47.71875 35.59375 40.984375 35.59375 32.953125 
C 35.59375 26.421875 35.59375 18.375 34.40625 12.453125 
C 32.296875 1.5 26.40625 -0.40625 22.90625 -0.40625 
z
" id="CMR17-48"/>
       <path d="M 18.40625 4.796875 
C 18.40625 7.6875 16 9.6875 13.59375 9.6875 
C 10.703125 9.6875 8.703125 7.296875 8.703125 4.890625 
C 8.703125 2 11.09375 0 13.5 0 
C 16.40625 0 18.40625 2.390625 18.40625 4.796875 
z
" id="CMMI12-58"/>
      </defs>
      <g transform="translate(130.967406 652.220693)scale(0.22 -0.22)">
       <use transform="scale(0.996264)" xlink:href="#CMR17-48"/>
       <use transform="translate(45.690477 0)scale(0.996264)" xlink:href="#CMMI12-58"/>
       <use transform="translate(72.787654 0)scale(0.996264)" xlink:href="#CMR17-48"/>
      </g>
     </g>
    </g>
    <g id="xtick_2">
     <g id="line2d_2">
      <g>
       <use style="stroke:#000000;stroke-width:0.8;" x="261.473684" xlink:href="#m042cfb30f8" y="630"/>
      </g>
     </g>
     <g id="text_2">
      <!-- $2.5$ -->
      <defs>
       <path d="M 41.703125 15.46875 
L 39.90625 15.46875 
C 38.90625 8.390625 38.09375 7.1875 37.703125 6.59375 
C 37.203125 5.796875 30 5.796875 28.59375 5.796875 
L 9.40625 5.796875 
C 13 9.6875 20 16.765625 28.5 24.9375 
C 34.59375 30.71875 41.703125 37.5 41.703125 47.390625 
C 41.703125 59.1875 32.296875 66 21.796875 66 
C 10.796875 66 4.09375 56.296875 4.09375 47.296875 
C 4.09375 43.390625 7 42.890625 8.203125 42.890625 
C 9.203125 42.890625 12.203125 43.484375 12.203125 46.984375 
C 12.203125 50.09375 9.59375 51 8.203125 51 
C 7.59375 51 7 50.890625 6.59375 50.6875 
C 8.5 59.1875 14.296875 63.390625 20.40625 63.390625 
C 29.09375 63.390625 34.796875 56.5 34.796875 47.390625 
C 34.796875 38.703125 29.703125 31.21875 24 24.734375 
L 4.09375 2.296875 
L 4.09375 0 
L 39.296875 0 
z
" id="CMR17-50"/>
       <path d="M 11.40625 58.59375 
C 12.40625 58.1875 16.5 56.890625 20.703125 56.890625 
C 30 56.890625 35.09375 61.890625 38 64.6875 
C 38 65.484375 38 66 37.40625 66 
C 37.296875 66 37.09375 66 36.296875 65.59375 
C 32.796875 64.09375 28.703125 63 23.703125 63 
C 20.703125 63 16.203125 63.359375 11.296875 65.484375 
C 10.203125 66 10 66 9.90625 66 
C 9.40625 66 9.296875 65.890625 9.296875 63.90625 
L 9.296875 34.859375 
C 9.296875 33.015625 9.296875 32.5 10.296875 32.5 
C 10.796875 32.5 11 32.703125 11.5 33.421875 
C 14.703125 38.046875 19.09375 40 24.09375 40 
C 27.59375 40 35.09375 37.734375 35.09375 20.203125 
C 35.09375 16.984375 35.09375 11.1875 32.09375 6.59375 
C 29.59375 2.484375 25.703125 0.390625 21.40625 0.390625 
C 14.796875 0.390625 8.09375 4.984375 6.296875 12.6875 
C 6.703125 12.59375 7.5 12.390625 7.90625 12.390625 
C 9.203125 12.390625 11.703125 13.09375 11.703125 16.1875 
C 11.703125 18.890625 9.796875 20 7.90625 20 
C 5.59375 20 4.09375 18.59375 4.09375 15.796875 
C 4.09375 7.09375 11 -2 21.59375 -2 
C 31.90625 -2 41.703125 6.890625 41.703125 19.796875 
C 41.703125 32.09375 33.90625 41.59375 24.203125 41.59375 
C 19.09375 41.59375 14.796875 39.6875 11.40625 36 
z
" id="CMR17-53"/>
      </defs>
      <g transform="translate(248.44109 652.220693)scale(0.22 -0.22)">
       <use transform="scale(0.996264)" xlink:href="#CMR17-50"/>
       <use transform="translate(45.690477 0)scale(0.996264)" xlink:href="#CMMI12-58"/>
       <use transform="translate(72.787654 0)scale(0.996264)" xlink:href="#CMR17-53"/>
      </g>
     </g>
    </g>
    <g id="xtick_3">
     <g id="line2d_3">
      <g>
       <use style="stroke:#000000;stroke-width:0.8;" x="378.947368" xlink:href="#m042cfb30f8" y="630"/>
      </g>
     </g>
     <g id="text_3">
      <!-- $5.0$ -->
      <g transform="translate(365.914774 652.220693)scale(0.22 -0.22)">
       <use transform="scale(0.996264)" xlink:href="#CMR17-53"/>
       <use transform="translate(45.690477 0)scale(0.996264)" xlink:href="#CMMI12-58"/>
       <use transform="translate(72.787654 0)scale(0.996264)" xlink:href="#CMR17-48"/>
      </g>
     </g>
    </g>
    <g id="xtick_4">
     <g id="line2d_4">
      <g>
       <use style="stroke:#000000;stroke-width:0.8;" x="496.421053" xlink:href="#m042cfb30f8" y="630"/>
      </g>
     </g>
     <g id="text_4">
      <!-- $7.5$ -->
      <defs>
       <path d="M 45.09375 61.796875 
L 45.09375 64 
L 21.59375 64 
C 9.90625 64 9.703125 65.09375 9.296875 67 
L 7.5 67 
L 4.59375 48.5 
L 6.40625 48.5 
C 6.703125 50.40625 7.40625 55.5 8.59375 57.390625 
C 9.203125 58.1875 16.59375 58.1875 18.296875 58.1875 
L 40.296875 58.1875 
L 29.203125 41.71875 
C 21.796875 30.640625 16.703125 15.671875 16.703125 2.59375 
C 16.703125 1.390625 16.703125 -2 20.296875 -2 
C 23.90625 -2 23.90625 1.390625 23.90625 2.6875 
L 23.90625 7.28125 
C 23.90625 23.65625 26.703125 34.4375 31.296875 41.3125 
z
" id="CMR17-55"/>
      </defs>
      <g transform="translate(483.388458 652.220693)scale(0.22 -0.22)">
       <use transform="scale(0.996264)" xlink:href="#CMR17-55"/>
       <use transform="translate(45.690477 0)scale(0.996264)" xlink:href="#CMMI12-58"/>
       <use transform="translate(72.787654 0)scale(0.996264)" xlink:href="#CMR17-53"/>
      </g>
     </g>
    </g>
    <g id="xtick_5">
     <g id="line2d_5">
      <g>
       <use style="stroke:#000000;stroke-width:0.8;" x="613.894737" xlink:href="#m042cfb30f8" y="630"/>
      </g>
     </g>
     <g id="text_5">
      <!-- $10.0$ -->
      <defs>
       <path d="M 26.59375 63.796875 
C 26.59375 65.890625 26.5 66 25.09375 66 
C 21.203125 61.359375 15.296875 59.890625 9.703125 59.6875 
C 9.40625 59.6875 8.90625 59.6875 8.796875 59.5 
C 8.703125 59.296875 8.703125 59.09375 8.703125 57 
C 11.796875 57 17 57.59375 21 59.984375 
L 21 7.296875 
C 21 3.796875 20.796875 2.59375 12.203125 2.59375 
L 9.203125 2.59375 
L 9.203125 0 
C 14 0.09375 19 0.1875 23.796875 0.1875 
C 28.59375 0.1875 33.59375 0.09375 38.40625 0 
L 38.40625 2.59375 
L 35.40625 2.59375 
C 26.796875 2.59375 26.59375 3.6875 26.59375 7.296875 
z
" id="CMR17-49"/>
      </defs>
      <g transform="translate(595.83619 652.220693)scale(0.22 -0.22)">
       <use transform="scale(0.996264)" xlink:href="#CMR17-49"/>
       <use transform="translate(45.690477 0)scale(0.996264)" xlink:href="#CMR17-48"/>
       <use transform="translate(91.380954 0)scale(0.996264)" xlink:href="#CMMI12-58"/>
       <use transform="translate(118.478131 0)scale(0.996264)" xlink:href="#CMR17-48"/>
      </g>
     </g>
    </g>
    <g id="xtick_6">
     <g id="line2d_6">
      <g>
       <use style="stroke:#000000;stroke-width:0.8;" x="731.368421" xlink:href="#m042cfb30f8" y="630"/>
      </g>
     </g>
     <g id="text_6">
      <!-- $12.5$ -->
      <g transform="translate(713.309874 652.220693)scale(0.22 -0.22)">
       <use transform="scale(0.996264)" xlink:href="#CMR17-49"/>
       <use transform="translate(45.690477 0)scale(0.996264)" xlink:href="#CMR17-50"/>
       <use transform="translate(91.380954 0)scale(0.996264)" xlink:href="#CMMI12-58"/>
       <use transform="translate(118.478131 0)scale(0.996264)" xlink:href="#CMR17-53"/>
      </g>
     </g>
    </g>
    <g id="xtick_7">
     <g id="line2d_7">
      <g>
       <use style="stroke:#000000;stroke-width:0.8;" x="848.842105" xlink:href="#m042cfb30f8" y="630"/>
      </g>
     </g>
     <g id="text_7">
      <!-- $15.0$ -->
      <g transform="translate(830.783558 652.220693)scale(0.22 -0.22)">
       <use transform="scale(0.996264)" xlink:href="#CMR17-49"/>
       <use transform="translate(45.690477 0)scale(0.996264)" xlink:href="#CMR17-53"/>
       <use transform="translate(91.380954 0)scale(0.996264)" xlink:href="#CMMI12-58"/>
       <use transform="translate(118.478131 0)scale(0.996264)" xlink:href="#CMR17-48"/>
      </g>
     </g>
    </g>
    <g id="xtick_8">
     <g id="line2d_8">
      <g>
       <use style="stroke:#000000;stroke-width:0.8;" x="966.315789" xlink:href="#m042cfb30f8" y="630"/>
      </g>
     </g>
     <g id="text_8">
      <!-- $17.5$ -->
      <g transform="translate(948.257243 652.220693)scale(0.22 -0.22)">
       <use transform="scale(0.996264)" xlink:href="#CMR17-49"/>
       <use transform="translate(45.690477 0)scale(0.996264)" xlink:href="#CMR17-55"/>
       <use transform="translate(91.380954 0)scale(0.996264)" xlink:href="#CMMI12-58"/>
       <use transform="translate(118.478131 0)scale(0.996264)" xlink:href="#CMR17-53"/>
      </g>
     </g>
    </g>
    <g id="text_9">
     <!-- \(\boldsymbol{q^2(GeV^2)}\) -->
     <defs>
      <path d="M 54.296875 43.1875 
C 54.296875 43.6875 53.90625 45 52.5 45 
C 52.40625 45 46.5 43.59375 43.40625 40.6875 
C 42 42.296875 38.59375 45 32.703125 45 
C 15.296875 45 4.5 29.1875 4.5 15.5 
C 4.5 3.1875 13.703125 -1 22 -1 
C 26.796875 -1 30.796875 0.890625 32.90625 2.1875 
L 29.09375 -12.484375 
C 28.703125 -13.921875 28.59375 -14.015625 27.90625 -14.109375 
C 26.796875 -14.3125 25.203125 -14.3125 24.09375 -14.3125 
C 22.40625 -14.3125 21.796875 -14.3125 21.296875 -14.90625 
C 20.796875 -15.5 20.5 -17.109375 20.5 -17.203125 
C 20.5 -17.8125 20.90625 -19 22.5 -19 
C 25.90625 -19 29.59375 -18.703125 33.09375 -18.703125 
C 36.796875 -18.703125 40.59375 -19 44.203125 -19 
C 44.90625 -19 46.796875 -19 46.796875 -16.109375 
C 46.796875 -14.40625 45.09375 -14.3125 44.203125 -14.3125 
C 42.796875 -14.3125 41.203125 -14.3125 39.90625 -14.21875 
z
M 35 10.5 
C 34.5 8.796875 34.5 8.59375 33.40625 7.59375 
C 30.203125 4.390625 26 2.59375 22.5 2.59375 
C 16.296875 2.59375 15.796875 8 15.796875 10.1875 
C 15.796875 15.390625 19.203125 27.6875 20.796875 31.59375 
C 23.90625 38.890625 28.796875 41.390625 32.90625 41.390625 
C 38.796875 41.390625 41.203125 36.6875 41.203125 35.59375 
C 41.203125 35.1875 41.09375 34.5 41 34.1875 
z
" id="CMMIB10-113"/>
      <path d="M 50.5 21.53125 
L 46.296875 21.53125 
C 46 19.421875 45.296875 13.5 43.796875 12.5 
C 43 11.796875 35.203125 11.796875 33.703125 11.796875 
L 18.203125 11.796875 
C 22 15 31.09375 22.625 32.59375 23.734375 
C 43.703125 32.0625 50.5 37.171875 50.5 46.796875 
C 50.5 58.734375 39.796875 66 26.59375 66 
C 15.296875 66 5.59375 59.46875 5.59375 49.796875 
C 5.59375 44.5 9.90625 43 12.203125 43 
C 15.296875 43 18.90625 45.09375 18.90625 49.6875 
C 18.90625 53.890625 15.796875 56 12.703125 56.40625 
C 16.703125 61.265625 22 61.6875 24.09375 61.6875 
C 33.296875 61.6875 37.703125 53.890625 37.703125 46.6875 
C 37.703125 38.875 32.40625 31.65625 28.296875 27.34375 
L 6.59375 4.59375 
C 5.59375 3.6875 5.59375 3.5 5.59375 1.6875 
L 5.59375 0 
L 47.59375 0 
z
" id="CMBX12-50"/>
      <path d="M 37.40625 -23.90625 
C 37.40625 -23.515625 37.40625 -23.3125 35.5 -21.5 
C 24.296875 -10.3125 20 7.296875 20 24.890625 
C 20 44.59375 24.90625 60.796875 36.09375 72.09375 
C 37.296875 73.296875 37.40625 73.390625 37.40625 73.796875 
C 37.40625 75 36.203125 75 35.703125 75 
C 34.796875 75 34.59375 75 32 72.890625 
C 17.59375 61.390625 10.796875 43 10.796875 25 
C 10.796875 6.59375 17.703125 -11.3125 31.90625 -22.90625 
C 34.5 -25.109375 34.703125 -25.109375 35.703125 -25.109375 
C 36.203125 -25.109375 37.40625 -25.109375 37.40625 -23.90625 
z
" id="CMBX12-40"/>
      <path d="M 73.5 20.421875 
C 73.90625 21.90625 74 22 74.703125 22.09375 
C 75.90625 22.296875 77.296875 22.296875 78.5 22.296875 
C 81 22.296875 82.59375 22.296875 82.59375 25.1875 
C 82.59375 25.6875 82.296875 27 80.5 27 
C 78.296875 27 76 26.796875 73.703125 26.796875 
C 71.5 26.796875 69.203125 26.6875 67 26.6875 
C 63 26.6875 53.203125 27 49.203125 27 
C 48 27 46.09375 27 46.09375 24.09375 
C 46.09375 22.296875 47.90625 22.296875 49.5 22.296875 
L 53.203125 22.296875 
C 54.296875 22.296875 59.796875 22.296875 59.796875 21.703125 
C 59.796875 21.609375 59.796875 21.40625 59.09375 19.046875 
C 59 18.359375 57.40625 12.046875 57.296875 11.953125 
C 55.59375 5.25 47.59375 2.6875 41.296875 2.6875 
C 35.5 2.6875 29.5 3.875 24.796875 7.625 
C 19.5 11.953125 19.5 18.75 19.5 20.921875 
C 19.5 25.484375 21.59375 43.515625 31.296875 54.5 
C 37.09375 61.0625 46.703125 65.296875 56.90625 65.296875 
C 69.5 65.296875 74.203125 55.515625 74.203125 47.25 
C 74.203125 46.140625 73.90625 44.625 73.90625 43.625 
C 73.90625 42.109375 75.203125 42.109375 76.59375 42.109375 
C 78.796875 42.109375 78.90625 42.203125 79.40625 44.328125 
L 85.09375 66.984375 
C 85.203125 67.484375 85.40625 67.984375 85.40625 68.59375 
C 85.40625 70 84 70 82.90625 70 
L 73.59375 62.765625 
C 71.59375 64.78125 66.40625 70 55.296875 70 
C 23.296875 70 5.5 45.328125 5.5 24.6875 
C 5.5 6.625 19.59375 -2 38.203125 -2 
C 48.703125 -2 55.703125 1.5 58.90625 4.859375 
C 61.40625 2.296875 66.5 -0.3125 67.203125 -0.3125 
C 68.203125 -0.3125 68.40625 0.5 68.796875 2 
z
" id="CMMIB10-71"/>
      <path d="M 22.203125 21.390625 
C 28.90625 21.390625 35.40625 21.984375 39.59375 23.390625 
C 48.09375 26.3125 49.5 32.078125 49.5 35.3125 
C 49.5 41.1875 44 45 35.796875 45 
C 17.703125 45 4.90625 32.375 4.90625 16.84375 
C 4.90625 5.46875 12.59375 -1 25.796875 -1 
C 28.40625 -1 35.296875 -0.90625 41.296875 1.390625 
C 47.09375 3.6875 51.09375 7.734375 51.09375 8.921875 
C 51.09375 9.71875 49.5 11.5 48.59375 11.5 
C 48 11.5 47.796875 11.203125 47.09375 10.40625 
C 41.703125 4.765625 33.90625 2.59375 26.09375 2.59375 
C 18.90625 2.59375 16.296875 6.546875 16.296875 12.1875 
C 16.296875 14.0625 16.703125 17.328125 17.796875 21.390625 
z
M 18.703125 25 
C 20.5 32.375 22.90625 35.109375 24.59375 36.734375 
C 28.09375 40.28125 32.703125 41.390625 35.796875 41.390625 
C 39.40625 41.390625 43.5 39.765625 43.5 35.21875 
C 43.5 25 28.40625 25 18.703125 25 
z
" id="CMMIB10-101"/>
      <path d="M 75.90625 60.25 
C 77.40625 62.46875 78.59375 64.1875 85.5 64.296875 
C 86.703125 64.296875 88.5 64.296875 88.5 67.1875 
C 88.5 67.796875 88 69 86.703125 69 
C 83.796875 69 80.59375 68.6875 77.59375 68.6875 
C 74 68.6875 70.09375 69 66.59375 69 
C 65.796875 69 63.90625 69 63.90625 66.09375 
C 63.90625 64.296875 65.59375 64.296875 66.5 64.296875 
C 67 64.296875 69.90625 64.296875 72.09375 63.28125 
L 39.09375 14.75 
L 30.296875 62.0625 
C 30.203125 62.375 30.09375 63.1875 30.09375 63.484375 
C 30.09375 64.296875 35.5 64.296875 36.203125 64.296875 
C 38.40625 64.296875 40 64.296875 40 67.1875 
C 40 68.484375 39 69 37.796875 69 
C 35.296875 69 32.703125 68.796875 30.203125 68.796875 
C 27.796875 68.796875 25.296875 68.6875 22.90625 68.6875 
C 20.59375 68.6875 18.296875 68.796875 16 68.796875 
C 13.796875 68.796875 11.5 69 9.40625 69 
C 8.5 69 6.59375 69 6.59375 66.09375 
C 6.59375 64.296875 8.203125 64.296875 10.296875 64.296875 
C 11.59375 64.296875 12.796875 64.296875 14.203125 64.1875 
C 15.296875 64.09375 15.40625 63.984375 15.703125 62.265625 
L 27.09375 0.796875 
C 27.59375 -2 28.703125 -2 30.59375 -2 
C 33.40625 -2 33.90625 -1.3125 35.203125 0.59375 
z
" id="CMMIB10-86"/>
      <path d="M 32.796875 24.890625 
C 32.796875 43.296875 25.90625 61.203125 11.703125 72.796875 
C 9.09375 75 8.90625 75 7.90625 75 
C 7.40625 75 6.203125 75 6.203125 73.796875 
C 6.203125 73.390625 6.203125 73.1875 8.09375 71.390625 
C 19.296875 60.203125 23.59375 42.59375 23.59375 25 
C 23.59375 5.296875 18.703125 -10.90625 7.5 -22.203125 
C 6.296875 -23.40625 6.203125 -23.515625 6.203125 -23.90625 
C 6.203125 -25.109375 7.40625 -25.109375 7.90625 -25.109375 
C 8.796875 -25.109375 9 -25.109375 11.59375 -23 
C 26 -11.5 32.796875 6.890625 32.796875 24.890625 
z
" id="CMBX12-41"/>
     </defs>
     <g transform="translate(557.430572 671.837317)scale(0.14 -0.14)">
      <use transform="scale(0.996264)" xlink:href="#CMMIB10-113"/>
      <use transform="translate(57.700068 36.153639)scale(0.697382)" xlink:href="#CMBX12-50"/>
      <use transform="translate(97.425913 0)scale(0.996264)" xlink:href="#CMBX12-40"/>
      <use transform="translate(141.012463 0)scale(0.996264)" xlink:href="#CMMIB10-71"/>
      <use transform="translate(229.354383 0)scale(0.996264)" xlink:href="#CMMIB10-101"/>
      <use transform="translate(284.508441 0)scale(0.996264)" xlink:href="#CMMIB10-86"/>
      <use transform="translate(377.492697 36.153639)scale(0.697382)" xlink:href="#CMBX12-50"/>
      <use transform="translate(417.218542 0)scale(0.996264)" xlink:href="#CMBX12-41"/>
     </g>
    </g>
   </g>
   <g id="matplotlib.axis_2">
    <g id="ytick_1">
     <g id="line2d_9">
      <defs>
       <path d="M 0 0 
L -3.5 0 
" id="m2071205403" style="stroke:#000000;stroke-width:0.8;"/>
      </defs>
      <g>
       <use style="stroke:#000000;stroke-width:0.8;" x="144" xlink:href="#m2071205403" y="565.542343"/>
      </g>
     </g>
     <g id="text_10">
      <!-- $-0.75$ -->
      <defs>
       <path d="M 65.90625 23 
C 67.59375 23 69.40625 23 69.40625 25 
C 69.40625 27 67.59375 27 65.90625 27 
L 11.796875 27 
C 10.09375 27 8.296875 27 8.296875 25 
C 8.296875 23 10.09375 23 11.796875 23 
z
" id="CMSY10-0"/>
      </defs>
      <g transform="translate(83.835673 573.15269)scale(0.22 -0.22)">
       <use transform="scale(0.996264)" xlink:href="#CMSY10-0"/>
       <use transform="translate(77.487468 0)scale(0.996264)" xlink:href="#CMR17-48"/>
       <use transform="translate(123.177945 0)scale(0.996264)" xlink:href="#CMMI12-58"/>
       <use transform="translate(150.275122 0)scale(0.996264)" xlink:href="#CMR17-55"/>
       <use transform="translate(195.965599 0)scale(0.996264)" xlink:href="#CMR17-53"/>
      </g>
     </g>
    </g>
    <g id="ytick_2">
     <g id="line2d_10">
      <g>
       <use style="stroke:#000000;stroke-width:0.8;" x="144" xlink:href="#m2071205403" y="498.00852"/>
      </g>
     </g>
     <g id="text_11">
      <!-- $-0.50$ -->
      <g transform="translate(83.835673 505.618867)scale(0.22 -0.22)">
       <use transform="scale(0.996264)" xlink:href="#CMSY10-0"/>
       <use transform="translate(77.487468 0)scale(0.996264)" xlink:href="#CMR17-48"/>
       <use transform="translate(123.177945 0)scale(0.996264)" xlink:href="#CMMI12-58"/>
       <use transform="translate(150.275122 0)scale(0.996264)" xlink:href="#CMR17-53"/>
       <use transform="translate(195.965599 0)scale(0.996264)" xlink:href="#CMR17-48"/>
      </g>
     </g>
    </g>
    <g id="ytick_3">
     <g id="line2d_11">
      <g>
       <use style="stroke:#000000;stroke-width:0.8;" x="144" xlink:href="#m2071205403" y="430.474697"/>
      </g>
     </g>
     <g id="text_12">
      <!-- $-0.25$ -->
      <g transform="translate(83.835673 438.085044)scale(0.22 -0.22)">
       <use transform="scale(0.996264)" xlink:href="#CMSY10-0"/>
       <use transform="translate(77.487468 0)scale(0.996264)" xlink:href="#CMR17-48"/>
       <use transform="translate(123.177945 0)scale(0.996264)" xlink:href="#CMMI12-58"/>
       <use transform="translate(150.275122 0)scale(0.996264)" xlink:href="#CMR17-50"/>
       <use transform="translate(195.965599 0)scale(0.996264)" xlink:href="#CMR17-53"/>
      </g>
     </g>
    </g>
    <g id="ytick_4">
     <g id="line2d_12">
      <g>
       <use style="stroke:#000000;stroke-width:0.8;" x="144" xlink:href="#m2071205403" y="362.940874"/>
      </g>
     </g>
     <g id="text_13">
      <!-- $0.00$ -->
      <g transform="translate(100.882906 370.551221)scale(0.22 -0.22)">
       <use transform="scale(0.996264)" xlink:href="#CMR17-48"/>
       <use transform="translate(45.690477 0)scale(0.996264)" xlink:href="#CMMI12-58"/>
       <use transform="translate(72.787654 0)scale(0.996264)" xlink:href="#CMR17-48"/>
       <use transform="translate(118.478131 0)scale(0.996264)" xlink:href="#CMR17-48"/>
      </g>
     </g>
    </g>
    <g id="ytick_5">
     <g id="line2d_13">
      <g>
       <use style="stroke:#000000;stroke-width:0.8;" x="144" xlink:href="#m2071205403" y="295.407052"/>
      </g>
     </g>
     <g id="text_14">
      <!-- $0.25$ -->
      <g transform="translate(100.882906 303.017398)scale(0.22 -0.22)">
       <use transform="scale(0.996264)" xlink:href="#CMR17-48"/>
       <use transform="translate(45.690477 0)scale(0.996264)" xlink:href="#CMMI12-58"/>
       <use transform="translate(72.787654 0)scale(0.996264)" xlink:href="#CMR17-50"/>
       <use transform="translate(118.478131 0)scale(0.996264)" xlink:href="#CMR17-53"/>
      </g>
     </g>
    </g>
    <g id="ytick_6">
     <g id="line2d_14">
      <g>
       <use style="stroke:#000000;stroke-width:0.8;" x="144" xlink:href="#m2071205403" y="227.873229"/>
      </g>
     </g>
     <g id="text_15">
      <!-- $0.50$ -->
      <g transform="translate(100.882906 235.483575)scale(0.22 -0.22)">
       <use transform="scale(0.996264)" xlink:href="#CMR17-48"/>
       <use transform="translate(45.690477 0)scale(0.996264)" xlink:href="#CMMI12-58"/>
       <use transform="translate(72.787654 0)scale(0.996264)" xlink:href="#CMR17-53"/>
       <use transform="translate(118.478131 0)scale(0.996264)" xlink:href="#CMR17-48"/>
      </g>
     </g>
    </g>
    <g id="ytick_7">
     <g id="line2d_15">
      <g>
       <use style="stroke:#000000;stroke-width:0.8;" x="144" xlink:href="#m2071205403" y="160.339406"/>
      </g>
     </g>
     <g id="text_16">
      <!-- $0.75$ -->
      <g transform="translate(100.882906 167.949753)scale(0.22 -0.22)">
       <use transform="scale(0.996264)" xlink:href="#CMR17-48"/>
       <use transform="translate(45.690477 0)scale(0.996264)" xlink:href="#CMMI12-58"/>
       <use transform="translate(72.787654 0)scale(0.996264)" xlink:href="#CMR17-55"/>
       <use transform="translate(118.478131 0)scale(0.996264)" xlink:href="#CMR17-53"/>
      </g>
     </g>
    </g>
    <g id="ytick_8">
     <g id="line2d_16">
      <g>
       <use style="stroke:#000000;stroke-width:0.8;" x="144" xlink:href="#m2071205403" y="92.805583"/>
      </g>
     </g>
     <g id="text_17">
      <!-- $1.00$ -->
      <g transform="translate(100.882906 100.41593)scale(0.22 -0.22)">
       <use transform="scale(0.996264)" xlink:href="#CMR17-49"/>
       <use transform="translate(45.690477 0)scale(0.996264)" xlink:href="#CMMI12-58"/>
       <use transform="translate(72.787654 0)scale(0.996264)" xlink:href="#CMR17-48"/>
       <use transform="translate(118.478131 0)scale(0.996264)" xlink:href="#CMR17-48"/>
      </g>
     </g>
    </g>
    <g id="text_18">
     <!-- \(\langle \boldsymbol{{P_1}} \rangle\) -->
     <defs>
      <path d="M 32.796875 71.203125 
C 33.296875 72.296875 33.296875 72.5 33.296875 73 
C 33.296875 74.09375 32.40625 75 31.296875 75 
C 30.40625 75 29.703125 74.5 29 72.703125 
L 11.5 26.796875 
C 11.296875 26.203125 11 25.59375 11 25 
C 11 24.6875 11 24.5 11.5 23.296875 
L 29 -22.609375 
C 29.40625 -23.703125 29.90625 -25 31.296875 -25 
C 32.40625 -25 33.296875 -24.109375 33.296875 -23 
C 33.296875 -22.703125 33.296875 -22.5 32.796875 -21.40625 
L 15.09375 25 
z
" id="CMSY10-104"/>
      <path d="M 36.203125 30 
L 53.90625 30 
C 72.296875 30 84.90625 41.328125 84.90625 53.375 
C 84.90625 63.78125 75.703125 69 62.5 69 
L 24 69 
C 22.09375 69 20.296875 69 20.296875 66.09375 
C 20.296875 64.296875 21.703125 64.296875 24.5 64.296875 
C 26.59375 64.296875 28.5 64.1875 30.59375 64.09375 
L 16.296875 6.671875 
C 15.90625 5.09375 15.796875 4.984375 14 4.796875 
C 12.296875 4.6875 10.296875 4.6875 8.703125 4.6875 
C 6.09375 4.6875 5.90625 4.6875 5.59375 4.390625 
C 4.296875 3.796875 4.296875 2.296875 4.296875 1.796875 
C 4.296875 1.6875 4.296875 0 6.5 0 
C 9 0 11.59375 0.1875 14.09375 0.1875 
C 16.59375 0.1875 19.203125 0.296875 21.703125 0.296875 
C 24.296875 0.296875 26.90625 0.1875 29.40625 0.1875 
C 32 0.1875 34.703125 0 37.203125 0 
C 38.203125 0 40.09375 0 40.09375 2.796875 
C 40.09375 4.6875 38.90625 4.6875 36 4.6875 
C 33.90625 4.6875 32 4.796875 29.90625 4.890625 
z
M 43.59375 62.453125 
C 44 63.984375 44.09375 64.09375 44.703125 64.1875 
C 45.59375 64.296875 46.296875 64.296875 47.40625 64.296875 
L 57.796875 64.296875 
C 63.40625 64.296875 70.90625 63.265625 70.90625 56.234375 
C 70.90625 55 69.59375 44.59375 65.90625 39.703125 
C 63.796875 36.953125 59.296875 34.09375 50.296875 34.09375 
L 36.59375 34.09375 
z
" id="CMMIB10-80"/>
      <path d="M 34.59375 63.03125 
C 34.59375 66 34.40625 66 31.203125 66 
C 23.796875 59.296875 12.703125 59.296875 10.5 59.296875 
L 8.59375 59.296875 
L 8.59375 55 
L 10.5 55 
C 14 55 19.296875 55.59375 23.296875 56.890625 
L 23.296875 4.296875 
L 9.40625 4.296875 
L 9.40625 0 
C 13.59375 0.1875 24.09375 0.1875 28.796875 0.1875 
C 33.5 0.1875 44.09375 0.1875 48.296875 0 
L 48.296875 4.296875 
L 34.59375 4.296875 
z
" id="CMBX12-49"/>
      <path d="M 27.296875 23.296875 
C 27.796875 24.5 27.796875 24.6875 27.796875 25 
C 27.796875 25.296875 27.796875 25.5 27.296875 26.703125 
L 9.796875 72.703125 
C 9.203125 74.390625 8.59375 75 7.5 75 
C 6.40625 75 5.5 74.09375 5.5 73 
C 5.5 72.703125 5.5 72.5 6 71.390625 
L 23.703125 25 
L 6 -21.203125 
C 5.5 -22.3125 5.5 -22.5 5.5 -23 
C 5.5 -24.109375 6.40625 -25 7.5 -25 
C 8.796875 -25 9.203125 -24 9.59375 -23 
z
" id="CMSY10-105"/>
     </defs>
     <g transform="translate(77.123645 371.804174)rotate(-90)scale(0.14 -0.14)">
      <use transform="translate(0 14.943915)scale(0.996264)" xlink:href="#CMSY10-104"/>
      <use transform="translate(38.743734 14.943915)scale(0.996264)" xlink:href="#CMMIB10-80"/>
      <use transform="translate(110.782411 0)scale(0.697382)" xlink:href="#CMBX12-49"/>
      <use transform="translate(150.508256 14.943915)scale(0.996264)" xlink:href="#CMSY10-105"/>
     </g>
    </g>
   </g>
   <g id="patch_3">
    <path d="M 144 630 
L 144 86.4 
" style="fill:none;stroke:#000000;stroke-linecap:square;stroke-linejoin:miter;stroke-width:0.8;"/>
   </g>
   <g id="patch_4">
    <path d="M 1036.8 630 
L 1036.8 86.4 
" style="fill:none;stroke:#000000;stroke-linecap:square;stroke-linejoin:miter;stroke-width:0.8;"/>
   </g>
   <g id="patch_5">
    <path d="M 144 630 
L 1036.8 630 
" style="fill:none;stroke:#000000;stroke-linecap:square;stroke-linejoin:miter;stroke-width:0.8;"/>
   </g>
   <g id="patch_6">
    <path d="M 144 86.4 
L 1036.8 86.4 
" style="fill:none;stroke:#000000;stroke-linecap:square;stroke-linejoin:miter;stroke-width:0.8;"/>
   </g>
   <g id="text_19">
    <!-- \(\chi^2 = 3.14 \) -->
    <defs>
     <path d="M 33 16.171875 
C 30.296875 24.40625 30.90625 23.609375 28.40625 30.5625 
C 25.296875 39.109375 24.5 39.796875 23.09375 41.1875 
C 21.296875 42.796875 17.90625 44 14.40625 44 
C 8.796875 44 6.09375 38.8125 6.09375 37.515625 
C 6.09375 36.921875 6.59375 36.625 7.203125 36.625 
C 8 36.625 8.203125 37.125 8.296875 37.515625 
C 9.796875 41.390625 12.90625 41.984375 13.796875 41.984375 
C 16.703125 41.984375 19.5 34.84375 21.296875 30.078125 
C 23.703125 24.015625 24.90625 19.84375 27.59375 10.203125 
L 4 -16.40625 
C 3.09375 -17.5 3.09375 -17.90625 3.09375 -18 
C 3.09375 -18.8125 3.59375 -19 4 -19 
C 4.40625 -19 4.703125 -18.8125 5 -18.5 
C 7.796875 -15.71875 14 -8.359375 16.59375 -5.390625 
L 28.203125 7.71875 
C 33.09375 -7.484375 33.09375 -7.671875 34.59375 -11.359375 
C 36.203125 -15.125 38.296875 -20 46.796875 -20 
C 52.5 -20 55.09375 -14.921875 55.09375 -13.53125 
C 55.09375 -12.84375 54.5 -12.640625 54 -12.640625 
C 53.203125 -12.640625 53.09375 -13.046875 52.796875 -13.84375 
C 51.703125 -16.625 49.09375 -18 47.5 -18 
C 46.203125 -18 44.59375 -18 40.203125 -6.984375 
C 37.59375 -0.328125 35.296875 7.609375 33.59375 13.78125 
L 57.296875 40.59375 
C 58.09375 41.484375 58.203125 41.59375 58.203125 41.984375 
C 58.203125 42.6875 57.703125 43 57.203125 43 
C 56.90625 43 56.59375 43 55.59375 41.890625 
z
" id="CMMI12-31"/>
     <path d="M 64.296875 32 
C 65.796875 32 67.296875 32 67.296875 33.6875 
C 67.296875 35.5 65.59375 35.5 63.90625 35.5 
L 8 35.5 
C 6.296875 35.5 4.59375 35.5 4.59375 33.6875 
C 4.59375 32 6.09375 32 7.59375 32 
z
M 63.90625 14.484375 
C 65.59375 14.484375 67.296875 14.484375 67.296875 16.296875 
C 67.296875 18 65.796875 18 64.296875 18 
L 7.59375 18 
C 6.09375 18 4.59375 18 4.59375 16.296875 
C 4.59375 14.484375 6.296875 14.484375 8 14.484375 
z
" id="CMR17-61"/>
     <path d="M 22.09375 34 
C 31 34 34.90625 26.140625 34.90625 17.09375 
C 34.90625 5.03125 28.5 0.390625 22.703125 0.390625 
C 17.40625 0.390625 8.796875 3.015625 6.09375 10.796875 
C 6.59375 10.59375 7.09375 10.59375 7.59375 10.59375 
C 10 10.59375 11.796875 12.1875 11.796875 14.796875 
C 11.796875 17.6875 9.59375 19 7.59375 19 
C 5.90625 19 3.296875 18.1875 3.296875 14.484375 
C 3.296875 5.234375 12.296875 -2 22.90625 -2 
C 34 -2 42.5 6.75 42.5 16.984375 
C 42.5 26.84375 34.5 34 25 35.09375 
C 32.59375 36.671875 39.90625 43.375 39.90625 52.390625 
C 39.90625 60.25 32 66 23 66 
C 13.90625 66 5.90625 60.34375 5.90625 52.296875 
C 5.90625 48.796875 8.5 48.1875 9.796875 48.1875 
C 11.90625 48.1875 13.703125 49.484375 13.703125 52.09375 
C 13.703125 54.6875 11.90625 56 9.796875 56 
C 9.40625 56 8.90625 56 8.5 55.796875 
C 11.40625 62.484375 19.296875 63.6875 22.796875 63.6875 
C 26.296875 63.6875 32.90625 61.96875 32.90625 52.296875 
C 32.90625 49.484375 32.5 44.546875 29.09375 40.21875 
C 26.09375 36.390625 22.703125 36.1875 19.40625 35.890625 
C 18.90625 35.890625 16.59375 35.6875 16.203125 35.6875 
C 15.5 35.59375 15.09375 35.5 15.09375 34.796875 
C 15.09375 34.09375 15.203125 34 17.203125 34 
z
" id="CMR17-51"/>
     <path d="M 33.59375 64.796875 
C 33.59375 66.890625 33.5 67 31.703125 67 
L 2 19.59375 
L 2 17 
L 27.796875 17 
L 27.796875 7.1875 
C 27.796875 3.59375 27.59375 2.59375 20.59375 2.59375 
L 18.703125 2.59375 
L 18.703125 0 
C 21.90625 0.1875 27.296875 0.1875 30.703125 0.1875 
C 34.09375 0.1875 39.5 0.1875 42.703125 0 
L 42.703125 2.59375 
L 40.796875 2.59375 
C 33.796875 2.59375 33.59375 3.59375 33.59375 7.1875 
L 33.59375 17 
L 43.796875 17 
L 43.796875 19.59375 
L 33.59375 19.59375 
z
M 28.09375 58.171875 
L 28.09375 19.59375 
L 4 19.59375 
z
" id="CMR17-52"/>
    </defs>
    <g transform="translate(562.039509 80.4)scale(0.14 -0.14)">
     <use transform="scale(0.996264)" xlink:href="#CMMI12-31"/>
     <use transform="translate(61.112959 36.153639)scale(0.697382)" xlink:href="#CMR17-50"/>
     <use transform="translate(121.268282 0)scale(0.996264)" xlink:href="#CMR17-61"/>
     <use transform="translate(220.657079 0)scale(0.996264)" xlink:href="#CMR17-51"/>
     <use transform="translate(266.347556 0)scale(0.996264)" xlink:href="#CMMI12-58"/>
     <use transform="translate(293.444733 0)scale(0.996264)" xlink:href="#CMR17-49"/>
     <use transform="translate(339.13521 0)scale(0.996264)" xlink:href="#CMR17-52"/>
    </g>
   </g>
  </g>
  <g id="text_20">
   <!-- \(\chi^2 = [3] \) -->
   <defs>
    <path d="M 23.5 -25 
L 23.5 -21.5 
L 14.09375 -21.5 
L 14.09375 71.484375 
L 23.5 71.484375 
L 23.5 75 
L 10.59375 75 
L 10.59375 -25 
z
" id="CMR17-91"/>
    <path d="M 14.296875 75 
L 1.40625 75 
L 1.40625 71.484375 
L 10.796875 71.484375 
L 10.796875 -21.5 
L 1.40625 -21.5 
L 1.40625 -25 
L 14.296875 -25 
z
" id="CMR17-93"/>
   </defs>
   <g transform="translate(537.620889 33.86304)scale(0.24 -0.24)">
    <use transform="scale(0.996264)" xlink:href="#CMMI12-31"/>
    <use transform="translate(61.112959 36.153639)scale(0.697382)" xlink:href="#CMR17-50"/>
    <use transform="translate(121.268282 0)scale(0.996264)" xlink:href="#CMR17-61"/>
    <use transform="translate(220.657079 0)scale(0.996264)" xlink:href="#CMR17-91"/>
    <use transform="translate(245.528137 0)scale(0.996264)" xlink:href="#CMR17-51"/>
    <use transform="translate(291.218614 0)scale(0.996264)" xlink:href="#CMR17-93"/>
   </g>
  </g>
 </g>
 <defs>
  <clipPath id="pa990c0d0f7">
   <rect height="543.6" width="892.8" x="144" y="86.4"/>
  </clipPath>
 </defs>
</svg>
