<?xml version="1.0" encoding="utf-8" standalone="no"?>
<!DOCTYPE svg PUBLIC "-//W3C//DTD SVG 1.1//EN"
  "http://www.w3.org/Graphics/SVG/1.1/DTD/svg11.dtd">
<!-- Created with matplotlib (https://matplotlib.org/) -->
<svg height="720pt" version="1.1" viewBox="0 0 1152 720" width="1152pt" xmlns="http://www.w3.org/2000/svg" xmlns:xlink="http://www.w3.org/1999/xlink">
 <defs>
  <style type="text/css">
*{stroke-linecap:butt;stroke-linejoin:round;}
  </style>
 </defs>
 <g id="figure_1">
  <g id="patch_1">
   <path d="M 0 720 
L 1152 720 
L 1152 0 
L 0 0 
z
" style="fill:#ffffff;"/>
  </g>
  <g id="axes_1">
   <g id="patch_2">
    <path d="M 144 222.3 
L 392 222.3 
L 392 86.4 
L 144 86.4 
z
" style="fill:#ffffff;"/>
   </g>
   <g id="PatchCollection_1">
    <path clip-path="url(#p45cb7574b3)" d="M 145.305263 133.890275 
L 156.791579 133.890275 
L 156.791579 114.194029 
L 145.305263 114.194029 
z
" style="fill:#ffa500;"/>
    <path clip-path="url(#p45cb7574b3)" d="M 158.357895 135.197475 
L 176.631579 135.197475 
L 176.631579 120.425291 
L 158.357895 120.425291 
z
" style="fill:#ffa500;"/>
    <path clip-path="url(#p45cb7574b3)" d="M 176.631579 135.757709 
L 196.210526 135.757709 
L 196.210526 120.985524 
L 176.631579 120.985524 
z
" style="fill:#ffa500;"/>
    <path clip-path="url(#p45cb7574b3)" d="M 196.210526 140.541017 
L 222.315789 140.541017 
L 222.315789 110.996648 
L 196.210526 110.996648 
z
" style="fill:#ffa500;"/>
    <path clip-path="url(#p45cb7574b3)" d="M 222.315789 142.873709 
L 248.421053 142.873709 
L 248.421053 108.405279 
L 222.315789 108.405279 
z
" style="fill:#ffa500;"/>
    <path clip-path="url(#p45cb7574b3)" d="M 339.789474 214.913908 
L 392 214.913908 
L 392 200.141723 
L 339.789474 200.141723 
z
" style="fill:#ffa500;"/>
   </g>
   <g id="PatchCollection_2">
    <path clip-path="url(#p45cb7574b3)" d="M 145.305263 125.792492 
L 156.791579 125.792492 
L 156.791579 106.096246 
L 145.305263 106.096246 
z
" style="fill:#0000ff;"/>
    <path clip-path="url(#p45cb7574b3)" d="M 158.357895 210.732552 
L 176.631579 210.732552 
L 176.631579 195.960367 
L 158.357895 195.960367 
z
" style="fill:#0000ff;"/>
    <path clip-path="url(#p45cb7574b3)" d="M 176.631579 113.482338 
L 196.210526 113.482338 
L 196.210526 98.710154 
L 176.631579 98.710154 
z
" style="fill:#0000ff;"/>
    <path clip-path="url(#p45cb7574b3)" d="M 196.210526 130.716553 
L 222.315789 130.716553 
L 222.315789 101.172184 
L 196.210526 101.172184 
z
" style="fill:#0000ff;"/>
    <path clip-path="url(#p45cb7574b3)" d="M 222.315789 152.87483 
L 248.421053 152.87483 
L 248.421053 118.406399 
L 222.315789 118.406399 
z
" style="fill:#0000ff;"/>
    <path clip-path="url(#p45cb7574b3)" d="M 339.789474 205.80849 
L 392 205.80849 
L 392 191.036306 
L 339.789474 191.036306 
z
" style="fill:#0000ff;"/>
   </g>
   <g id="matplotlib.axis_1">
    <g id="xtick_1">
     <g id="line2d_1">
      <defs>
       <path d="M 0 0 
L 0 3.5 
" id="m9ac3429f98" style="stroke:#000000;stroke-width:0.8;"/>
      </defs>
      <g>
       <use style="stroke:#000000;stroke-width:0.8;" x="144" xlink:href="#m9ac3429f98" y="222.3"/>
      </g>
     </g>
     <g id="text_1">
      <!-- $0$ -->
      <defs>
       <path d="M 42 31.84375 
C 42 37.96875 41.90625 48.421875 37.703125 56.453125 
C 34 63.484375 28.09375 66 22.90625 66 
C 18.09375 66 12 63.78125 8.203125 56.5625 
C 4.203125 49.015625 3.796875 39.671875 3.796875 31.84375 
C 3.796875 26.109375 3.90625 17.375 7 9.734375 
C 11.296875 -0.609375 19 -2 22.90625 -2 
C 27.5 -2 34.5 -0.109375 38.59375 9.4375 
C 41.59375 16.375 42 24.5 42 31.84375 
z
M 22.90625 -0.40625 
C 16.5 -0.40625 12.703125 5.125 11.296875 12.75 
C 10.203125 18.6875 10.203125 27.328125 10.203125 32.953125 
C 10.203125 40.6875 10.203125 47.109375 11.5 53.234375 
C 13.40625 61.78125 19 64.390625 22.90625 64.390625 
C 27 64.390625 32.296875 61.671875 34.203125 53.4375 
C 35.5 47.71875 35.59375 40.984375 35.59375 32.953125 
C 35.59375 26.421875 35.59375 18.375 34.40625 12.453125 
C 32.296875 1.5 26.40625 -0.40625 22.90625 -0.40625 
z
" id="CMR17-48"/>
      </defs>
      <g transform="translate(138.974048 244.520693)scale(0.22 -0.22)">
       <use transform="scale(0.996264)" xlink:href="#CMR17-48"/>
      </g>
     </g>
    </g>
    <g id="xtick_2">
     <g id="line2d_2">
      <g>
       <use style="stroke:#000000;stroke-width:0.8;" x="274.526316" xlink:href="#m9ac3429f98" y="222.3"/>
      </g>
     </g>
     <g id="text_2">
      <!-- $10$ -->
      <defs>
       <path d="M 26.59375 63.796875 
C 26.59375 65.890625 26.5 66 25.09375 66 
C 21.203125 61.359375 15.296875 59.890625 9.703125 59.6875 
C 9.40625 59.6875 8.90625 59.6875 8.796875 59.5 
C 8.703125 59.296875 8.703125 59.09375 8.703125 57 
C 11.796875 57 17 57.59375 21 59.984375 
L 21 7.296875 
C 21 3.796875 20.796875 2.59375 12.203125 2.59375 
L 9.203125 2.59375 
L 9.203125 0 
C 14 0.09375 19 0.1875 23.796875 0.1875 
C 28.59375 0.1875 33.59375 0.09375 38.40625 0 
L 38.40625 2.59375 
L 35.40625 2.59375 
C 26.796875 2.59375 26.59375 3.6875 26.59375 7.296875 
z
" id="CMR17-49"/>
      </defs>
      <g transform="translate(264.474411 244.520693)scale(0.22 -0.22)">
       <use transform="scale(0.996264)" xlink:href="#CMR17-49"/>
       <use transform="translate(45.690477 0)scale(0.996264)" xlink:href="#CMR17-48"/>
      </g>
     </g>
    </g>
    <g id="text_3">
     <!-- \(\boldsymbol{q^2(GeV^2)}\) -->
     <defs>
      <path d="M 54.296875 43.1875 
C 54.296875 43.6875 53.90625 45 52.5 45 
C 52.40625 45 46.5 43.59375 43.40625 40.6875 
C 42 42.296875 38.59375 45 32.703125 45 
C 15.296875 45 4.5 29.1875 4.5 15.5 
C 4.5 3.1875 13.703125 -1 22 -1 
C 26.796875 -1 30.796875 0.890625 32.90625 2.1875 
L 29.09375 -12.484375 
C 28.703125 -13.921875 28.59375 -14.015625 27.90625 -14.109375 
C 26.796875 -14.3125 25.203125 -14.3125 24.09375 -14.3125 
C 22.40625 -14.3125 21.796875 -14.3125 21.296875 -14.90625 
C 20.796875 -15.5 20.5 -17.109375 20.5 -17.203125 
C 20.5 -17.8125 20.90625 -19 22.5 -19 
C 25.90625 -19 29.59375 -18.703125 33.09375 -18.703125 
C 36.796875 -18.703125 40.59375 -19 44.203125 -19 
C 44.90625 -19 46.796875 -19 46.796875 -16.109375 
C 46.796875 -14.40625 45.09375 -14.3125 44.203125 -14.3125 
C 42.796875 -14.3125 41.203125 -14.3125 39.90625 -14.21875 
z
M 35 10.5 
C 34.5 8.796875 34.5 8.59375 33.40625 7.59375 
C 30.203125 4.390625 26 2.59375 22.5 2.59375 
C 16.296875 2.59375 15.796875 8 15.796875 10.1875 
C 15.796875 15.390625 19.203125 27.6875 20.796875 31.59375 
C 23.90625 38.890625 28.796875 41.390625 32.90625 41.390625 
C 38.796875 41.390625 41.203125 36.6875 41.203125 35.59375 
C 41.203125 35.1875 41.09375 34.5 41 34.1875 
z
" id="CMMIB10-113"/>
      <path d="M 50.5 21.53125 
L 46.296875 21.53125 
C 46 19.421875 45.296875 13.5 43.796875 12.5 
C 43 11.796875 35.203125 11.796875 33.703125 11.796875 
L 18.203125 11.796875 
C 22 15 31.09375 22.625 32.59375 23.734375 
C 43.703125 32.0625 50.5 37.171875 50.5 46.796875 
C 50.5 58.734375 39.796875 66 26.59375 66 
C 15.296875 66 5.59375 59.46875 5.59375 49.796875 
C 5.59375 44.5 9.90625 43 12.203125 43 
C 15.296875 43 18.90625 45.09375 18.90625 49.6875 
C 18.90625 53.890625 15.796875 56 12.703125 56.40625 
C 16.703125 61.265625 22 61.6875 24.09375 61.6875 
C 33.296875 61.6875 37.703125 53.890625 37.703125 46.6875 
C 37.703125 38.875 32.40625 31.65625 28.296875 27.34375 
L 6.59375 4.59375 
C 5.59375 3.6875 5.59375 3.5 5.59375 1.6875 
L 5.59375 0 
L 47.59375 0 
z
" id="CMBX12-50"/>
      <path d="M 37.40625 -23.90625 
C 37.40625 -23.515625 37.40625 -23.3125 35.5 -21.5 
C 24.296875 -10.3125 20 7.296875 20 24.890625 
C 20 44.59375 24.90625 60.796875 36.09375 72.09375 
C 37.296875 73.296875 37.40625 73.390625 37.40625 73.796875 
C 37.40625 75 36.203125 75 35.703125 75 
C 34.796875 75 34.59375 75 32 72.890625 
C 17.59375 61.390625 10.796875 43 10.796875 25 
C 10.796875 6.59375 17.703125 -11.3125 31.90625 -22.90625 
C 34.5 -25.109375 34.703125 -25.109375 35.703125 -25.109375 
C 36.203125 -25.109375 37.40625 -25.109375 37.40625 -23.90625 
z
" id="CMBX12-40"/>
      <path d="M 73.5 20.421875 
C 73.90625 21.90625 74 22 74.703125 22.09375 
C 75.90625 22.296875 77.296875 22.296875 78.5 22.296875 
C 81 22.296875 82.59375 22.296875 82.59375 25.1875 
C 82.59375 25.6875 82.296875 27 80.5 27 
C 78.296875 27 76 26.796875 73.703125 26.796875 
C 71.5 26.796875 69.203125 26.6875 67 26.6875 
C 63 26.6875 53.203125 27 49.203125 27 
C 48 27 46.09375 27 46.09375 24.09375 
C 46.09375 22.296875 47.90625 22.296875 49.5 22.296875 
L 53.203125 22.296875 
C 54.296875 22.296875 59.796875 22.296875 59.796875 21.703125 
C 59.796875 21.609375 59.796875 21.40625 59.09375 19.046875 
C 59 18.359375 57.40625 12.046875 57.296875 11.953125 
C 55.59375 5.25 47.59375 2.6875 41.296875 2.6875 
C 35.5 2.6875 29.5 3.875 24.796875 7.625 
C 19.5 11.953125 19.5 18.75 19.5 20.921875 
C 19.5 25.484375 21.59375 43.515625 31.296875 54.5 
C 37.09375 61.0625 46.703125 65.296875 56.90625 65.296875 
C 69.5 65.296875 74.203125 55.515625 74.203125 47.25 
C 74.203125 46.140625 73.90625 44.625 73.90625 43.625 
C 73.90625 42.109375 75.203125 42.109375 76.59375 42.109375 
C 78.796875 42.109375 78.90625 42.203125 79.40625 44.328125 
L 85.09375 66.984375 
C 85.203125 67.484375 85.40625 67.984375 85.40625 68.59375 
C 85.40625 70 84 70 82.90625 70 
L 73.59375 62.765625 
C 71.59375 64.78125 66.40625 70 55.296875 70 
C 23.296875 70 5.5 45.328125 5.5 24.6875 
C 5.5 6.625 19.59375 -2 38.203125 -2 
C 48.703125 -2 55.703125 1.5 58.90625 4.859375 
C 61.40625 2.296875 66.5 -0.3125 67.203125 -0.3125 
C 68.203125 -0.3125 68.40625 0.5 68.796875 2 
z
" id="CMMIB10-71"/>
      <path d="M 22.203125 21.390625 
C 28.90625 21.390625 35.40625 21.984375 39.59375 23.390625 
C 48.09375 26.3125 49.5 32.078125 49.5 35.3125 
C 49.5 41.1875 44 45 35.796875 45 
C 17.703125 45 4.90625 32.375 4.90625 16.84375 
C 4.90625 5.46875 12.59375 -1 25.796875 -1 
C 28.40625 -1 35.296875 -0.90625 41.296875 1.390625 
C 47.09375 3.6875 51.09375 7.734375 51.09375 8.921875 
C 51.09375 9.71875 49.5 11.5 48.59375 11.5 
C 48 11.5 47.796875 11.203125 47.09375 10.40625 
C 41.703125 4.765625 33.90625 2.59375 26.09375 2.59375 
C 18.90625 2.59375 16.296875 6.546875 16.296875 12.1875 
C 16.296875 14.0625 16.703125 17.328125 17.796875 21.390625 
z
M 18.703125 25 
C 20.5 32.375 22.90625 35.109375 24.59375 36.734375 
C 28.09375 40.28125 32.703125 41.390625 35.796875 41.390625 
C 39.40625 41.390625 43.5 39.765625 43.5 35.21875 
C 43.5 25 28.40625 25 18.703125 25 
z
" id="CMMIB10-101"/>
      <path d="M 75.90625 60.25 
C 77.40625 62.46875 78.59375 64.1875 85.5 64.296875 
C 86.703125 64.296875 88.5 64.296875 88.5 67.1875 
C 88.5 67.796875 88 69 86.703125 69 
C 83.796875 69 80.59375 68.6875 77.59375 68.6875 
C 74 68.6875 70.09375 69 66.59375 69 
C 65.796875 69 63.90625 69 63.90625 66.09375 
C 63.90625 64.296875 65.59375 64.296875 66.5 64.296875 
C 67 64.296875 69.90625 64.296875 72.09375 63.28125 
L 39.09375 14.75 
L 30.296875 62.0625 
C 30.203125 62.375 30.09375 63.1875 30.09375 63.484375 
C 30.09375 64.296875 35.5 64.296875 36.203125 64.296875 
C 38.40625 64.296875 40 64.296875 40 67.1875 
C 40 68.484375 39 69 37.796875 69 
C 35.296875 69 32.703125 68.796875 30.203125 68.796875 
C 27.796875 68.796875 25.296875 68.6875 22.90625 68.6875 
C 20.59375 68.6875 18.296875 68.796875 16 68.796875 
C 13.796875 68.796875 11.5 69 9.40625 69 
C 8.5 69 6.59375 69 6.59375 66.09375 
C 6.59375 64.296875 8.203125 64.296875 10.296875 64.296875 
C 11.59375 64.296875 12.796875 64.296875 14.203125 64.1875 
C 15.296875 64.09375 15.40625 63.984375 15.703125 62.265625 
L 27.09375 0.796875 
C 27.59375 -2 28.703125 -2 30.59375 -2 
C 33.40625 -2 33.90625 -1.3125 35.203125 0.59375 
z
" id="CMMIB10-86"/>
      <path d="M 32.796875 24.890625 
C 32.796875 43.296875 25.90625 61.203125 11.703125 72.796875 
C 9.09375 75 8.90625 75 7.90625 75 
C 7.40625 75 6.203125 75 6.203125 73.796875 
C 6.203125 73.390625 6.203125 73.1875 8.09375 71.390625 
C 19.296875 60.203125 23.59375 42.59375 23.59375 25 
C 23.59375 5.296875 18.703125 -10.90625 7.5 -22.203125 
C 6.296875 -23.40625 6.203125 -23.515625 6.203125 -23.90625 
C 6.203125 -25.109375 7.40625 -25.109375 7.90625 -25.109375 
C 8.796875 -25.109375 9 -25.109375 11.59375 -23 
C 26 -11.5 32.796875 6.890625 32.796875 24.890625 
z
" id="CMBX12-41"/>
     </defs>
     <g transform="translate(235.030572 264.137317)scale(0.14 -0.14)">
      <use transform="scale(0.996264)" xlink:href="#CMMIB10-113"/>
      <use transform="translate(57.700068 36.153639)scale(0.697382)" xlink:href="#CMBX12-50"/>
      <use transform="translate(97.425913 0)scale(0.996264)" xlink:href="#CMBX12-40"/>
      <use transform="translate(141.012463 0)scale(0.996264)" xlink:href="#CMMIB10-71"/>
      <use transform="translate(229.354383 0)scale(0.996264)" xlink:href="#CMMIB10-101"/>
      <use transform="translate(284.508441 0)scale(0.996264)" xlink:href="#CMMIB10-86"/>
      <use transform="translate(377.492697 36.153639)scale(0.697382)" xlink:href="#CMBX12-50"/>
      <use transform="translate(417.218542 0)scale(0.996264)" xlink:href="#CMBX12-41"/>
     </g>
    </g>
   </g>
   <g id="matplotlib.axis_2">
    <g id="ytick_1">
     <g id="line2d_3">
      <defs>
       <path d="M 0 0 
L -3.5 0 
" id="m582d9eab9d" style="stroke:#000000;stroke-width:0.8;"/>
      </defs>
      <g>
       <use style="stroke:#000000;stroke-width:0.8;" x="144" xlink:href="#m582d9eab9d" y="188.574275"/>
      </g>
     </g>
     <g id="text_4">
      <!-- $-0.5$ -->
      <defs>
       <path d="M 65.90625 23 
C 67.59375 23 69.40625 23 69.40625 25 
C 69.40625 27 67.59375 27 65.90625 27 
L 11.796875 27 
C 10.09375 27 8.296875 27 8.296875 25 
C 8.296875 23 10.09375 23 11.796875 23 
z
" id="CMSY10-0"/>
       <path d="M 18.40625 4.796875 
C 18.40625 7.6875 16 9.6875 13.59375 9.6875 
C 10.703125 9.6875 8.703125 7.296875 8.703125 4.890625 
C 8.703125 2 11.09375 0 13.5 0 
C 16.40625 0 18.40625 2.390625 18.40625 4.796875 
z
" id="CMMI12-58"/>
       <path d="M 11.40625 58.59375 
C 12.40625 58.1875 16.5 56.890625 20.703125 56.890625 
C 30 56.890625 35.09375 61.890625 38 64.6875 
C 38 65.484375 38 66 37.40625 66 
C 37.296875 66 37.09375 66 36.296875 65.59375 
C 32.796875 64.09375 28.703125 63 23.703125 63 
C 20.703125 63 16.203125 63.359375 11.296875 65.484375 
C 10.203125 66 10 66 9.90625 66 
C 9.40625 66 9.296875 65.890625 9.296875 63.90625 
L 9.296875 34.859375 
C 9.296875 33.015625 9.296875 32.5 10.296875 32.5 
C 10.796875 32.5 11 32.703125 11.5 33.421875 
C 14.703125 38.046875 19.09375 40 24.09375 40 
C 27.59375 40 35.09375 37.734375 35.09375 20.203125 
C 35.09375 16.984375 35.09375 11.1875 32.09375 6.59375 
C 29.59375 2.484375 25.703125 0.390625 21.40625 0.390625 
C 14.796875 0.390625 8.09375 4.984375 6.296875 12.6875 
C 6.703125 12.59375 7.5 12.390625 7.90625 12.390625 
C 9.203125 12.390625 11.703125 13.09375 11.703125 16.1875 
C 11.703125 18.890625 9.796875 20 7.90625 20 
C 5.59375 20 4.09375 18.59375 4.09375 15.796875 
C 4.09375 7.09375 11 -2 21.59375 -2 
C 31.90625 -2 41.703125 6.890625 41.703125 19.796875 
C 41.703125 32.09375 33.90625 41.59375 24.203125 41.59375 
C 19.09375 41.59375 14.796875 39.6875 11.40625 36 
z
" id="CMR17-53"/>
      </defs>
      <g transform="translate(93.887578 196.184622)scale(0.22 -0.22)">
       <use transform="scale(0.996264)" xlink:href="#CMSY10-0"/>
       <use transform="translate(77.487468 0)scale(0.996264)" xlink:href="#CMR17-48"/>
       <use transform="translate(123.177945 0)scale(0.996264)" xlink:href="#CMMI12-58"/>
       <use transform="translate(150.275122 0)scale(0.996264)" xlink:href="#CMR17-53"/>
      </g>
     </g>
    </g>
    <g id="ytick_2">
     <g id="line2d_4">
      <g>
       <use style="stroke:#000000;stroke-width:0.8;" x="144" xlink:href="#m582d9eab9d" y="127.023507"/>
      </g>
     </g>
     <g id="text_5">
      <!-- $0.0$ -->
      <g transform="translate(110.934811 134.633854)scale(0.22 -0.22)">
       <use transform="scale(0.996264)" xlink:href="#CMR17-48"/>
       <use transform="translate(45.690477 0)scale(0.996264)" xlink:href="#CMMI12-58"/>
       <use transform="translate(72.787654 0)scale(0.996264)" xlink:href="#CMR17-48"/>
      </g>
     </g>
    </g>
    <g id="text_6">
     <!-- \(\langle \boldsymbol{{P_1}} \rangle\) -->
     <defs>
      <path d="M 32.796875 71.203125 
C 33.296875 72.296875 33.296875 72.5 33.296875 73 
C 33.296875 74.09375 32.40625 75 31.296875 75 
C 30.40625 75 29.703125 74.5 29 72.703125 
L 11.5 26.796875 
C 11.296875 26.203125 11 25.59375 11 25 
C 11 24.6875 11 24.5 11.5 23.296875 
L 29 -22.609375 
C 29.40625 -23.703125 29.90625 -25 31.296875 -25 
C 32.40625 -25 33.296875 -24.109375 33.296875 -23 
C 33.296875 -22.703125 33.296875 -22.5 32.796875 -21.40625 
L 15.09375 25 
z
" id="CMSY10-104"/>
      <path d="M 36.203125 30 
L 53.90625 30 
C 72.296875 30 84.90625 41.328125 84.90625 53.375 
C 84.90625 63.78125 75.703125 69 62.5 69 
L 24 69 
C 22.09375 69 20.296875 69 20.296875 66.09375 
C 20.296875 64.296875 21.703125 64.296875 24.5 64.296875 
C 26.59375 64.296875 28.5 64.1875 30.59375 64.09375 
L 16.296875 6.671875 
C 15.90625 5.09375 15.796875 4.984375 14 4.796875 
C 12.296875 4.6875 10.296875 4.6875 8.703125 4.6875 
C 6.09375 4.6875 5.90625 4.6875 5.59375 4.390625 
C 4.296875 3.796875 4.296875 2.296875 4.296875 1.796875 
C 4.296875 1.6875 4.296875 0 6.5 0 
C 9 0 11.59375 0.1875 14.09375 0.1875 
C 16.59375 0.1875 19.203125 0.296875 21.703125 0.296875 
C 24.296875 0.296875 26.90625 0.1875 29.40625 0.1875 
C 32 0.1875 34.703125 0 37.203125 0 
C 38.203125 0 40.09375 0 40.09375 2.796875 
C 40.09375 4.6875 38.90625 4.6875 36 4.6875 
C 33.90625 4.6875 32 4.796875 29.90625 4.890625 
z
M 43.59375 62.453125 
C 44 63.984375 44.09375 64.09375 44.703125 64.1875 
C 45.59375 64.296875 46.296875 64.296875 47.40625 64.296875 
L 57.796875 64.296875 
C 63.40625 64.296875 70.90625 63.265625 70.90625 56.234375 
C 70.90625 55 69.59375 44.59375 65.90625 39.703125 
C 63.796875 36.953125 59.296875 34.09375 50.296875 34.09375 
L 36.59375 34.09375 
z
" id="CMMIB10-80"/>
      <path d="M 34.59375 63.03125 
C 34.59375 66 34.40625 66 31.203125 66 
C 23.796875 59.296875 12.703125 59.296875 10.5 59.296875 
L 8.59375 59.296875 
L 8.59375 55 
L 10.5 55 
C 14 55 19.296875 55.59375 23.296875 56.890625 
L 23.296875 4.296875 
L 9.40625 4.296875 
L 9.40625 0 
C 13.59375 0.1875 24.09375 0.1875 28.796875 0.1875 
C 33.5 0.1875 44.09375 0.1875 48.296875 0 
L 48.296875 4.296875 
L 34.59375 4.296875 
z
" id="CMBX12-49"/>
      <path d="M 27.296875 23.296875 
C 27.796875 24.5 27.796875 24.6875 27.796875 25 
C 27.796875 25.296875 27.796875 25.5 27.296875 26.703125 
L 9.796875 72.703125 
C 9.203125 74.390625 8.59375 75 7.5 75 
C 6.40625 75 5.5 74.09375 5.5 73 
C 5.5 72.703125 5.5 72.5 6 71.390625 
L 23.703125 25 
L 6 -21.203125 
C 5.5 -22.3125 5.5 -22.5 5.5 -23 
C 5.5 -24.109375 6.40625 -25 7.5 -25 
C 8.796875 -25 9.203125 -24 9.59375 -23 
z
" id="CMSY10-105"/>
     </defs>
     <g transform="translate(87.17555 167.954174)rotate(-90)scale(0.14 -0.14)">
      <use transform="translate(0 14.943915)scale(0.996264)" xlink:href="#CMSY10-104"/>
      <use transform="translate(38.743734 14.943915)scale(0.996264)" xlink:href="#CMMIB10-80"/>
      <use transform="translate(110.782411 0)scale(0.697382)" xlink:href="#CMBX12-49"/>
      <use transform="translate(150.508256 14.943915)scale(0.996264)" xlink:href="#CMSY10-105"/>
     </g>
    </g>
   </g>
   <g id="patch_3">
    <path d="M 144 222.3 
L 144 86.4 
" style="fill:none;stroke:#000000;stroke-linecap:square;stroke-linejoin:miter;stroke-width:0.8;"/>
   </g>
   <g id="patch_4">
    <path d="M 392 222.3 
L 392 86.4 
" style="fill:none;stroke:#000000;stroke-linecap:square;stroke-linejoin:miter;stroke-width:0.8;"/>
   </g>
   <g id="patch_5">
    <path d="M 144 222.3 
L 392 222.3 
" style="fill:none;stroke:#000000;stroke-linecap:square;stroke-linejoin:miter;stroke-width:0.8;"/>
   </g>
   <g id="patch_6">
    <path d="M 144 86.4 
L 392 86.4 
" style="fill:none;stroke:#000000;stroke-linecap:square;stroke-linejoin:miter;stroke-width:0.8;"/>
   </g>
   <g id="text_7">
    <!-- \(\chi^2 = 1.26 \) -->
    <defs>
     <path d="M 33 16.171875 
C 30.296875 24.40625 30.90625 23.609375 28.40625 30.5625 
C 25.296875 39.109375 24.5 39.796875 23.09375 41.1875 
C 21.296875 42.796875 17.90625 44 14.40625 44 
C 8.796875 44 6.09375 38.8125 6.09375 37.515625 
C 6.09375 36.921875 6.59375 36.625 7.203125 36.625 
C 8 36.625 8.203125 37.125 8.296875 37.515625 
C 9.796875 41.390625 12.90625 41.984375 13.796875 41.984375 
C 16.703125 41.984375 19.5 34.84375 21.296875 30.078125 
C 23.703125 24.015625 24.90625 19.84375 27.59375 10.203125 
L 4 -16.40625 
C 3.09375 -17.5 3.09375 -17.90625 3.09375 -18 
C 3.09375 -18.8125 3.59375 -19 4 -19 
C 4.40625 -19 4.703125 -18.8125 5 -18.5 
C 7.796875 -15.71875 14 -8.359375 16.59375 -5.390625 
L 28.203125 7.71875 
C 33.09375 -7.484375 33.09375 -7.671875 34.59375 -11.359375 
C 36.203125 -15.125 38.296875 -20 46.796875 -20 
C 52.5 -20 55.09375 -14.921875 55.09375 -13.53125 
C 55.09375 -12.84375 54.5 -12.640625 54 -12.640625 
C 53.203125 -12.640625 53.09375 -13.046875 52.796875 -13.84375 
C 51.703125 -16.625 49.09375 -18 47.5 -18 
C 46.203125 -18 44.59375 -18 40.203125 -6.984375 
C 37.59375 -0.328125 35.296875 7.609375 33.59375 13.78125 
L 57.296875 40.59375 
C 58.09375 41.484375 58.203125 41.59375 58.203125 41.984375 
C 58.203125 42.6875 57.703125 43 57.203125 43 
C 56.90625 43 56.59375 43 55.59375 41.890625 
z
" id="CMMI12-31"/>
     <path d="M 41.703125 15.46875 
L 39.90625 15.46875 
C 38.90625 8.390625 38.09375 7.1875 37.703125 6.59375 
C 37.203125 5.796875 30 5.796875 28.59375 5.796875 
L 9.40625 5.796875 
C 13 9.6875 20 16.765625 28.5 24.9375 
C 34.59375 30.71875 41.703125 37.5 41.703125 47.390625 
C 41.703125 59.1875 32.296875 66 21.796875 66 
C 10.796875 66 4.09375 56.296875 4.09375 47.296875 
C 4.09375 43.390625 7 42.890625 8.203125 42.890625 
C 9.203125 42.890625 12.203125 43.484375 12.203125 46.984375 
C 12.203125 50.09375 9.59375 51 8.203125 51 
C 7.59375 51 7 50.890625 6.59375 50.6875 
C 8.5 59.1875 14.296875 63.390625 20.40625 63.390625 
C 29.09375 63.390625 34.796875 56.5 34.796875 47.390625 
C 34.796875 38.703125 29.703125 31.21875 24 24.734375 
L 4.09375 2.296875 
L 4.09375 0 
L 39.296875 0 
z
" id="CMR17-50"/>
     <path d="M 64.296875 32 
C 65.796875 32 67.296875 32 67.296875 33.6875 
C 67.296875 35.5 65.59375 35.5 63.90625 35.5 
L 8 35.5 
C 6.296875 35.5 4.59375 35.5 4.59375 33.6875 
C 4.59375 32 6.09375 32 7.59375 32 
z
M 63.90625 14.484375 
C 65.59375 14.484375 67.296875 14.484375 67.296875 16.296875 
C 67.296875 18 65.796875 18 64.296875 18 
L 7.59375 18 
C 6.09375 18 4.59375 18 4.59375 16.296875 
C 4.59375 14.484375 6.296875 14.484375 8 14.484375 
z
" id="CMR17-61"/>
     <path d="M 10.59375 34.34375 
C 10.59375 58 21.796875 63.6875 28.296875 63.6875 
C 30.40625 63.6875 35.5 63.265625 37.5 59.09375 
C 35.90625 59.09375 32.90625 59.09375 32.90625 55.59375 
C 32.90625 52.890625 35.09375 52 36.5 52 
C 37.40625 52 40.09375 52.390625 40.09375 55.796875 
C 40.09375 62.296875 35.09375 66 28.203125 66 
C 16.296875 66 3.796875 53.296875 3.796875 31.421875 
C 3.796875 4.015625 15.09375 -2 23.09375 -2 
C 32.796875 -2 42 6.734375 42 20.234375 
C 42 32.828125 33.90625 42 23.703125 42 
C 17.59375 42 13.09375 37.96875 10.59375 30.921875 
z
M 23.09375 0.390625 
C 10.796875 0.390625 10.796875 18.9375 10.796875 22.65625 
C 10.796875 29.90625 14.203125 40.390625 23.5 40.390625 
C 25.203125 40.390625 30.09375 40.390625 33.40625 33.4375 
C 35.203125 29.515625 35.203125 25.375 35.203125 20.34375 
C 35.203125 14.90625 35.203125 10.875 33.09375 6.84375 
C 30.90625 2.703125 27.703125 0.390625 23.09375 0.390625 
z
" id="CMR17-54"/>
    </defs>
    <g transform="translate(239.639509 80.4)scale(0.14 -0.14)">
     <use transform="scale(0.996264)" xlink:href="#CMMI12-31"/>
     <use transform="translate(61.112959 36.153639)scale(0.697382)" xlink:href="#CMR17-50"/>
     <use transform="translate(121.268282 0)scale(0.996264)" xlink:href="#CMR17-61"/>
     <use transform="translate(220.657079 0)scale(0.996264)" xlink:href="#CMR17-49"/>
     <use transform="translate(266.347556 0)scale(0.996264)" xlink:href="#CMMI12-58"/>
     <use transform="translate(293.444733 0)scale(0.996264)" xlink:href="#CMR17-50"/>
     <use transform="translate(339.13521 0)scale(0.996264)" xlink:href="#CMR17-54"/>
    </g>
   </g>
  </g>
  <g id="axes_2">
   <g id="patch_7">
    <path d="M 466.4 222.3 
L 714.4 222.3 
L 714.4 86.4 
L 466.4 86.4 
z
" style="fill:#ffffff;"/>
   </g>
   <g id="PatchCollection_3">
    <path clip-path="url(#p811e529238)" d="M 467.705263 157.368141 
L 479.191579 157.368141 
L 479.191579 151.876436 
L 467.705263 151.876436 
z
" style="fill:#ffa500;"/>
    <path clip-path="url(#p811e529238)" d="M 480.757895 113.598609 
L 499.031579 113.598609 
L 499.031579 105.361052 
L 480.757895 105.361052 
z
" style="fill:#ffa500;"/>
    <path clip-path="url(#p811e529238)" d="M 499.031579 139.944119 
L 518.610526 139.944119 
L 518.610526 104.24804 
L 499.031579 104.24804 
z
" style="fill:#ffa500;"/>
    <path clip-path="url(#p811e529238)" d="M 518.610526 190.250978 
L 544.715789 190.250978 
L 544.715789 160.046603 
L 518.610526 160.046603 
z
" style="fill:#ffa500;"/>
    <path clip-path="url(#p811e529238)" d="M 544.715789 214.062443 
L 570.821053 214.062443 
L 570.821053 197.58733 
L 544.715789 197.58733 
z
" style="fill:#ffa500;"/>
    <path clip-path="url(#p811e529238)" d="M 662.189474 217.374108 
L 714.4 217.374108 
L 714.4 211.882404 
L 662.189474 211.882404 
z
" style="fill:#ffa500;"/>
   </g>
   <g id="PatchCollection_4">
    <path clip-path="url(#p811e529238)" d="M 467.705263 167.552789 
L 479.191579 167.552789 
L 479.191579 162.061084 
L 467.705263 162.061084 
z
" style="fill:#0000ff;"/>
    <path clip-path="url(#p811e529238)" d="M 480.757895 108.516965 
L 499.031579 108.516965 
L 499.031579 100.279408 
L 480.757895 100.279408 
z
" style="fill:#0000ff;"/>
    <path clip-path="url(#p811e529238)" d="M 499.031579 156.56938 
L 518.610526 156.56938 
L 518.610526 120.8733 
L 499.031579 120.8733 
z
" style="fill:#0000ff;"/>
    <path clip-path="url(#p811e529238)" d="M 518.610526 195.011311 
L 544.715789 195.011311 
L 544.715789 164.806937 
L 518.610526 164.806937 
z
" style="fill:#0000ff;"/>
    <path clip-path="url(#p811e529238)" d="M 544.715789 201.875942 
L 570.821053 201.875942 
L 570.821053 185.400829 
L 544.715789 185.400829 
z
" style="fill:#0000ff;"/>
    <path clip-path="url(#p811e529238)" d="M 662.189474 216.97813 
L 714.4 216.97813 
L 714.4 211.486425 
L 662.189474 211.486425 
z
" style="fill:#0000ff;"/>
   </g>
   <g id="matplotlib.axis_3">
    <g id="xtick_3">
     <g id="line2d_5">
      <g>
       <use style="stroke:#000000;stroke-width:0.8;" x="466.4" xlink:href="#m9ac3429f98" y="222.3"/>
      </g>
     </g>
     <g id="text_8">
      <!-- $0$ -->
      <g transform="translate(461.374048 244.520693)scale(0.22 -0.22)">
       <use transform="scale(0.996264)" xlink:href="#CMR17-48"/>
      </g>
     </g>
    </g>
    <g id="xtick_4">
     <g id="line2d_6">
      <g>
       <use style="stroke:#000000;stroke-width:0.8;" x="596.926316" xlink:href="#m9ac3429f98" y="222.3"/>
      </g>
     </g>
     <g id="text_9">
      <!-- $10$ -->
      <g transform="translate(586.874411 244.520693)scale(0.22 -0.22)">
       <use transform="scale(0.996264)" xlink:href="#CMR17-49"/>
       <use transform="translate(45.690477 0)scale(0.996264)" xlink:href="#CMR17-48"/>
      </g>
     </g>
    </g>
    <g id="text_10">
     <!-- \(\boldsymbol{q^2(GeV^2)}\) -->
     <g transform="translate(557.430572 264.137317)scale(0.14 -0.14)">
      <use transform="scale(0.996264)" xlink:href="#CMMIB10-113"/>
      <use transform="translate(57.700068 36.153639)scale(0.697382)" xlink:href="#CMBX12-50"/>
      <use transform="translate(97.425913 0)scale(0.996264)" xlink:href="#CMBX12-40"/>
      <use transform="translate(141.012463 0)scale(0.996264)" xlink:href="#CMMIB10-71"/>
      <use transform="translate(229.354383 0)scale(0.996264)" xlink:href="#CMMIB10-101"/>
      <use transform="translate(284.508441 0)scale(0.996264)" xlink:href="#CMMIB10-86"/>
      <use transform="translate(377.492697 36.153639)scale(0.697382)" xlink:href="#CMBX12-50"/>
      <use transform="translate(417.218542 0)scale(0.996264)" xlink:href="#CMBX12-41"/>
     </g>
    </g>
   </g>
   <g id="matplotlib.axis_4">
    <g id="ytick_3">
     <g id="line2d_7">
      <g>
       <use style="stroke:#000000;stroke-width:0.8;" x="466.4" xlink:href="#m582d9eab9d" y="164.806937"/>
      </g>
     </g>
     <g id="text_11">
      <!-- $0.0$ -->
      <g transform="translate(433.334811 172.417283)scale(0.22 -0.22)">
       <use transform="scale(0.996264)" xlink:href="#CMR17-48"/>
       <use transform="translate(45.690477 0)scale(0.996264)" xlink:href="#CMMI12-58"/>
       <use transform="translate(72.787654 0)scale(0.996264)" xlink:href="#CMR17-48"/>
      </g>
     </g>
    </g>
    <g id="ytick_4">
     <g id="line2d_8">
      <g>
       <use style="stroke:#000000;stroke-width:0.8;" x="466.4" xlink:href="#m582d9eab9d" y="96.16063"/>
      </g>
     </g>
     <g id="text_12">
      <!-- $0.5$ -->
      <g transform="translate(433.334811 103.770977)scale(0.22 -0.22)">
       <use transform="scale(0.996264)" xlink:href="#CMR17-48"/>
       <use transform="translate(45.690477 0)scale(0.996264)" xlink:href="#CMMI12-58"/>
       <use transform="translate(72.787654 0)scale(0.996264)" xlink:href="#CMR17-53"/>
      </g>
     </g>
    </g>
    <g id="text_13">
     <!-- \(\langle \boldsymbol{{P_2}} \rangle\) -->
     <g transform="translate(426.622783 167.954174)rotate(-90)scale(0.14 -0.14)">
      <use transform="translate(0 14.943915)scale(0.996264)" xlink:href="#CMSY10-104"/>
      <use transform="translate(38.743734 14.943915)scale(0.996264)" xlink:href="#CMMIB10-80"/>
      <use transform="translate(110.782411 0)scale(0.697382)" xlink:href="#CMBX12-50"/>
      <use transform="translate(150.508256 14.943915)scale(0.996264)" xlink:href="#CMSY10-105"/>
     </g>
    </g>
   </g>
   <g id="patch_8">
    <path d="M 466.4 222.3 
L 466.4 86.4 
" style="fill:none;stroke:#000000;stroke-linecap:square;stroke-linejoin:miter;stroke-width:0.8;"/>
   </g>
   <g id="patch_9">
    <path d="M 714.4 222.3 
L 714.4 86.4 
" style="fill:none;stroke:#000000;stroke-linecap:square;stroke-linejoin:miter;stroke-width:0.8;"/>
   </g>
   <g id="patch_10">
    <path d="M 466.4 222.3 
L 714.4 222.3 
" style="fill:none;stroke:#000000;stroke-linecap:square;stroke-linejoin:miter;stroke-width:0.8;"/>
   </g>
   <g id="patch_11">
    <path d="M 466.4 86.4 
L 714.4 86.4 
" style="fill:none;stroke:#000000;stroke-linecap:square;stroke-linejoin:miter;stroke-width:0.8;"/>
   </g>
   <g id="text_14">
    <!-- \(\chi^2 = 1.18 \) -->
    <defs>
     <path d="M 27.203125 35.765625 
C 33.5 38.96875 39.90625 43.796875 39.90625 51.53125 
C 39.90625 60.6875 31.09375 66 23 66 
C 13.90625 66 5.90625 59.375 5.90625 50.234375 
C 5.90625 47.71875 6.5 43.390625 10.40625 39.578125 
C 11.40625 38.578125 15.59375 35.5625 18.296875 33.65625 
C 13.796875 31.34375 3.296875 25.8125 3.296875 14.765625 
C 3.296875 4.40625 13.09375 -2 22.796875 -2 
C 33.5 -2 42.5 5.71875 42.5 15.96875 
C 42.5 25.109375 36.40625 29.328125 32.40625 32.046875 
z
M 14.09375 44.609375 
C 13.296875 45.109375 9.296875 48.21875 9.296875 52.9375 
C 9.296875 59.078125 15.59375 63.6875 22.796875 63.6875 
C 30.703125 63.6875 36.5 58.0625 36.5 51.53125 
C 36.5 42.1875 26.09375 36.859375 25.59375 36.859375 
C 25.5 36.859375 25.40625 36.859375 24.59375 37.46875 
z
M 32.5 24 
C 34 22.90625 38.796875 19.578125 38.796875 13.453125 
C 38.796875 6.015625 31.40625 0.390625 23 0.390625 
C 13.90625 0.390625 7 6.921875 7 14.859375 
C 7 22.796875 13.09375 29.4375 20 32.546875 
z
" id="CMR17-56"/>
    </defs>
    <g transform="translate(562.039509 80.4)scale(0.14 -0.14)">
     <use transform="scale(0.996264)" xlink:href="#CMMI12-31"/>
     <use transform="translate(61.112959 36.153639)scale(0.697382)" xlink:href="#CMR17-50"/>
     <use transform="translate(121.268282 0)scale(0.996264)" xlink:href="#CMR17-61"/>
     <use transform="translate(220.657079 0)scale(0.996264)" xlink:href="#CMR17-49"/>
     <use transform="translate(266.347556 0)scale(0.996264)" xlink:href="#CMMI12-58"/>
     <use transform="translate(293.444733 0)scale(0.996264)" xlink:href="#CMR17-49"/>
     <use transform="translate(339.13521 0)scale(0.996264)" xlink:href="#CMR17-56"/>
    </g>
   </g>
  </g>
  <g id="axes_3">
   <g id="patch_12">
    <path d="M 788.8 222.3 
L 1036.8 222.3 
L 1036.8 86.4 
L 788.8 86.4 
z
" style="fill:#ffffff;"/>
   </g>
   <g id="PatchCollection_5">
    <path clip-path="url(#p797a837398)" d="M 790.105263 212.318092 
L 801.591579 212.318092 
L 801.591579 192.354277 
L 790.105263 192.354277 
z
" style="fill:#ffa500;"/>
    <path clip-path="url(#p797a837398)" d="M 803.157895 183.69382 
L 821.431579 183.69382 
L 821.431579 163.730005 
L 803.157895 163.730005 
z
" style="fill:#ffa500;"/>
    <path clip-path="url(#p797a837398)" d="M 821.431579 159.179765 
L 841.010526 159.179765 
L 841.010526 134.224996 
L 821.431579 134.224996 
z
" style="fill:#ffa500;"/>
    <path clip-path="url(#p797a837398)" d="M 841.010526 139.744844 
L 867.115789 139.744844 
L 867.115789 121.028768 
L 841.010526 121.028768 
z
" style="fill:#ffa500;"/>
    <path clip-path="url(#p797a837398)" d="M 867.115789 120.651127 
L 893.221053 120.651127 
L 893.221053 106.926004 
L 867.115789 106.926004 
z
" style="fill:#ffa500;"/>
    <path clip-path="url(#p797a837398)" d="M 984.589474 100.688694 
L 1036.8 100.688694 
L 1036.8 98.193217 
L 984.589474 98.193217 
z
" style="fill:#ffa500;"/>
   </g>
   <g id="PatchCollection_6">
    <path clip-path="url(#p797a837398)" d="M 790.105263 198.69646 
L 801.591579 198.69646 
L 801.591579 178.732645 
L 790.105263 178.732645 
z
" style="fill:#0000ff;"/>
    <path clip-path="url(#p797a837398)" d="M 803.157895 171.870083 
L 821.431579 171.870083 
L 821.431579 151.906268 
L 803.157895 151.906268 
z
" style="fill:#0000ff;"/>
    <path clip-path="url(#p797a837398)" d="M 821.431579 130.070846 
L 841.010526 130.070846 
L 841.010526 105.116077 
L 821.431579 105.116077 
z
" style="fill:#0000ff;"/>
    <path clip-path="url(#p797a837398)" d="M 841.010526 142.54823 
L 867.115789 142.54823 
L 867.115789 123.832153 
L 841.010526 123.832153 
z
" style="fill:#0000ff;"/>
    <path clip-path="url(#p797a837398)" d="M 867.115789 106.987684 
L 893.221053 106.987684 
L 893.221053 93.262561 
L 867.115789 93.262561 
z
" style="fill:#0000ff;"/>
    <path clip-path="url(#p797a837398)" d="M 984.589474 93.262561 
L 1036.8 93.262561 
L 1036.8 90.767085 
L 984.589474 90.767085 
z
" style="fill:#0000ff;"/>
   </g>
   <g id="matplotlib.axis_5">
    <g id="xtick_5">
     <g id="line2d_9">
      <g>
       <use style="stroke:#000000;stroke-width:0.8;" x="788.8" xlink:href="#m9ac3429f98" y="222.3"/>
      </g>
     </g>
     <g id="text_15">
      <!-- $0$ -->
      <g transform="translate(783.774048 244.520693)scale(0.22 -0.22)">
       <use transform="scale(0.996264)" xlink:href="#CMR17-48"/>
      </g>
     </g>
    </g>
    <g id="xtick_6">
     <g id="line2d_10">
      <g>
       <use style="stroke:#000000;stroke-width:0.8;" x="919.326316" xlink:href="#m9ac3429f98" y="222.3"/>
      </g>
     </g>
     <g id="text_16">
      <!-- $10$ -->
      <g transform="translate(909.274411 244.520693)scale(0.22 -0.22)">
       <use transform="scale(0.996264)" xlink:href="#CMR17-49"/>
       <use transform="translate(45.690477 0)scale(0.996264)" xlink:href="#CMR17-48"/>
      </g>
     </g>
    </g>
    <g id="text_17">
     <!-- \(\boldsymbol{q^2(GeV^2)}\) -->
     <g transform="translate(879.830572 264.137317)scale(0.14 -0.14)">
      <use transform="scale(0.996264)" xlink:href="#CMMIB10-113"/>
      <use transform="translate(57.700068 36.153639)scale(0.697382)" xlink:href="#CMBX12-50"/>
      <use transform="translate(97.425913 0)scale(0.996264)" xlink:href="#CMBX12-40"/>
      <use transform="translate(141.012463 0)scale(0.996264)" xlink:href="#CMMIB10-71"/>
      <use transform="translate(229.354383 0)scale(0.996264)" xlink:href="#CMMIB10-101"/>
      <use transform="translate(284.508441 0)scale(0.996264)" xlink:href="#CMMIB10-86"/>
      <use transform="translate(377.492697 36.153639)scale(0.697382)" xlink:href="#CMBX12-50"/>
      <use transform="translate(417.218542 0)scale(0.996264)" xlink:href="#CMBX12-41"/>
     </g>
    </g>
   </g>
   <g id="matplotlib.axis_6">
    <g id="ytick_5">
     <g id="line2d_11">
      <g>
       <use style="stroke:#000000;stroke-width:0.8;" x="788.8" xlink:href="#m582d9eab9d" y="171.870083"/>
      </g>
     </g>
     <g id="text_18">
      <!-- $0$ -->
      <g transform="translate(771.748095 179.48043)scale(0.22 -0.22)">
       <use transform="scale(0.996264)" xlink:href="#CMR17-48"/>
      </g>
     </g>
    </g>
    <g id="ytick_6">
     <g id="line2d_12">
      <g>
       <use style="stroke:#000000;stroke-width:0.8;" x="788.8" xlink:href="#m582d9eab9d" y="109.483161"/>
      </g>
     </g>
     <g id="text_19">
      <!-- $1$ -->
      <g transform="translate(771.748095 117.093508)scale(0.22 -0.22)">
       <use transform="scale(0.996264)" xlink:href="#CMR17-49"/>
      </g>
     </g>
    </g>
    <g id="text_20">
     <!-- \(\langle \boldsymbol{{P_4}} \rangle\) -->
     <defs>
      <path d="M 43.296875 15.6875 
L 53 15.6875 
L 53 20 
L 43.296875 20 
L 43.296875 63.09375 
C 43.296875 65.59375 43.203125 66 40.703125 66 
C 38.90625 66 38.703125 66 37.5 64.484375 
L 3.09375 20 
L 3.09375 15.6875 
L 31.5 15.6875 
L 31.5 4.296875 
L 20.59375 4.296875 
L 20.59375 0 
C 23.5 0.1875 33.40625 0.1875 37 0.1875 
C 40.40625 0.1875 50.296875 0.1875 53 0 
L 53 4.296875 
L 43.296875 4.296875 
z
M 32.40625 51.9375 
L 32.40625 20 
L 7.703125 20 
z
" id="CMBX12-52"/>
     </defs>
     <g transform="translate(765.036067 167.954174)rotate(-90)scale(0.14 -0.14)">
      <use transform="translate(0 14.943915)scale(0.996264)" xlink:href="#CMSY10-104"/>
      <use transform="translate(38.743734 14.943915)scale(0.996264)" xlink:href="#CMMIB10-80"/>
      <use transform="translate(110.782411 0)scale(0.697382)" xlink:href="#CMBX12-52"/>
      <use transform="translate(150.508256 14.943915)scale(0.996264)" xlink:href="#CMSY10-105"/>
     </g>
    </g>
   </g>
   <g id="patch_13">
    <path d="M 788.8 222.3 
L 788.8 86.4 
" style="fill:none;stroke:#000000;stroke-linecap:square;stroke-linejoin:miter;stroke-width:0.8;"/>
   </g>
   <g id="patch_14">
    <path d="M 1036.8 222.3 
L 1036.8 86.4 
" style="fill:none;stroke:#000000;stroke-linecap:square;stroke-linejoin:miter;stroke-width:0.8;"/>
   </g>
   <g id="patch_15">
    <path d="M 788.8 222.3 
L 1036.8 222.3 
" style="fill:none;stroke:#000000;stroke-linecap:square;stroke-linejoin:miter;stroke-width:0.8;"/>
   </g>
   <g id="patch_16">
    <path d="M 788.8 86.4 
L 1036.8 86.4 
" style="fill:none;stroke:#000000;stroke-linecap:square;stroke-linejoin:miter;stroke-width:0.8;"/>
   </g>
   <g id="text_21">
    <!-- \(\chi^2 = 1.05 \) -->
    <g transform="translate(884.439509 80.4)scale(0.14 -0.14)">
     <use transform="scale(0.996264)" xlink:href="#CMMI12-31"/>
     <use transform="translate(61.112959 36.153639)scale(0.697382)" xlink:href="#CMR17-50"/>
     <use transform="translate(121.268282 0)scale(0.996264)" xlink:href="#CMR17-61"/>
     <use transform="translate(220.657079 0)scale(0.996264)" xlink:href="#CMR17-49"/>
     <use transform="translate(266.347556 0)scale(0.996264)" xlink:href="#CMMI12-58"/>
     <use transform="translate(293.444733 0)scale(0.996264)" xlink:href="#CMR17-48"/>
     <use transform="translate(339.13521 0)scale(0.996264)" xlink:href="#CMR17-53"/>
    </g>
   </g>
  </g>
  <g id="axes_4">
   <g id="patch_17">
    <path d="M 144 426.15 
L 392 426.15 
L 392 290.25 
L 144 290.25 
z
" style="fill:#ffffff;"/>
   </g>
   <g id="PatchCollection_7">
    <path clip-path="url(#p6b2d7c680c)" d="M 145.305263 317.904919 
L 156.791579 317.904919 
L 156.791579 299.468306 
L 145.305263 299.468306 
z
" style="fill:#ffa500;"/>
    <path clip-path="url(#p6b2d7c680c)" d="M 158.357895 346.333395 
L 176.631579 346.333395 
L 176.631579 330.530585 
L 158.357895 330.530585 
z
" style="fill:#ffa500;"/>
    <path clip-path="url(#p6b2d7c680c)" d="M 176.631579 387.007797 
L 196.210526 387.007797 
L 196.210526 371.204986 
L 176.631579 371.204986 
z
" style="fill:#ffa500;"/>
    <path clip-path="url(#p6b2d7c680c)" d="M 196.210526 413.569805 
L 222.315789 413.569805 
L 222.315789 403.034598 
L 196.210526 403.034598 
z
" style="fill:#ffa500;"/>
    <path clip-path="url(#p6b2d7c680c)" d="M 222.315789 420.882396 
L 248.421053 420.882396 
L 248.421053 410.347189 
L 222.315789 410.347189 
z
" style="fill:#ffa500;"/>
    <path clip-path="url(#p6b2d7c680c)" d="M 339.789474 401.213371 
L 392 401.213371 
L 392 394.628866 
L 339.789474 394.628866 
z
" style="fill:#ffa500;"/>
   </g>
   <g id="PatchCollection_8">
    <path clip-path="url(#p6b2d7c680c)" d="M 145.305263 334.001851 
L 156.791579 334.001851 
L 156.791579 315.565239 
L 145.305263 315.565239 
z
" style="fill:#0000ff;"/>
    <path clip-path="url(#p6b2d7c680c)" d="M 158.357895 342.561707 
L 176.631579 342.561707 
L 176.631579 326.758896 
L 158.357895 326.758896 
z
" style="fill:#0000ff;"/>
    <path clip-path="url(#p6b2d7c680c)" d="M 176.631579 376.80113 
L 196.210526 376.80113 
L 196.210526 360.998319 
L 176.631579 360.998319 
z
" style="fill:#0000ff;"/>
    <path clip-path="url(#p6b2d7c680c)" d="M 196.210526 393.262391 
L 222.315789 393.262391 
L 222.315789 382.727184 
L 196.210526 382.727184 
z
" style="fill:#0000ff;"/>
    <path clip-path="url(#p6b2d7c680c)" d="M 222.315789 402.480697 
L 248.421053 402.480697 
L 248.421053 391.94549 
L 222.315789 391.94549 
z
" style="fill:#0000ff;"/>
    <path clip-path="url(#p6b2d7c680c)" d="M 339.789474 406.4314 
L 392 406.4314 
L 392 399.846895 
L 339.789474 399.846895 
z
" style="fill:#0000ff;"/>
   </g>
   <g id="matplotlib.axis_7">
    <g id="xtick_7">
     <g id="line2d_13">
      <g>
       <use style="stroke:#000000;stroke-width:0.8;" x="144" xlink:href="#m9ac3429f98" y="426.15"/>
      </g>
     </g>
     <g id="text_22">
      <!-- $0$ -->
      <g transform="translate(138.974048 448.370693)scale(0.22 -0.22)">
       <use transform="scale(0.996264)" xlink:href="#CMR17-48"/>
      </g>
     </g>
    </g>
    <g id="xtick_8">
     <g id="line2d_14">
      <g>
       <use style="stroke:#000000;stroke-width:0.8;" x="274.526316" xlink:href="#m9ac3429f98" y="426.15"/>
      </g>
     </g>
     <g id="text_23">
      <!-- $10$ -->
      <g transform="translate(264.474411 448.370693)scale(0.22 -0.22)">
       <use transform="scale(0.996264)" xlink:href="#CMR17-49"/>
       <use transform="translate(45.690477 0)scale(0.996264)" xlink:href="#CMR17-48"/>
      </g>
     </g>
    </g>
    <g id="text_24">
     <!-- \(\boldsymbol{q^2(GeV^2)}\) -->
     <g transform="translate(235.030572 467.987317)scale(0.14 -0.14)">
      <use transform="scale(0.996264)" xlink:href="#CMMIB10-113"/>
      <use transform="translate(57.700068 36.153639)scale(0.697382)" xlink:href="#CMBX12-50"/>
      <use transform="translate(97.425913 0)scale(0.996264)" xlink:href="#CMBX12-40"/>
      <use transform="translate(141.012463 0)scale(0.996264)" xlink:href="#CMMIB10-71"/>
      <use transform="translate(229.354383 0)scale(0.996264)" xlink:href="#CMMIB10-101"/>
      <use transform="translate(284.508441 0)scale(0.996264)" xlink:href="#CMMIB10-86"/>
      <use transform="translate(377.492697 36.153639)scale(0.697382)" xlink:href="#CMBX12-50"/>
      <use transform="translate(417.218542 0)scale(0.996264)" xlink:href="#CMBX12-41"/>
     </g>
    </g>
   </g>
   <g id="matplotlib.axis_8">
    <g id="ytick_7">
     <g id="line2d_15">
      <g>
       <use style="stroke:#000000;stroke-width:0.8;" x="144" xlink:href="#m582d9eab9d" y="424.868012"/>
      </g>
     </g>
     <g id="text_25">
      <!-- $-1$ -->
      <g transform="translate(109.900862 432.478359)scale(0.22 -0.22)">
       <use transform="scale(0.996264)" xlink:href="#CMSY10-0"/>
       <use transform="translate(77.487468 0)scale(0.996264)" xlink:href="#CMR17-49"/>
      </g>
     </g>
    </g>
    <g id="ytick_8">
     <g id="line2d_16">
      <g>
       <use style="stroke:#000000;stroke-width:0.8;" x="144" xlink:href="#m582d9eab9d" y="359.022968"/>
      </g>
     </g>
     <g id="text_26">
      <!-- $0$ -->
      <g transform="translate(126.948095 366.633315)scale(0.22 -0.22)">
       <use transform="scale(0.996264)" xlink:href="#CMR17-48"/>
      </g>
     </g>
    </g>
    <g id="ytick_9">
     <g id="line2d_17">
      <g>
       <use style="stroke:#000000;stroke-width:0.8;" x="144" xlink:href="#m582d9eab9d" y="293.177924"/>
      </g>
     </g>
     <g id="text_27">
      <!-- $1$ -->
      <g transform="translate(126.948095 300.78827)scale(0.22 -0.22)">
       <use transform="scale(0.996264)" xlink:href="#CMR17-49"/>
      </g>
     </g>
    </g>
    <g id="text_28">
     <!-- \(\langle \boldsymbol{{P_5}} \rangle\) -->
     <defs>
      <path d="M 15.40625 52.484375 
C 18.796875 51.6875 21.5 51.6875 23 51.6875 
C 25.40625 51.6875 31.09375 51.6875 37.796875 55.796875 
C 40.90625 57.6875 46.09375 62.1875 46.09375 64.296875 
C 46.09375 64.796875 46.09375 66 44.90625 66 
C 44.796875 66 44.59375 66 43.59375 65.484375 
C 39 63.90625 34.09375 63 28.5 63 
C 22.796875 63 18 63.90625 13.296875 65.59375 
C 12.59375 65.796875 12.296875 66 12 66 
C 10.796875 66 10.796875 64.984375 10.796875 63.40625 
L 10.796875 34.046875 
C 10.796875 32.109375 10.796875 31 12.796875 31 
C 13.796875 31 14 31.109375 14.796875 32.109375 
C 16 33.53125 19.59375 38 28.09375 38 
C 37.296875 38 37.296875 28.46875 37.296875 20.5 
C 37.296875 13.296875 37.296875 3 25 3 
C 21.296875 3 15 4.375 11.59375 10 
C 16.90625 10 18.203125 14 18.203125 16.1875 
C 18.203125 19.796875 15.59375 22.5 11.90625 22.5 
C 8.90625 22.5 5.59375 20.6875 5.59375 16 
C 5.59375 7.328125 13.5 -1 25.40625 -1 
C 40.796875 -1 50.5 7.828125 50.5 20.1875 
C 50.5 32.515625 42.203125 41.296875 28.5 41.296875 
C 24.5 41.296875 19.703125 40.5 15.40625 37.28125 
z
" id="CMBX12-53"/>
     </defs>
     <g transform="translate(103.188834 371.804174)rotate(-90)scale(0.14 -0.14)">
      <use transform="translate(0 14.943915)scale(0.996264)" xlink:href="#CMSY10-104"/>
      <use transform="translate(38.743734 14.943915)scale(0.996264)" xlink:href="#CMMIB10-80"/>
      <use transform="translate(110.782411 0)scale(0.697382)" xlink:href="#CMBX12-53"/>
      <use transform="translate(150.508256 14.943915)scale(0.996264)" xlink:href="#CMSY10-105"/>
     </g>
    </g>
   </g>
   <g id="patch_18">
    <path d="M 144 426.15 
L 144 290.25 
" style="fill:none;stroke:#000000;stroke-linecap:square;stroke-linejoin:miter;stroke-width:0.8;"/>
   </g>
   <g id="patch_19">
    <path d="M 392 426.15 
L 392 290.25 
" style="fill:none;stroke:#000000;stroke-linecap:square;stroke-linejoin:miter;stroke-width:0.8;"/>
   </g>
   <g id="patch_20">
    <path d="M 144 426.15 
L 392 426.15 
" style="fill:none;stroke:#000000;stroke-linecap:square;stroke-linejoin:miter;stroke-width:0.8;"/>
   </g>
   <g id="patch_21">
    <path d="M 144 290.25 
L 392 290.25 
" style="fill:none;stroke:#000000;stroke-linecap:square;stroke-linejoin:miter;stroke-width:0.8;"/>
   </g>
   <g id="text_29">
    <!-- \(\chi^2 = 3.44 \) -->
    <defs>
     <path d="M 22.09375 34 
C 31 34 34.90625 26.140625 34.90625 17.09375 
C 34.90625 5.03125 28.5 0.390625 22.703125 0.390625 
C 17.40625 0.390625 8.796875 3.015625 6.09375 10.796875 
C 6.59375 10.59375 7.09375 10.59375 7.59375 10.59375 
C 10 10.59375 11.796875 12.1875 11.796875 14.796875 
C 11.796875 17.6875 9.59375 19 7.59375 19 
C 5.90625 19 3.296875 18.1875 3.296875 14.484375 
C 3.296875 5.234375 12.296875 -2 22.90625 -2 
C 34 -2 42.5 6.75 42.5 16.984375 
C 42.5 26.84375 34.5 34 25 35.09375 
C 32.59375 36.671875 39.90625 43.375 39.90625 52.390625 
C 39.90625 60.25 32 66 23 66 
C 13.90625 66 5.90625 60.34375 5.90625 52.296875 
C 5.90625 48.796875 8.5 48.1875 9.796875 48.1875 
C 11.90625 48.1875 13.703125 49.484375 13.703125 52.09375 
C 13.703125 54.6875 11.90625 56 9.796875 56 
C 9.40625 56 8.90625 56 8.5 55.796875 
C 11.40625 62.484375 19.296875 63.6875 22.796875 63.6875 
C 26.296875 63.6875 32.90625 61.96875 32.90625 52.296875 
C 32.90625 49.484375 32.5 44.546875 29.09375 40.21875 
C 26.09375 36.390625 22.703125 36.1875 19.40625 35.890625 
C 18.90625 35.890625 16.59375 35.6875 16.203125 35.6875 
C 15.5 35.59375 15.09375 35.5 15.09375 34.796875 
C 15.09375 34.09375 15.203125 34 17.203125 34 
z
" id="CMR17-51"/>
     <path d="M 33.59375 64.796875 
C 33.59375 66.890625 33.5 67 31.703125 67 
L 2 19.59375 
L 2 17 
L 27.796875 17 
L 27.796875 7.1875 
C 27.796875 3.59375 27.59375 2.59375 20.59375 2.59375 
L 18.703125 2.59375 
L 18.703125 0 
C 21.90625 0.1875 27.296875 0.1875 30.703125 0.1875 
C 34.09375 0.1875 39.5 0.1875 42.703125 0 
L 42.703125 2.59375 
L 40.796875 2.59375 
C 33.796875 2.59375 33.59375 3.59375 33.59375 7.1875 
L 33.59375 17 
L 43.796875 17 
L 43.796875 19.59375 
L 33.59375 19.59375 
z
M 28.09375 58.171875 
L 28.09375 19.59375 
L 4 19.59375 
z
" id="CMR17-52"/>
    </defs>
    <g transform="translate(239.639509 284.25)scale(0.14 -0.14)">
     <use transform="scale(0.996264)" xlink:href="#CMMI12-31"/>
     <use transform="translate(61.112959 36.153639)scale(0.697382)" xlink:href="#CMR17-50"/>
     <use transform="translate(121.268282 0)scale(0.996264)" xlink:href="#CMR17-61"/>
     <use transform="translate(220.657079 0)scale(0.996264)" xlink:href="#CMR17-51"/>
     <use transform="translate(266.347556 0)scale(0.996264)" xlink:href="#CMMI12-58"/>
     <use transform="translate(293.444733 0)scale(0.996264)" xlink:href="#CMR17-52"/>
     <use transform="translate(339.13521 0)scale(0.996264)" xlink:href="#CMR17-52"/>
    </g>
   </g>
  </g>
  <g id="axes_5">
   <g id="patch_22">
    <path d="M 466.4 426.15 
L 714.4 426.15 
L 714.4 290.25 
L 466.4 290.25 
z
" style="fill:#ffffff;"/>
   </g>
   <g id="PatchCollection_9">
    <path clip-path="url(#p2952911f08)" d="M 467.527273 387.942143 
L 477.447273 387.942143 
L 477.447273 326.233613 
L 467.527273 326.233613 
z
" style="fill:#ffa500;"/>
    <path clip-path="url(#p2952911f08)" d="M 478.8 385.429912 
L 494.581818 385.429912 
L 494.581818 359.843448 
L 478.8 359.843448 
z
" style="fill:#ffa500;"/>
    <path clip-path="url(#p2952911f08)" d="M 494.581818 388.737195 
L 511.490909 388.737195 
L 511.490909 356.377844 
L 494.581818 356.377844 
z
" style="fill:#ffa500;"/>
    <path clip-path="url(#p2952911f08)" d="M 511.490909 386.687796 
L 534.036364 386.687796 
L 534.036364 338.525041 
L 511.490909 338.525041 
z
" style="fill:#ffa500;"/>
    <path clip-path="url(#p2952911f08)" d="M 534.036364 393.414377 
L 556.581818 393.414377 
L 556.581818 327.943132 
L 534.036364 327.943132 
z
" style="fill:#ffa500;"/>
    <path clip-path="url(#p2952911f08)" d="M 635.490909 331.684865 
L 714.4 331.684865 
L 714.4 315.881461 
L 635.490909 315.881461 
z
" style="fill:#ffa500;"/>
   </g>
   <g id="PatchCollection_10">
    <path clip-path="url(#p2952911f08)" d="M 467.527273 385.446696 
L 477.447273 385.446696 
L 477.447273 323.738166 
L 467.527273 323.738166 
z
" style="fill:#0000ff;"/>
    <path clip-path="url(#p2952911f08)" d="M 478.8 383.565339 
L 494.581818 383.565339 
L 494.581818 357.978875 
L 478.8 357.978875 
z
" style="fill:#0000ff;"/>
    <path clip-path="url(#p2952911f08)" d="M 494.581818 385.446696 
L 511.490909 385.446696 
L 511.490909 353.087345 
L 494.581818 353.087345 
z
" style="fill:#0000ff;"/>
    <path clip-path="url(#p2952911f08)" d="M 511.490909 385.446696 
L 534.036364 385.446696 
L 534.036364 337.283941 
L 511.490909 337.283941 
z
" style="fill:#0000ff;"/>
    <path clip-path="url(#p2952911f08)" d="M 534.036364 388.456868 
L 556.581818 388.456868 
L 556.581818 322.985623 
L 534.036364 322.985623 
z
" style="fill:#0000ff;"/>
    <path clip-path="url(#p2952911f08)" d="M 635.490909 330.511053 
L 714.4 330.511053 
L 714.4 314.707649 
L 635.490909 314.707649 
z
" style="fill:#0000ff;"/>
   </g>
   <g id="matplotlib.axis_9">
    <g id="xtick_9">
     <g id="line2d_18">
      <g>
       <use style="stroke:#000000;stroke-width:0.8;" x="466.4" xlink:href="#m9ac3429f98" y="426.15"/>
      </g>
     </g>
     <g id="text_30">
      <!-- $0$ -->
      <g transform="translate(461.374048 448.370693)scale(0.22 -0.22)">
       <use transform="scale(0.996264)" xlink:href="#CMR17-48"/>
      </g>
     </g>
    </g>
    <g id="xtick_10">
     <g id="line2d_19">
      <g>
       <use style="stroke:#000000;stroke-width:0.8;" x="579.127273" xlink:href="#m9ac3429f98" y="426.15"/>
      </g>
     </g>
     <g id="text_31">
      <!-- $10$ -->
      <g transform="translate(569.075368 448.370693)scale(0.22 -0.22)">
       <use transform="scale(0.996264)" xlink:href="#CMR17-49"/>
       <use transform="translate(45.690477 0)scale(0.996264)" xlink:href="#CMR17-48"/>
      </g>
     </g>
    </g>
    <g id="xtick_11">
     <g id="line2d_20">
      <g>
       <use style="stroke:#000000;stroke-width:0.8;" x="691.854545" xlink:href="#m9ac3429f98" y="426.15"/>
      </g>
     </g>
     <g id="text_32">
      <!-- $20$ -->
      <g transform="translate(681.80264 448.370693)scale(0.22 -0.22)">
       <use transform="scale(0.996264)" xlink:href="#CMR17-50"/>
       <use transform="translate(45.690477 0)scale(0.996264)" xlink:href="#CMR17-48"/>
      </g>
     </g>
    </g>
    <g id="text_33">
     <!-- \(\boldsymbol{q^2(GeV^2)}\) -->
     <g transform="translate(557.430572 467.987317)scale(0.14 -0.14)">
      <use transform="scale(0.996264)" xlink:href="#CMMIB10-113"/>
      <use transform="translate(57.700068 36.153639)scale(0.697382)" xlink:href="#CMBX12-50"/>
      <use transform="translate(97.425913 0)scale(0.996264)" xlink:href="#CMBX12-40"/>
      <use transform="translate(141.012463 0)scale(0.996264)" xlink:href="#CMMIB10-71"/>
      <use transform="translate(229.354383 0)scale(0.996264)" xlink:href="#CMMIB10-101"/>
      <use transform="translate(284.508441 0)scale(0.996264)" xlink:href="#CMMIB10-86"/>
      <use transform="translate(377.492697 36.153639)scale(0.697382)" xlink:href="#CMBX12-50"/>
      <use transform="translate(417.218542 0)scale(0.996264)" xlink:href="#CMBX12-41"/>
     </g>
    </g>
   </g>
   <g id="matplotlib.axis_10">
    <g id="ytick_10">
     <g id="line2d_21">
      <g>
       <use style="stroke:#000000;stroke-width:0.8;" x="466.4" xlink:href="#m582d9eab9d" y="388.080597"/>
      </g>
     </g>
     <g id="text_34">
      <!-- $0$ -->
      <g transform="translate(449.348095 395.690944)scale(0.22 -0.22)">
       <use transform="scale(0.996264)" xlink:href="#CMR17-48"/>
      </g>
     </g>
    </g>
    <g id="ytick_11">
     <g id="line2d_22">
      <g>
       <use style="stroke:#000000;stroke-width:0.8;" x="466.4" xlink:href="#m582d9eab9d" y="312.826292"/>
      </g>
     </g>
     <g id="text_35">
      <!-- $2$ -->
      <g transform="translate(449.348095 320.436638)scale(0.22 -0.22)">
       <use transform="scale(0.996264)" xlink:href="#CMR17-50"/>
      </g>
     </g>
    </g>
    <g id="text_36">
     <!-- \(\langle \boldsymbol{{\mathcal{B}(B^0\rightarrow K^{*0}\mu\mu)}} \rangle\) -->
     <defs>
      <path d="M 31.40625 34.390625 
C 31.40625 33.09375 32.703125 33.09375 33.203125 33.09375 
C 34.203125 33.09375 36.09375 33.59375 39.09375 33.59375 
C 49.5 33.59375 58.5 28.59375 58.5 19.296875 
C 58.5 15 56.703125 11.296875 54.59375 9.5 
C 52.203125 7.6875 46.90625 6.6875 43.40625 6.6875 
C 40.59375 6.6875 35.59375 7.09375 30.90625 10.296875 
C 30 10.796875 29.90625 10.890625 29.09375 10.890625 
C 25.09375 10.890625 18 6.09375 18 3.5 
C 18 3 18 2.6875 20.296875 1.296875 
C 25.796875 -2 31.296875 -2 33.203125 -2 
C 50.296875 -2 71.5 9.6875 71.5 25.5 
C 71.5 34.890625 63.796875 39.796875 56.5 41.59375 
C 68.296875 48.390625 74 54.296875 74 60.796875 
C 74 66.984375 68.5 71 61.296875 71 
C 49.59375 71 37.5 63.296875 31.09375 56.796875 
C 31.703125 60 32.703125 68.09375 32.703125 68.59375 
C 32.703125 69.59375 31.796875 70 30.90625 70 
C 28.90625 70 26.5 68.796875 24.59375 67.796875 
C 21.703125 66.390625 16.09375 63.59375 14.5 62.703125 
C 11.703125 61.203125 8.796875 58.703125 8.796875 57.09375 
C 8.796875 56.09375 9.703125 55.796875 10.5 55.796875 
C 12.5 55.796875 13.40625 56.203125 19.296875 59.09375 
C 18.703125 54.5 17.296875 42.796875 14.09375 27.890625 
C 12 18.796875 10.296875 11 5.296875 2.296875 
C 3.90625 -0.109375 3.90625 -0.3125 3.90625 -0.703125 
C 3.90625 -1.703125 4.796875 -2 5.703125 -2 
C 8.5 -2 13.796875 0.796875 16 3.59375 
C 16.59375 4.296875 21.703125 12.5 24.59375 23.5 
C 26.09375 29.296875 29.296875 41.296875 36.796875 51.890625 
C 41.203125 58.09375 45.5 61.5 51.203125 61.5 
C 55.296875 61.5 61 59.59375 61 53.703125 
C 61 49.890625 59.09375 48.890625 56.796875 47.6875 
C 52.90625 45.6875 46.40625 43.390625 42.90625 42.296875 
C 38.59375 40.796875 37.296875 40.390625 34.90625 38.6875 
C 32.59375 37 31.40625 35.390625 31.40625 34.390625 
z
" id="CMBSY10-66"/>
      <path d="M 16.296875 6.703125 
C 15.90625 5.09375 15.796875 5 14 4.796875 
C 12.296875 4.6875 10.296875 4.6875 8.703125 4.6875 
C 6.09375 4.6875 5.90625 4.6875 5.5 4.5 
C 4.296875 3.796875 4.296875 2.1875 4.296875 1.796875 
C 4.296875 0 6.09375 0 7.703125 0 
L 50.09375 0 
C 71 0 80.40625 13.21875 80.40625 22.15625 
C 80.40625 30.78125 72.90625 35.09375 63.703125 35.890625 
C 79.703125 38.8125 85.40625 48.21875 85.40625 54.984375 
C 85.40625 63.28125 78.203125 69 64.09375 69 
L 24 69 
C 22 69 20.296875 69 20.296875 66.09375 
C 20.296875 64.296875 21.59375 64.296875 24.5 64.296875 
C 26.59375 64.296875 28.5 64.1875 30.59375 64.09375 
z
M 43.09375 62.46875 
C 43.5 63.984375 43.59375 64.09375 44.203125 64.1875 
C 45.09375 64.296875 45.796875 64.296875 46.90625 64.296875 
L 61.796875 64.296875 
C 63.796875 64.296875 71.90625 64.296875 71.90625 55.5 
C 71.90625 48.40625 66.296875 37.59375 52.703125 37.59375 
L 36.90625 37.59375 
z
M 31.203125 4.6875 
C 29.703125 4.6875 29.5 4.6875 28.796875 4.796875 
L 36 34 
L 55.5 34 
C 58.09375 34 66.5 34 66.5 23.75 
C 66.5 16.03125 61.40625 4.6875 47.203125 4.6875 
z
" id="CMMIB10-66"/>
      <path d="M 51.703125 32.1875 
C 51.703125 41.828125 51.703125 66 28.09375 66 
C 4.40625 66 4.40625 41.921875 4.40625 32.1875 
C 4.40625 22.5625 4.40625 -1 28 -1 
C 51.59375 -1 51.703125 22.25 51.703125 32.1875 
z
M 28.09375 2.296875 
C 24.90625 2.296875 22.5 3.59375 20.5 5.703125 
C 18 8.21875 16.40625 9.8125 16.40625 33.390625 
C 16.40625 40.421875 16.40625 46.84375 17.203125 52.046875 
C 18.59375 61.984375 25.796875 62.6875 28 62.6875 
C 31.203125 62.6875 37.40625 61.1875 38.796875 52.75 
C 39.703125 47.640625 39.703125 39.515625 39.703125 33.390625 
C 39.703125 9.71875 38.203125 8.3125 35.203125 5.296875 
C 33.203125 3.296875 30.5 2.296875 28.09375 2.296875 
z
" id="CMBX12-48"/>
      <path d="M 91.40625 22 
C 87.09375 18.484375 84.796875 15.296875 83.296875 12.984375 
C 79.203125 6.6875 78.09375 0.390625 78.09375 0.09375 
C 78.09375 -1.703125 79.796875 -1.703125 81.203125 -1.703125 
C 82.90625 -1.703125 83.796875 -1.703125 84.203125 -0.203125 
C 85.09375 3.296875 86.296875 8.296875 91.40625 13.984375 
C 97.203125 20.484375 103.796875 22.390625 106.09375 23.09375 
C 107.5 23.5 108.5 23.6875 108.5 25 
C 108.5 25.890625 107.90625 26.59375 107.203125 26.796875 
C 103.296875 27.890625 98.09375 29.296875 92.296875 35.1875 
C 86.5 41 85 47.1875 84.296875 49.890625 
C 83.796875 51.796875 83.203125 51.796875 81.203125 51.796875 
C 79.796875 51.796875 78.09375 51.796875 78.09375 50 
C 78.09375 49.890625 79 43.59375 83.296875 37 
C 85.5 33.6875 88.203125 30.6875 91.40625 28.09375 
L 10.90625 28.09375 
C 9.296875 28.09375 6.40625 28.09375 6.40625 25.09375 
C 6.40625 22 9.203125 22 10.90625 22 
z
" id="CMBSY10-33"/>
      <path d="M 58.90625 42.25 
C 65.59375 46.984375 83.90625 59.96875 87.40625 61.78125 
C 89.703125 62.984375 91.796875 64.09375 96.90625 64.296875 
C 98.703125 64.390625 100.296875 64.390625 100.296875 67.1875 
C 100.296875 68.09375 99.5 69 98.5 69 
C 96 69 93.09375 68.6875 90.5 68.6875 
C 86.40625 68.6875 82.09375 69 78 69 
C 77.203125 69 75.203125 69 75.203125 66.09375 
C 75.203125 64.296875 77 64.296875 77.59375 64.296875 
C 78.40625 64.296875 80.5 64.1875 82.203125 63.59375 
L 36.59375 31.875 
L 44.5 63.890625 
C 46.703125 64.296875 50.203125 64.296875 51.296875 64.296875 
C 52.59375 64.296875 54.59375 64.296875 55 64.59375 
C 56 65.296875 56.09375 67.09375 56.09375 67.1875 
C 56.09375 68.484375 55.09375 69 53.90625 69 
C 51.40625 69 48.796875 68.796875 46.296875 68.796875 
C 43.796875 68.796875 41.296875 68.6875 38.796875 68.6875 
C 36.203125 68.6875 33.59375 68.796875 31.09375 68.796875 
C 28.5 68.796875 25.796875 69 23.203125 69 
C 22.296875 69 20.296875 69 20.296875 66.09375 
C 20.296875 64.296875 21.59375 64.296875 24.5 64.296875 
C 26.59375 64.296875 28.5 64.1875 30.59375 64.09375 
L 16.296875 6.703125 
C 15.90625 5.09375 15.796875 5 14 4.796875 
C 12.296875 4.6875 10.296875 4.6875 8.703125 4.6875 
C 6.09375 4.6875 5.90625 4.6875 5.5 4.5 
C 4.296875 3.796875 4.296875 2.1875 4.296875 1.796875 
C 4.296875 1.59375 4.40625 0 6.5 0 
C 9 0 11.59375 0.1875 14.09375 0.1875 
C 16.59375 0.1875 19.203125 0.296875 21.703125 0.296875 
C 24.296875 0.296875 26.90625 0.1875 29.40625 0.1875 
C 32 0.1875 34.703125 0 37.203125 0 
C 38.203125 0 38.90625 0 39.5 0.6875 
C 39.90625 1.296875 40.09375 2.6875 40.09375 2.890625 
C 40.09375 4.6875 38.703125 4.6875 36 4.6875 
C 33.90625 4.6875 32 4.796875 29.90625 4.890625 
L 35.09375 25.828125 
L 47.5 34.390625 
L 62.40625 5.296875 
C 60.40625 4.6875 57.40625 4.6875 57 4.6875 
C 55.703125 4.6875 55.09375 4.6875 54.5 4 
C 54.09375 3.5 53.90625 2 53.90625 1.796875 
C 53.90625 1.6875 53.90625 0 56 0 
C 59.296875 0 67.5 0.296875 70.796875 0.296875 
C 72.90625 0.296875 75.09375 0.1875 77.203125 0.1875 
C 79.203125 0.1875 81.296875 0 83.203125 0 
C 83.90625 0 85.90625 0 85.90625 2.890625 
C 85.90625 4.6875 84.203125 4.6875 82.703125 4.6875 
C 78.09375 4.6875 77.90625 5.09375 77.09375 6.703125 
z
" id="CMMIB10-75"/>
      <path d="M 30.59375 21.765625 
L 42 13.421875 
C 44.296875 11.546875 44.5 11.546875 45.703125 11.546875 
C 48.203125 11.546875 50 14.03125 50 16.109375 
C 50 17.40625 49.40625 18.796875 48 19.484375 
C 47.203125 19.984375 46 20.171875 33 24.9375 
C 45.90625 29.703125 47.203125 29.90625 48 30.40625 
C 49.40625 31 50 32.390625 50 33.78125 
C 50 35.859375 48.203125 38.34375 45.703125 38.34375 
C 44.59375 38.34375 44.40625 38.34375 42.203125 36.65625 
L 30.59375 28.125 
C 31 30.703125 33 42.21875 33 43.203125 
C 33 45.796875 30.5 47 28.703125 47 
C 26.90625 47 24.40625 45.796875 24.40625 43.203125 
C 24.40625 42.21875 26.5 30.203125 26.796875 28.125 
L 15.40625 36.453125 
C 13.09375 38.34375 12.90625 38.34375 11.703125 38.34375 
C 9.203125 38.34375 7.40625 35.859375 7.40625 33.78125 
C 7.40625 32.484375 8 31.09375 9.40625 30.40625 
C 10.203125 29.90625 11.40625 29.703125 24.40625 24.9375 
C 11.5 20.171875 10.203125 19.984375 9.40625 19.484375 
C 8 18.890625 7.40625 17.5 7.40625 16.109375 
C 7.40625 14.03125 9.203125 11.546875 11.703125 11.546875 
C 12.796875 11.546875 13 11.546875 15.203125 13.234375 
L 26.796875 21.765625 
C 26.296875 18.890625 24.40625 7.671875 24.40625 6.671875 
C 24.40625 4.09375 26.90625 2.890625 28.703125 2.890625 
C 30.5 2.890625 33 4.09375 33 6.671875 
C 33 7.671875 30.90625 19.984375 30.59375 21.765625 
z
" id="CMBSY10-3"/>
      <path d="M 27.5 33 
C 28.09375 35.59375 29.203125 39.890625 29.203125 40.59375 
C 29.203125 42.6875 27.59375 45 24.5 45 
C 19.296875 45 18 40 17.703125 38.796875 
L 4.40625 -14.15625 
C 4 -15.75 4 -16.34375 4 -16.734375 
C 4 -19.90625 6.59375 -21.109375 8.703125 -21.109375 
C 10.59375 -21.109375 13.296875 -20.015625 14.703125 -17.234375 
C 15.296875 -16.046875 18.59375 -2.484375 19.296875 0.59375 
C 23.40625 -1 27.90625 -1 29.203125 -1 
C 32.59375 -1 37.203125 -0.40625 43.203125 5 
C 45.59375 0.390625 51.203125 -1 54.90625 -1 
C 58.59375 -1 61.5 1.09375 63.59375 4.6875 
C 66.09375 8.6875 67.40625 14.09375 67.40625 14.59375 
C 67.40625 16 65.90625 16 65 16 
C 63.90625 16 63.5 16 63 15.5 
C 62.796875 15.296875 62.796875 15.09375 62.203125 12.59375 
C 60.203125 4.59375 57.90625 2.59375 55.40625 2.59375 
C 54.296875 2.59375 53.09375 3 53.09375 6.296875 
C 53.09375 8 53.5 9.59375 54.5 13.59375 
L 57.09375 23.796875 
C 57.59375 26 58.59375 30.09375 59.296875 32.796875 
C 59.90625 35.09375 60.90625 39.09375 60.90625 39.796875 
C 60.90625 41.890625 59.296875 44.1875 56.203125 44.1875 
C 54.203125 44.1875 50.703125 42.984375 49.59375 38.890625 
L 42.703125 11.1875 
C 42.296875 9.390625 40.59375 7.6875 38.796875 6.1875 
C 35.59375 3.5 32.59375 2.59375 29.90625 2.59375 
C 23.09375 2.59375 22.5 7.5 22.5 10.5 
C 22.5 13.1875 23.09375 15.59375 23.5 17.390625 
z
" id="CMMIB10-22"/>
     </defs>
     <g transform="translate(441.861171 420.558927)rotate(-90)scale(0.14 -0.14)">
      <use transform="scale(0.996264)" xlink:href="#CMSY10-104"/>
      <use transform="translate(38.743734 0)scale(0.996264)" xlink:href="#CMBSY10-66"/>
      <use transform="translate(115.49124 0)scale(0.996264)" xlink:href="#CMBX12-40"/>
      <use transform="translate(159.07779 0)scale(0.996264)" xlink:href="#CMMIB10-66"/>
      <use transform="translate(250.211411 36.153639)scale(0.697382)" xlink:href="#CMBX12-48"/>
      <use transform="translate(321.762188 0)scale(0.996264)" xlink:href="#CMBSY10-33"/>
      <use transform="translate(468.156872 0)scale(0.996264)" xlink:href="#CMMIB10-75"/>
      <use transform="translate(571.864754 36.153639)scale(0.697382)" xlink:href="#CMBSY10-3"/>
      <use transform="translate(611.963985 36.153639)scale(0.697382)" xlink:href="#CMBX12-48"/>
      <use transform="translate(651.68983 0)scale(0.996264)" xlink:href="#CMMIB10-22"/>
      <use transform="translate(722.212221 0)scale(0.996264)" xlink:href="#CMMIB10-22"/>
      <use transform="translate(792.734612 0)scale(0.996264)" xlink:href="#CMBX12-41"/>
      <use transform="translate(836.321163 0)scale(0.996264)" xlink:href="#CMSY10-105"/>
     </g>
    </g>
   </g>
   <g id="patch_23">
    <path d="M 466.4 426.15 
L 466.4 290.25 
" style="fill:none;stroke:#000000;stroke-linecap:square;stroke-linejoin:miter;stroke-width:0.8;"/>
   </g>
   <g id="patch_24">
    <path d="M 714.4 426.15 
L 714.4 290.25 
" style="fill:none;stroke:#000000;stroke-linecap:square;stroke-linejoin:miter;stroke-width:0.8;"/>
   </g>
   <g id="patch_25">
    <path d="M 466.4 426.15 
L 714.4 426.15 
" style="fill:none;stroke:#000000;stroke-linecap:square;stroke-linejoin:miter;stroke-width:0.8;"/>
   </g>
   <g id="patch_26">
    <path d="M 466.4 290.25 
L 714.4 290.25 
" style="fill:none;stroke:#000000;stroke-linecap:square;stroke-linejoin:miter;stroke-width:0.8;"/>
   </g>
   <g id="text_37">
    <!-- \(\chi^2 = 0.03 \) -->
    <g transform="translate(562.039509 284.25)scale(0.14 -0.14)">
     <use transform="scale(0.996264)" xlink:href="#CMMI12-31"/>
     <use transform="translate(61.112959 36.153639)scale(0.697382)" xlink:href="#CMR17-50"/>
     <use transform="translate(121.268282 0)scale(0.996264)" xlink:href="#CMR17-61"/>
     <use transform="translate(220.657079 0)scale(0.996264)" xlink:href="#CMR17-48"/>
     <use transform="translate(266.347556 0)scale(0.996264)" xlink:href="#CMMI12-58"/>
     <use transform="translate(293.444733 0)scale(0.996264)" xlink:href="#CMR17-48"/>
     <use transform="translate(339.13521 0)scale(0.996264)" xlink:href="#CMR17-51"/>
    </g>
   </g>
  </g>
  <g id="axes_6">
   <g id="patch_27">
    <path d="M 788.8 426.15 
L 1036.8 426.15 
L 1036.8 290.25 
L 788.8 290.25 
z
" style="fill:#ffffff;"/>
   </g>
   <g id="PatchCollection_11">
    <path clip-path="url(#pd83a83025b)" d="M 833.890909 386.66149 
L 856.436364 386.66149 
L 856.436364 333.317565 
L 833.890909 333.317565 
z
" style="fill:#ffa500;"/>
    <path clip-path="url(#pd83a83025b)" d="M 856.436364 385.067768 
L 878.981818 385.067768 
L 878.981818 326.643469 
L 856.436364 326.643469 
z
" style="fill:#ffa500;"/>
    <path clip-path="url(#pd83a83025b)" d="M 957.890909 353.045581 
L 1036.8 353.045581 
L 1036.8 322.563338 
L 957.890909 322.563338 
z
" style="fill:#ffa500;"/>
   </g>
   <g id="PatchCollection_12">
    <path clip-path="url(#pd83a83025b)" d="M 833.890909 399.478037 
L 856.436364 399.478037 
L 856.436364 346.134112 
L 833.890909 346.134112 
z
" style="fill:#0000ff;"/>
    <path clip-path="url(#pd83a83025b)" d="M 856.436364 377.886449 
L 878.981818 377.886449 
L 878.981818 319.46215 
L 856.436364 319.46215 
z
" style="fill:#0000ff;"/>
    <path clip-path="url(#pd83a83025b)" d="M 957.890909 346.896168 
L 1036.8 346.896168 
L 1036.8 316.413925 
L 957.890909 316.413925 
z
" style="fill:#0000ff;"/>
   </g>
   <g id="matplotlib.axis_11">
    <g id="xtick_12">
     <g id="line2d_23">
      <g>
       <use style="stroke:#000000;stroke-width:0.8;" x="788.8" xlink:href="#m9ac3429f98" y="426.15"/>
      </g>
     </g>
     <g id="text_38">
      <!-- $0$ -->
      <g transform="translate(783.774048 448.370693)scale(0.22 -0.22)">
       <use transform="scale(0.996264)" xlink:href="#CMR17-48"/>
      </g>
     </g>
    </g>
    <g id="xtick_13">
     <g id="line2d_24">
      <g>
       <use style="stroke:#000000;stroke-width:0.8;" x="901.527273" xlink:href="#m9ac3429f98" y="426.15"/>
      </g>
     </g>
     <g id="text_39">
      <!-- $10$ -->
      <g transform="translate(891.475368 448.370693)scale(0.22 -0.22)">
       <use transform="scale(0.996264)" xlink:href="#CMR17-49"/>
       <use transform="translate(45.690477 0)scale(0.996264)" xlink:href="#CMR17-48"/>
      </g>
     </g>
    </g>
    <g id="xtick_14">
     <g id="line2d_25">
      <g>
       <use style="stroke:#000000;stroke-width:0.8;" x="1014.254545" xlink:href="#m9ac3429f98" y="426.15"/>
      </g>
     </g>
     <g id="text_40">
      <!-- $20$ -->
      <g transform="translate(1004.20264 448.370693)scale(0.22 -0.22)">
       <use transform="scale(0.996264)" xlink:href="#CMR17-50"/>
       <use transform="translate(45.690477 0)scale(0.996264)" xlink:href="#CMR17-48"/>
      </g>
     </g>
    </g>
    <g id="text_41">
     <!-- \(\boldsymbol{q^2(GeV^2)}\) -->
     <g transform="translate(879.830572 467.987317)scale(0.14 -0.14)">
      <use transform="scale(0.996264)" xlink:href="#CMMIB10-113"/>
      <use transform="translate(57.700068 36.153639)scale(0.697382)" xlink:href="#CMBX12-50"/>
      <use transform="translate(97.425913 0)scale(0.996264)" xlink:href="#CMBX12-40"/>
      <use transform="translate(141.012463 0)scale(0.996264)" xlink:href="#CMMIB10-71"/>
      <use transform="translate(229.354383 0)scale(0.996264)" xlink:href="#CMMIB10-101"/>
      <use transform="translate(284.508441 0)scale(0.996264)" xlink:href="#CMMIB10-86"/>
      <use transform="translate(377.492697 36.153639)scale(0.697382)" xlink:href="#CMBX12-50"/>
      <use transform="translate(417.218542 0)scale(0.996264)" xlink:href="#CMBX12-41"/>
     </g>
    </g>
   </g>
   <g id="matplotlib.axis_12">
    <g id="ytick_12">
     <g id="line2d_26">
      <g>
       <use style="stroke:#000000;stroke-width:0.8;" x="788.8" xlink:href="#m582d9eab9d" y="417.259346"/>
      </g>
     </g>
     <g id="text_42">
      <!-- $0.0$ -->
      <g transform="translate(755.734811 424.869692)scale(0.22 -0.22)">
       <use transform="scale(0.996264)" xlink:href="#CMR17-48"/>
       <use transform="translate(45.690477 0)scale(0.996264)" xlink:href="#CMMI12-58"/>
       <use transform="translate(72.787654 0)scale(0.996264)" xlink:href="#CMR17-48"/>
      </g>
     </g>
    </g>
    <g id="ytick_13">
     <g id="line2d_27">
      <g>
       <use style="stroke:#000000;stroke-width:0.8;" x="788.8" xlink:href="#m582d9eab9d" y="353.754673"/>
      </g>
     </g>
     <g id="text_43">
      <!-- $0.5$ -->
      <g transform="translate(755.734811 361.36502)scale(0.22 -0.22)">
       <use transform="scale(0.996264)" xlink:href="#CMR17-48"/>
       <use transform="translate(45.690477 0)scale(0.996264)" xlink:href="#CMMI12-58"/>
       <use transform="translate(72.787654 0)scale(0.996264)" xlink:href="#CMR17-53"/>
      </g>
     </g>
    </g>
    <g id="ytick_14">
     <g id="line2d_28">
      <g>
       <use style="stroke:#000000;stroke-width:0.8;" x="788.8" xlink:href="#m582d9eab9d" y="290.25"/>
      </g>
     </g>
     <g id="text_44">
      <!-- $1.0$ -->
      <g transform="translate(755.734811 297.860347)scale(0.22 -0.22)">
       <use transform="scale(0.996264)" xlink:href="#CMR17-49"/>
       <use transform="translate(45.690477 0)scale(0.996264)" xlink:href="#CMMI12-58"/>
       <use transform="translate(72.787654 0)scale(0.996264)" xlink:href="#CMR17-48"/>
      </g>
     </g>
    </g>
    <g id="text_45">
     <!-- \(\langle \boldsymbol{{\mathcal{B}(B^0\rightarrow K^{0}\mu\mu)}} \rangle\) -->
     <g transform="translate(748.247887 417.360655)rotate(-90)scale(0.14 -0.14)">
      <use transform="scale(0.996264)" xlink:href="#CMSY10-104"/>
      <use transform="translate(38.743734 0)scale(0.996264)" xlink:href="#CMBSY10-66"/>
      <use transform="translate(115.49124 0)scale(0.996264)" xlink:href="#CMBX12-40"/>
      <use transform="translate(159.07779 0)scale(0.996264)" xlink:href="#CMMIB10-66"/>
      <use transform="translate(250.211411 36.153639)scale(0.697382)" xlink:href="#CMBX12-48"/>
      <use transform="translate(321.762188 0)scale(0.996264)" xlink:href="#CMBSY10-33"/>
      <use transform="translate(468.156872 0)scale(0.996264)" xlink:href="#CMMIB10-75"/>
      <use transform="translate(571.864754 36.153639)scale(0.697382)" xlink:href="#CMBX12-48"/>
      <use transform="translate(611.590599 0)scale(0.996264)" xlink:href="#CMMIB10-22"/>
      <use transform="translate(682.11299 0)scale(0.996264)" xlink:href="#CMMIB10-22"/>
      <use transform="translate(752.635381 0)scale(0.996264)" xlink:href="#CMBX12-41"/>
      <use transform="translate(796.221931 0)scale(0.996264)" xlink:href="#CMSY10-105"/>
     </g>
    </g>
   </g>
   <g id="patch_28">
    <path d="M 788.8 426.15 
L 788.8 290.25 
" style="fill:none;stroke:#000000;stroke-linecap:square;stroke-linejoin:miter;stroke-width:0.8;"/>
   </g>
   <g id="patch_29">
    <path d="M 1036.8 426.15 
L 1036.8 290.25 
" style="fill:none;stroke:#000000;stroke-linecap:square;stroke-linejoin:miter;stroke-width:0.8;"/>
   </g>
   <g id="patch_30">
    <path d="M 788.8 426.15 
L 1036.8 426.15 
" style="fill:none;stroke:#000000;stroke-linecap:square;stroke-linejoin:miter;stroke-width:0.8;"/>
   </g>
   <g id="patch_31">
    <path d="M 788.8 290.25 
L 1036.8 290.25 
" style="fill:none;stroke:#000000;stroke-linecap:square;stroke-linejoin:miter;stroke-width:0.8;"/>
   </g>
   <g id="text_46">
    <!-- \(\chi^2 = 0.08 \) -->
    <g transform="translate(884.439509 284.25)scale(0.14 -0.14)">
     <use transform="scale(0.996264)" xlink:href="#CMMI12-31"/>
     <use transform="translate(61.112959 36.153639)scale(0.697382)" xlink:href="#CMR17-50"/>
     <use transform="translate(121.268282 0)scale(0.996264)" xlink:href="#CMR17-61"/>
     <use transform="translate(220.657079 0)scale(0.996264)" xlink:href="#CMR17-48"/>
     <use transform="translate(266.347556 0)scale(0.996264)" xlink:href="#CMMI12-58"/>
     <use transform="translate(293.444733 0)scale(0.996264)" xlink:href="#CMR17-48"/>
     <use transform="translate(339.13521 0)scale(0.996264)" xlink:href="#CMR17-56"/>
    </g>
   </g>
  </g>
  <g id="axes_7">
   <g id="patch_32">
    <path d="M 144 630 
L 392 630 
L 392 494.1 
L 144 494.1 
z
" style="fill:#ffffff;"/>
   </g>
   <g id="PatchCollection_13">
    <path clip-path="url(#p74aac0a76d)" d="M 189.466667 618.927738 
L 392 618.927738 
L 392 607.743634 
L 189.466667 607.743634 
z
" style="fill:#ffa500;"/>
   </g>
   <g id="PatchCollection_14">
    <path clip-path="url(#p74aac0a76d)" d="M 189.466667 505.395944 
L 392 505.395944 
L 392 494.211841 
L 189.466667 494.211841 
z
" style="fill:#0000ff;"/>
   </g>
   <g id="matplotlib.axis_13">
    <g id="xtick_15">
     <g id="line2d_29">
      <g>
       <use style="stroke:#000000;stroke-width:0.8;" x="144" xlink:href="#m9ac3429f98" y="630"/>
      </g>
     </g>
     <g id="text_47">
      <!-- $0$ -->
      <g transform="translate(138.974048 652.220693)scale(0.22 -0.22)">
       <use transform="scale(0.996264)" xlink:href="#CMR17-48"/>
      </g>
     </g>
    </g>
    <g id="xtick_16">
     <g id="line2d_30">
      <g>
       <use style="stroke:#000000;stroke-width:0.8;" x="226.666667" xlink:href="#m9ac3429f98" y="630"/>
      </g>
     </g>
     <g id="text_48">
      <!-- $2$ -->
      <g transform="translate(221.640714 652.220693)scale(0.22 -0.22)">
       <use transform="scale(0.996264)" xlink:href="#CMR17-50"/>
      </g>
     </g>
    </g>
    <g id="xtick_17">
     <g id="line2d_31">
      <g>
       <use style="stroke:#000000;stroke-width:0.8;" x="309.333333" xlink:href="#m9ac3429f98" y="630"/>
      </g>
     </g>
     <g id="text_49">
      <!-- $4$ -->
      <g transform="translate(304.307381 652.220693)scale(0.22 -0.22)">
       <use transform="scale(0.996264)" xlink:href="#CMR17-52"/>
      </g>
     </g>
    </g>
    <g id="xtick_18">
     <g id="line2d_32">
      <g>
       <use style="stroke:#000000;stroke-width:0.8;" x="392" xlink:href="#m9ac3429f98" y="630"/>
      </g>
     </g>
     <g id="text_50">
      <!-- $6$ -->
      <g transform="translate(386.974048 652.220693)scale(0.22 -0.22)">
       <use transform="scale(0.996264)" xlink:href="#CMR17-54"/>
      </g>
     </g>
    </g>
    <g id="text_51">
     <!-- \(\boldsymbol{q^2(GeV^2)}\) -->
     <g transform="translate(235.030572 671.837317)scale(0.14 -0.14)">
      <use transform="scale(0.996264)" xlink:href="#CMMIB10-113"/>
      <use transform="translate(57.700068 36.153639)scale(0.697382)" xlink:href="#CMBX12-50"/>
      <use transform="translate(97.425913 0)scale(0.996264)" xlink:href="#CMBX12-40"/>
      <use transform="translate(141.012463 0)scale(0.996264)" xlink:href="#CMMIB10-71"/>
      <use transform="translate(229.354383 0)scale(0.996264)" xlink:href="#CMMIB10-101"/>
      <use transform="translate(284.508441 0)scale(0.996264)" xlink:href="#CMMIB10-86"/>
      <use transform="translate(377.492697 36.153639)scale(0.697382)" xlink:href="#CMBX12-50"/>
      <use transform="translate(417.218542 0)scale(0.996264)" xlink:href="#CMBX12-41"/>
     </g>
    </g>
   </g>
   <g id="matplotlib.axis_14">
    <g id="ytick_15">
     <g id="line2d_33">
      <g>
       <use style="stroke:#000000;stroke-width:0.8;" x="144" xlink:href="#m582d9eab9d" y="617.125137"/>
      </g>
     </g>
     <g id="text_52">
      <!-- $0.75$ -->
      <defs>
       <path d="M 45.09375 61.796875 
L 45.09375 64 
L 21.59375 64 
C 9.90625 64 9.703125 65.09375 9.296875 67 
L 7.5 67 
L 4.59375 48.5 
L 6.40625 48.5 
C 6.703125 50.40625 7.40625 55.5 8.59375 57.390625 
C 9.203125 58.1875 16.59375 58.1875 18.296875 58.1875 
L 40.296875 58.1875 
L 29.203125 41.71875 
C 21.796875 30.640625 16.703125 15.671875 16.703125 2.59375 
C 16.703125 1.390625 16.703125 -2 20.296875 -2 
C 23.90625 -2 23.90625 1.390625 23.90625 2.6875 
L 23.90625 7.28125 
C 23.90625 23.65625 26.703125 34.4375 31.296875 41.3125 
z
" id="CMR17-55"/>
      </defs>
      <g transform="translate(100.882906 624.735484)scale(0.22 -0.22)">
       <use transform="scale(0.996264)" xlink:href="#CMR17-48"/>
       <use transform="translate(45.690477 0)scale(0.996264)" xlink:href="#CMMI12-58"/>
       <use transform="translate(72.787654 0)scale(0.996264)" xlink:href="#CMR17-55"/>
       <use transform="translate(118.478131 0)scale(0.996264)" xlink:href="#CMR17-53"/>
      </g>
     </g>
    </g>
    <g id="ytick_16">
     <g id="line2d_34">
      <g>
       <use style="stroke:#000000;stroke-width:0.8;" x="144" xlink:href="#m582d9eab9d" y="561.20462"/>
      </g>
     </g>
     <g id="text_53">
      <!-- $0.80$ -->
      <g transform="translate(100.882906 568.814967)scale(0.22 -0.22)">
       <use transform="scale(0.996264)" xlink:href="#CMR17-48"/>
       <use transform="translate(45.690477 0)scale(0.996264)" xlink:href="#CMMI12-58"/>
       <use transform="translate(72.787654 0)scale(0.996264)" xlink:href="#CMR17-56"/>
       <use transform="translate(118.478131 0)scale(0.996264)" xlink:href="#CMR17-48"/>
      </g>
     </g>
    </g>
    <g id="ytick_17">
     <g id="line2d_35">
      <g>
       <use style="stroke:#000000;stroke-width:0.8;" x="144" xlink:href="#m582d9eab9d" y="505.284103"/>
      </g>
     </g>
     <g id="text_54">
      <!-- $0.85$ -->
      <g transform="translate(100.882906 512.89445)scale(0.22 -0.22)">
       <use transform="scale(0.996264)" xlink:href="#CMR17-48"/>
       <use transform="translate(45.690477 0)scale(0.996264)" xlink:href="#CMMI12-58"/>
       <use transform="translate(72.787654 0)scale(0.996264)" xlink:href="#CMR17-56"/>
       <use transform="translate(118.478131 0)scale(0.996264)" xlink:href="#CMR17-53"/>
      </g>
     </g>
    </g>
    <g id="text_55">
     <!-- \(\langle \boldsymbol{{R_K}} \rangle\) -->
     <defs>
      <path d="M 43.59375 62.5 
C 44 63.890625 44.09375 64 44.203125 64.09375 
C 44.796875 64.296875 49.203125 64.296875 51.703125 64.296875 
C 60.796875 64.296875 70.203125 64.296875 70.203125 56.015625 
C 70.203125 55.921875 69.796875 46.25 64.59375 41.078125 
C 63.203125 39.6875 58.703125 36.59375 48.703125 36.59375 
L 37.09375 36.59375 
z
M 63.296875 34.390625 
C 81.203125 39.1875 84.40625 48.65625 84.40625 53.734375 
C 84.40625 63.6875 73.703125 69 58.703125 69 
L 24 69 
C 22 69 20.296875 69 20.296875 66.09375 
C 20.296875 64.296875 21.59375 64.296875 24.5 64.296875 
C 26.59375 64.296875 28.5 64.1875 30.59375 64.09375 
L 16.296875 6.734375 
C 15.90625 5.09375 15.796875 5 14 4.796875 
C 12.296875 4.6875 10.296875 4.6875 8.703125 4.6875 
C 6.09375 4.6875 5.90625 4.6875 5.5 4.5 
C 4.296875 3.796875 4.296875 2.1875 4.296875 1.796875 
C 4.296875 1.59375 4.40625 0 6.5 0 
C 9 0 11.59375 0.1875 14.09375 0.1875 
C 16.5 0.1875 19 0.296875 21.40625 0.296875 
C 24.796875 0.296875 33.296875 0 36.703125 0 
C 37.5 0 38.296875 0 38.796875 0.6875 
C 39.296875 1.1875 39.5 2.796875 39.5 2.890625 
C 39.5 4.6875 38.09375 4.6875 35.40625 4.6875 
C 33.296875 4.6875 31.40625 4.796875 29.296875 4.890625 
L 36.203125 33 
L 48.296875 33 
C 51.203125 33 58.203125 32.28125 58.203125 24.578125 
C 58.203125 23.140625 57.296875 19.453125 56.59375 16.875 
C 55.59375 12.578125 55.203125 11.03125 55.203125 9.390625 
C 55.203125 -1.203125 68.59375 -2 73.796875 -2 
C 84.40625 -2 88.09375 8.15625 88.09375 9.796875 
C 88.09375 11.65625 86.296875 11.65625 85.703125 11.65625 
C 84 11.65625 83.703125 11.140625 83.296875 9.59375 
C 82 5.484375 78.40625 1.59375 74.59375 1.59375 
C 71.90625 1.59375 70 2.71875 70 7.859375 
C 70 9.390625 70.09375 11.03125 71.40625 19.25 
C 71.59375 20.46875 71.90625 22.421875 71.90625 23.34375 
C 71.90625 27.34375 69.796875 31.96875 63.296875 34.390625 
z
" id="CMMIB10-82"/>
     </defs>
     <g transform="translate(94.170878 579.407669)rotate(-90)scale(0.14 -0.14)">
      <use transform="translate(0 14.943915)scale(0.996264)" xlink:href="#CMSY10-104"/>
      <use transform="translate(38.743734 14.943915)scale(0.996264)" xlink:href="#CMMIB10-82"/>
      <use transform="translate(125.652795 0)scale(0.697382)" xlink:href="#CMMIB10-75"/>
      <use transform="translate(198.746111 14.943915)scale(0.996264)" xlink:href="#CMSY10-105"/>
     </g>
    </g>
   </g>
   <g id="patch_33">
    <path d="M 144 630 
L 144 494.1 
" style="fill:none;stroke:#000000;stroke-linecap:square;stroke-linejoin:miter;stroke-width:0.8;"/>
   </g>
   <g id="patch_34">
    <path d="M 392 630 
L 392 494.1 
" style="fill:none;stroke:#000000;stroke-linecap:square;stroke-linejoin:miter;stroke-width:0.8;"/>
   </g>
   <g id="patch_35">
    <path d="M 144 630 
L 392 630 
" style="fill:none;stroke:#000000;stroke-linecap:square;stroke-linejoin:miter;stroke-width:0.8;"/>
   </g>
   <g id="patch_36">
    <path d="M 144 494.1 
L 392 494.1 
" style="fill:none;stroke:#000000;stroke-linecap:square;stroke-linejoin:miter;stroke-width:0.8;"/>
   </g>
   <g id="text_56">
    <!-- \(\chi^2 = 0.72 \) -->
    <g transform="translate(239.639509 488.1)scale(0.14 -0.14)">
     <use transform="scale(0.996264)" xlink:href="#CMMI12-31"/>
     <use transform="translate(61.112959 36.153639)scale(0.697382)" xlink:href="#CMR17-50"/>
     <use transform="translate(121.268282 0)scale(0.996264)" xlink:href="#CMR17-61"/>
     <use transform="translate(220.657079 0)scale(0.996264)" xlink:href="#CMR17-48"/>
     <use transform="translate(266.347556 0)scale(0.996264)" xlink:href="#CMMI12-58"/>
     <use transform="translate(293.444733 0)scale(0.996264)" xlink:href="#CMR17-55"/>
     <use transform="translate(339.13521 0)scale(0.996264)" xlink:href="#CMR17-50"/>
    </g>
   </g>
  </g>
  <g id="axes_8">
   <g id="patch_37">
    <path d="M 466.4 630 
L 714.4 630 
L 714.4 494.1 
L 466.4 494.1 
z
" style="fill:#ffffff;"/>
   </g>
   <g id="PatchCollection_15">
    <path clip-path="url(#p7773867830)" d="M 466.987368 576.713073 
L 480.757895 576.713073 
L 480.757895 569.056735 
L 466.987368 569.056735 
z
" style="fill:#ffa500;"/>
    <path clip-path="url(#p7773867830)" d="M 480.757895 597.557168 
L 544.715789 597.557168 
L 544.715789 593.728999 
L 480.757895 593.728999 
z
" style="fill:#ffa500;"/>
    <path clip-path="url(#p7773867830)" d="M 662.189474 603.705007 
L 714.4 603.705007 
L 714.4 601.790922 
L 662.189474 601.790922 
z
" style="fill:#ffa500;"/>
   </g>
   <g id="PatchCollection_16">
    <path clip-path="url(#p7773867830)" d="M 466.987368 626.171831 
L 480.757895 626.171831 
L 480.757895 618.515493 
L 466.987368 618.515493 
z
" style="fill:#0000ff;"/>
    <path clip-path="url(#p7773867830)" d="M 480.757895 540.038028 
L 544.715789 540.038028 
L 544.715789 536.209859 
L 480.757895 536.209859 
z
" style="fill:#0000ff;"/>
    <path clip-path="url(#p7773867830)" d="M 662.189474 496.033225 
L 714.4 496.033225 
L 714.4 494.119141 
L 662.189474 494.119141 
z
" style="fill:#0000ff;"/>
   </g>
   <g id="matplotlib.axis_15">
    <g id="xtick_19">
     <g id="line2d_36">
      <g>
       <use style="stroke:#000000;stroke-width:0.8;" x="466.4" xlink:href="#m9ac3429f98" y="630"/>
      </g>
     </g>
     <g id="text_57">
      <!-- $0$ -->
      <g transform="translate(461.374048 652.220693)scale(0.22 -0.22)">
       <use transform="scale(0.996264)" xlink:href="#CMR17-48"/>
      </g>
     </g>
    </g>
    <g id="xtick_20">
     <g id="line2d_37">
      <g>
       <use style="stroke:#000000;stroke-width:0.8;" x="596.926316" xlink:href="#m9ac3429f98" y="630"/>
      </g>
     </g>
     <g id="text_58">
      <!-- $10$ -->
      <g transform="translate(586.874411 652.220693)scale(0.22 -0.22)">
       <use transform="scale(0.996264)" xlink:href="#CMR17-49"/>
       <use transform="translate(45.690477 0)scale(0.996264)" xlink:href="#CMR17-48"/>
      </g>
     </g>
    </g>
    <g id="text_59">
     <!-- \(\boldsymbol{q^2(GeV^2)}\) -->
     <g transform="translate(557.430572 671.837317)scale(0.14 -0.14)">
      <use transform="scale(0.996264)" xlink:href="#CMMIB10-113"/>
      <use transform="translate(57.700068 36.153639)scale(0.697382)" xlink:href="#CMBX12-50"/>
      <use transform="translate(97.425913 0)scale(0.996264)" xlink:href="#CMBX12-40"/>
      <use transform="translate(141.012463 0)scale(0.996264)" xlink:href="#CMMIB10-71"/>
      <use transform="translate(229.354383 0)scale(0.996264)" xlink:href="#CMMIB10-101"/>
      <use transform="translate(284.508441 0)scale(0.996264)" xlink:href="#CMMIB10-86"/>
      <use transform="translate(377.492697 36.153639)scale(0.697382)" xlink:href="#CMBX12-50"/>
      <use transform="translate(417.218542 0)scale(0.996264)" xlink:href="#CMBX12-41"/>
     </g>
    </g>
   </g>
   <g id="matplotlib.axis_16">
    <g id="ytick_18">
     <g id="line2d_38">
      <g>
       <use style="stroke:#000000;stroke-width:0.8;" x="466.4" xlink:href="#m582d9eab9d" y="626.171831"/>
      </g>
     </g>
     <g id="text_60">
      <!-- $0.50$ -->
      <g transform="translate(423.282906 633.782178)scale(0.22 -0.22)">
       <use transform="scale(0.996264)" xlink:href="#CMR17-48"/>
       <use transform="translate(45.690477 0)scale(0.996264)" xlink:href="#CMMI12-58"/>
       <use transform="translate(72.787654 0)scale(0.996264)" xlink:href="#CMR17-53"/>
       <use transform="translate(118.478131 0)scale(0.996264)" xlink:href="#CMR17-48"/>
      </g>
     </g>
    </g>
    <g id="ytick_19">
     <g id="line2d_39">
      <g>
       <use style="stroke:#000000;stroke-width:0.8;" x="466.4" xlink:href="#m582d9eab9d" y="578.319718"/>
      </g>
     </g>
     <g id="text_61">
      <!-- $0.75$ -->
      <g transform="translate(423.282906 585.930065)scale(0.22 -0.22)">
       <use transform="scale(0.996264)" xlink:href="#CMR17-48"/>
       <use transform="translate(45.690477 0)scale(0.996264)" xlink:href="#CMMI12-58"/>
       <use transform="translate(72.787654 0)scale(0.996264)" xlink:href="#CMR17-55"/>
       <use transform="translate(118.478131 0)scale(0.996264)" xlink:href="#CMR17-53"/>
      </g>
     </g>
    </g>
    <g id="ytick_20">
     <g id="line2d_40">
      <g>
       <use style="stroke:#000000;stroke-width:0.8;" x="466.4" xlink:href="#m582d9eab9d" y="530.467606"/>
      </g>
     </g>
     <g id="text_62">
      <!-- $1.00$ -->
      <g transform="translate(423.282906 538.077952)scale(0.22 -0.22)">
       <use transform="scale(0.996264)" xlink:href="#CMR17-49"/>
       <use transform="translate(45.690477 0)scale(0.996264)" xlink:href="#CMMI12-58"/>
       <use transform="translate(72.787654 0)scale(0.996264)" xlink:href="#CMR17-48"/>
       <use transform="translate(118.478131 0)scale(0.996264)" xlink:href="#CMR17-48"/>
      </g>
     </g>
    </g>
    <g id="text_63">
     <!-- \(\langle \boldsymbol{{R_K^*}} \rangle\) -->
     <g transform="translate(416.570878 579.407669)rotate(-90)scale(0.14 -0.14)">
      <use transform="translate(0 30.806412)scale(0.996264)" xlink:href="#CMSY10-104"/>
      <use transform="translate(38.743734 30.806412)scale(0.996264)" xlink:href="#CMMIB10-82"/>
      <use transform="translate(126.072167 66.960051)scale(0.697382)" xlink:href="#CMBSY10-3"/>
      <use transform="translate(125.652795 0)scale(0.697382)" xlink:href="#CMMIB10-75"/>
      <use transform="translate(198.746111 30.806412)scale(0.996264)" xlink:href="#CMSY10-105"/>
     </g>
    </g>
   </g>
   <g id="patch_38">
    <path d="M 466.4 630 
L 466.4 494.1 
" style="fill:none;stroke:#000000;stroke-linecap:square;stroke-linejoin:miter;stroke-width:0.8;"/>
   </g>
   <g id="patch_39">
    <path d="M 714.4 630 
L 714.4 494.1 
" style="fill:none;stroke:#000000;stroke-linecap:square;stroke-linejoin:miter;stroke-width:0.8;"/>
   </g>
   <g id="patch_40">
    <path d="M 466.4 630 
L 714.4 630 
" style="fill:none;stroke:#000000;stroke-linecap:square;stroke-linejoin:miter;stroke-width:0.8;"/>
   </g>
   <g id="patch_41">
    <path d="M 466.4 494.1 
L 714.4 494.1 
" style="fill:none;stroke:#000000;stroke-linecap:square;stroke-linejoin:miter;stroke-width:0.8;"/>
   </g>
   <g id="text_64">
    <!-- \(\chi^2 = 0.52 \) -->
    <g transform="translate(562.039509 488.1)scale(0.14 -0.14)">
     <use transform="scale(0.996264)" xlink:href="#CMMI12-31"/>
     <use transform="translate(61.112959 36.153639)scale(0.697382)" xlink:href="#CMR17-50"/>
     <use transform="translate(121.268282 0)scale(0.996264)" xlink:href="#CMR17-61"/>
     <use transform="translate(220.657079 0)scale(0.996264)" xlink:href="#CMR17-48"/>
     <use transform="translate(266.347556 0)scale(0.996264)" xlink:href="#CMMI12-58"/>
     <use transform="translate(293.444733 0)scale(0.996264)" xlink:href="#CMR17-53"/>
     <use transform="translate(339.13521 0)scale(0.996264)" xlink:href="#CMR17-50"/>
    </g>
   </g>
  </g>
  <g id="text_65">
   <!-- \(\chi^2 = 5.9 \) -->
   <defs>
    <path d="M 35.203125 29.234375 
C 35.203125 7 26.09375 0.390625 18.59375 0.390625 
C 16.296875 0.390625 10.703125 0.671875 8.40625 4.390625 
C 11 4 12.90625 5.390625 12.90625 7.890625 
C 12.90625 10.59375 10.703125 11.5 9.296875 11.5 
C 8.40625 11.5 5.703125 11.09375 5.703125 7.6875 
C 5.703125 1.0625 11.59375 -2 18.796875 -2 
C 30.296875 -2 42 10.390625 42 32.65625 
C 42 60.265625 30.796875 66 23.203125 66 
C 13.296875 66 3.796875 57.25 3.796875 43.75 
C 3.796875 31.25 11.90625 22 22.09375 22 
C 30.5 22 34.203125 29.84375 35.203125 33.15625 
z
M 22.296875 23.59375 
C 19.59375 23.59375 15.796875 24.09375 12.703125 30.140625 
C 10.59375 34.078125 10.59375 38.703125 10.59375 43.640625 
C 10.59375 49.59375 10.59375 53.71875 13.40625 58.15625 
C 14.796875 60.265625 17.40625 63.6875 23.203125 63.6875 
C 35 63.6875 35 45.453125 35 41.421875 
C 35 34.265625 31.796875 23.59375 22.296875 23.59375 
z
" id="CMR17-57"/>
   </defs>
   <g transform="translate(534.855426 33.861489)scale(0.24 -0.24)">
    <use transform="scale(0.996264)" xlink:href="#CMMI12-31"/>
    <use transform="translate(61.112959 36.153639)scale(0.697382)" xlink:href="#CMR17-50"/>
    <use transform="translate(121.268282 0)scale(0.996264)" xlink:href="#CMR17-61"/>
    <use transform="translate(220.657079 0)scale(0.996264)" xlink:href="#CMR17-53"/>
    <use transform="translate(266.347556 0)scale(0.996264)" xlink:href="#CMMI12-58"/>
    <use transform="translate(293.444733 0)scale(0.996264)" xlink:href="#CMR17-57"/>
   </g>
  </g>
 </g>
 <defs>
  <clipPath id="p45cb7574b3">
   <rect height="135.9" width="248" x="144" y="86.4"/>
  </clipPath>
  <clipPath id="p811e529238">
   <rect height="135.9" width="248" x="466.4" y="86.4"/>
  </clipPath>
  <clipPath id="p797a837398">
   <rect height="135.9" width="248" x="788.8" y="86.4"/>
  </clipPath>
  <clipPath id="p6b2d7c680c">
   <rect height="135.9" width="248" x="144" y="290.25"/>
  </clipPath>
  <clipPath id="p2952911f08">
   <rect height="135.9" width="248" x="466.4" y="290.25"/>
  </clipPath>
  <clipPath id="pd83a83025b">
   <rect height="135.9" width="248" x="788.8" y="290.25"/>
  </clipPath>
  <clipPath id="p74aac0a76d">
   <rect height="135.9" width="248" x="144" y="494.1"/>
  </clipPath>
  <clipPath id="p7773867830">
   <rect height="135.9" width="248" x="466.4" y="494.1"/>
  </clipPath>
 </defs>
</svg>
